<svg width="95" height="15" viewBox="0 0 95 15" fill="none" xmlns="http://www.w3.org/2000/svg">
<path d="M0.38 11H10.625V8.63H3.41V0.349999H0.38V11ZM16.2793 11.285C19.7893 11.285 22.0993 9.695 22.0993 7.25C22.0993 4.805 19.7893 3.215 16.2793 3.215C12.7843 3.215 10.4743 4.805 10.4743 7.25C10.4743 9.695 12.7843 11.285 16.2793 11.285ZM16.2793 9.44C14.5993 9.44 13.4743 8.585 13.4743 7.25C13.4743 5.915 14.5993 5.06 16.2793 5.06C17.9743 5.06 19.0843 5.915 19.0843 7.25C19.0843 8.585 17.9743 9.44 16.2793 9.44ZM33.4932 3.965V2.165C33.2382 2.12 33.0132 2.105 32.7732 2.105C31.4832 2.105 30.5982 2.6 30.3282 3.56C29.5632 3.335 28.6032 3.215 27.4632 3.215C24.2532 3.215 22.4232 4.145 22.4232 5.795C22.4232 6.71 22.9932 7.415 24.0432 7.865C22.8132 8.12 22.1082 8.75 22.1082 9.635C22.1082 10.295 22.5582 10.805 23.3082 11.09C22.3782 11.3 21.9582 11.735 21.9582 12.395C21.9582 13.64 23.5782 14.21 27.1482 14.21C31.5582 14.21 33.4482 13.34 33.4482 11.375C33.4482 9.875 32.4582 9.17 30.2232 9.155L25.4232 9.14C24.7932 9.14 24.5082 8.96 24.5082 8.63C24.5082 8.42 24.6582 8.255 24.9582 8.165C25.6632 8.345 26.5032 8.435 27.4632 8.435C30.6282 8.435 32.4882 7.445 32.4882 5.795C32.4882 5.09 32.1432 4.505 31.4982 4.085C31.7682 3.95 32.1282 3.875 32.5932 3.875C32.9382 3.875 33.2232 3.905 33.4932 3.965ZM27.4632 7.07C26.1432 7.07 25.3782 6.605 25.3782 5.795C25.3782 5 26.1282 4.58 27.4632 4.58C28.7982 4.58 29.5332 5 29.5332 5.795C29.5332 6.605 28.7682 7.07 27.4632 7.07ZM29.9082 11.33C30.6882 11.33 31.0182 11.555 31.0182 11.975C31.0182 12.695 30.2382 12.935 27.4032 12.935C25.1532 12.935 24.1182 12.665 24.1182 11.9C24.1182 11.66 24.2232 11.48 24.4332 11.315C24.5532 11.33 24.6732 11.33 24.8082 11.33H29.9082ZM38.5664 11.285C42.0764 11.285 44.3864 9.695 44.3864 7.25C44.3864 4.805 42.0764 3.215 38.5664 3.215C35.0714 3.215 32.7614 4.805 32.7614 7.25C32.7614 9.695 35.0714 11.285 38.5664 11.285ZM38.5664 9.44C36.8864 9.44 35.7614 8.585 35.7614 7.25C35.7614 5.915 36.8864 5.06 38.5664 5.06C40.2614 5.06 41.3714 5.915 41.3714 7.25C41.3714 8.585 40.2614 9.44 38.5664 9.44ZM50.1212 11H60.3662V8.63H53.1512V0.349999H50.1212V11ZM66.0205 11.285C69.5305 11.285 71.8405 9.695 71.8405 7.25C71.8405 4.805 69.5305 3.215 66.0205 3.215C62.5255 3.215 60.2155 4.805 60.2155 7.25C60.2155 9.695 62.5255 11.285 66.0205 11.285ZM66.0205 9.44C64.3405 9.44 63.2155 8.585 63.2155 7.25C63.2155 5.915 64.3405 5.06 66.0205 5.06C67.7155 5.06 68.8255 5.915 68.8255 7.25C68.8255 8.585 67.7155 9.44 66.0205 9.44ZM83.2345 3.965V2.165C82.9795 2.12 82.7545 2.105 82.5145 2.105C81.2245 2.105 80.3395 2.6 80.0695 3.56C79.3045 3.335 78.3445 3.215 77.2045 3.215C73.9945 3.215 72.1645 4.145 72.1645 5.795C72.1645 6.71 72.7345 7.415 73.7845 7.865C72.5545 8.12 71.8495 8.75 71.8495 9.635C71.8495 10.295 72.2995 10.805 73.0495 11.09C72.1195 11.3 71.6995 11.735 71.6995 12.395C71.6995 13.64 73.3195 14.21 76.8895 14.21C81.2995 14.21 83.1895 13.34 83.1895 11.375C83.1895 9.875 82.1995 9.17 79.9645 9.155L75.1645 9.14C74.5345 9.14 74.2495 8.96 74.2495 8.63C74.2495 8.42 74.3995 8.255 74.6995 8.165C75.4045 8.345 76.2445 8.435 77.2045 8.435C80.3695 8.435 82.2295 7.445 82.2295 5.795C82.2295 5.09 81.8845 4.505 81.2395 4.085C81.5095 3.95 81.8695 3.875 82.3345 3.875C82.6795 3.875 82.9645 3.905 83.2345 3.965ZM77.2045 7.07C75.8845 7.07 75.1195 6.605 75.1195 5.795C75.1195 5 75.8695 4.58 77.2045 4.58C78.5395 4.58 79.2745 5 79.2745 5.795C79.2745 6.605 78.5095 7.07 77.2045 7.07ZM79.6495 11.33C80.4295 11.33 80.7595 11.555 80.7595 11.975C80.7595 12.695 79.9795 12.935 77.1445 12.935C74.8945 12.935 73.8595 12.665 73.8595 11.9C73.8595 11.66 73.9645 11.48 74.1745 11.315C74.2945 11.33 74.4145 11.33 74.5495 11.33H79.6495ZM88.3076 11.285C91.8176 11.285 94.1276 9.695 94.1276 7.25C94.1276 4.805 91.8176 3.215 88.3076 3.215C84.8126 3.215 82.5026 4.805 82.5026 7.25C82.5026 9.695 84.8126 11.285 88.3076 11.285ZM88.3076 9.44C86.6276 9.44 85.5026 8.585 85.5026 7.25C85.5026 5.915 86.6276 5.06 88.3076 5.06C90.0026 5.06 91.1126 5.915 91.1126 7.25C91.1126 8.585 90.0026 9.44 88.3076 9.44Z" fill="black"/>
<path d="M0.38 11H0.255V11.125H0.38V11ZM10.625 11V11.125H10.75V11H10.625ZM10.625 8.63H10.75V8.505H10.625V8.63ZM3.41 8.63H3.285V8.755H3.41V8.63ZM3.41 0.349999H3.535V0.224999H3.41V0.349999ZM0.38 0.349999V0.224999H0.255V0.349999H0.38ZM0.38 11.125H10.625V10.875H0.38V11.125ZM10.75 11V8.63H10.5V11H10.75ZM10.625 8.505H3.41V8.755H10.625V8.505ZM3.535 8.63V0.349999H3.285V8.63H3.535ZM3.41 0.224999H0.38V0.474999H3.41V0.224999ZM0.255 0.349999V11H0.505V0.349999H0.255ZM16.2793 11.41C18.0513 11.41 19.5335 11.0089 20.5766 10.2872C21.6234 9.56294 22.2243 8.51732 22.2243 7.25H21.9743C21.9743 8.42768 21.4201 9.39956 20.4344 10.0816C19.445 10.7661 18.0172 11.16 16.2793 11.16V11.41ZM22.2243 7.25C22.2243 5.98268 21.6234 4.93706 20.5766 4.21283C19.5335 3.49112 18.0513 3.09 16.2793 3.09V3.34C18.0172 3.34 19.445 3.73388 20.4344 4.41842C21.4201 5.10044 21.9743 6.07232 21.9743 7.25H22.2243ZM16.2793 3.09C14.5146 3.09 13.0361 3.49116 11.9949 4.21289C10.9501 4.93711 10.3493 5.9827 10.3493 7.25H10.5993C10.5993 6.0723 11.1534 5.10038 12.1373 4.41836C13.1249 3.73384 14.5489 3.34 16.2793 3.34V3.09ZM10.3493 7.25C10.3493 8.5173 10.9501 9.56289 11.9949 10.2871C13.0361 11.0088 14.5146 11.41 16.2793 11.41V11.16C14.5489 11.16 13.1249 10.7662 12.1373 10.0816C11.1534 9.39962 10.5993 8.4277 10.5993 7.25H10.3493ZM16.2793 9.315C15.4591 9.315 14.7871 9.10619 14.3233 8.74681C13.8625 8.38973 13.5993 7.87863 13.5993 7.25H13.3493C13.3493 7.95637 13.6486 8.54027 14.1702 8.94444C14.6889 9.3463 15.4194 9.565 16.2793 9.565V9.315ZM13.5993 7.25C13.5993 6.62137 13.8625 6.11027 14.3233 5.75319C14.7871 5.3938 15.4591 5.185 16.2793 5.185V4.935C15.4194 4.935 14.6889 5.15369 14.1702 5.55556C13.6486 5.95973 13.3493 6.54363 13.3493 7.25H13.5993ZM16.2793 5.185C17.1071 5.185 17.7789 5.3939 18.2406 5.75304C18.6994 6.10982 18.9593 6.62081 18.9593 7.25H19.2093C19.2093 6.54419 18.9142 5.96018 18.3941 5.55571C17.8771 5.15359 17.1464 4.935 16.2793 4.935V5.185ZM18.9593 7.25C18.9593 7.87919 18.6994 8.39018 18.2406 8.74696C17.7789 9.10609 17.1071 9.315 16.2793 9.315V9.565C17.1464 9.565 17.8771 9.34641 18.3941 8.94429C18.9142 8.53982 19.2093 7.95581 19.2093 7.25H18.9593ZM33.4932 3.965L33.4661 4.08702L33.6182 4.12083V3.965H33.4932ZM33.4932 2.165H33.6182V2.06013L33.515 2.0419L33.4932 2.165ZM30.3282 3.56L30.293 3.67992L30.4143 3.71561L30.4486 3.59384L30.3282 3.56ZM24.0432 7.865L24.0686 7.9874L24.4579 7.9067L24.0925 7.75011L24.0432 7.865ZM23.3082 11.09L23.3358 11.2119L23.7405 11.1205L23.3526 10.9732L23.3082 11.09ZM30.2232 9.155L30.2241 9.03L30.2236 9.03L30.2232 9.155ZM25.4232 9.14L25.4236 9.015H25.4232V9.14ZM24.9582 8.165L24.9892 8.04389L24.9556 8.0353L24.9223 8.04527L24.9582 8.165ZM31.4982 4.085L31.4423 3.9732L31.2473 4.07074L31.43 4.18975L31.4982 4.085ZM24.4332 11.315L24.4487 11.191L24.397 11.1845L24.356 11.2167L24.4332 11.315ZM33.6182 3.965V2.165H33.3682V3.965H33.6182ZM33.515 2.0419C33.2515 1.99541 33.0191 1.98 32.7732 1.98V2.23C33.0074 2.23 33.225 2.24459 33.4715 2.2881L33.515 2.0419ZM32.7732 1.98C32.1135 1.98 31.546 2.10642 31.1051 2.36463C30.6614 2.62442 30.3518 3.01442 30.2079 3.52616L30.4486 3.59384C30.5746 3.14558 30.8425 2.80808 31.2314 2.58037C31.623 2.35108 32.143 2.23 32.7732 2.23V1.98ZM30.3635 3.44008C29.5838 3.21074 28.6112 3.09 27.4632 3.09V3.34C28.5953 3.34 29.5427 3.45926 30.293 3.67992L30.3635 3.44008ZM27.4632 3.09C25.8493 3.09 24.5666 3.32329 23.6826 3.77494C22.7926 4.22967 22.2982 4.91228 22.2982 5.795H22.5482C22.5482 5.02772 22.9689 4.42033 23.7964 3.99756C24.6299 3.57171 25.8671 3.34 27.4632 3.34V3.09ZM22.2982 5.795C22.2982 6.77589 22.9147 7.51732 23.994 7.97989L24.0925 7.75011C23.0718 7.31268 22.5482 6.64411 22.5482 5.795H22.2982ZM24.0179 7.7426C23.3891 7.87297 22.8821 8.1015 22.5304 8.42126C22.1758 8.74364 21.9832 9.15539 21.9832 9.635H22.2332C22.2332 9.22961 22.3932 8.88386 22.6986 8.60624C23.0068 8.326 23.4674 8.11203 24.0686 7.9874L24.0179 7.7426ZM21.9832 9.635C21.9832 10.3647 22.4844 10.9107 23.2638 11.2068L23.3526 10.9732C22.632 10.6993 22.2332 10.2253 22.2332 9.635H21.9832ZM23.2807 10.9681C22.8036 11.0758 22.441 11.2446 22.1969 11.4846C21.949 11.7283 21.8332 12.0355 21.8332 12.395H22.0832C22.0832 12.0945 22.1775 11.8542 22.3721 11.6629C22.5704 11.4679 22.8829 11.3142 23.3358 11.2119L23.2807 10.9681ZM21.8332 12.395C21.8332 12.7364 21.9455 13.0357 22.1746 13.2879C22.4012 13.5372 22.7362 13.7343 23.1732 13.8874C24.0453 14.1928 25.3605 14.335 27.1482 14.335V14.085C25.366 14.085 24.0862 13.9422 23.2558 13.6514C22.8416 13.5063 22.5484 13.3275 22.3597 13.1198C22.1735 12.9149 22.0832 12.6761 22.0832 12.395H21.8332ZM27.1482 14.335C29.3566 14.335 30.9542 14.1179 32.0035 13.6433C32.5305 13.4049 32.9249 13.099 33.187 12.7178C33.4497 12.3357 33.5732 11.8872 33.5732 11.375H33.3232C33.3232 11.8453 33.2105 12.2424 32.981 12.5761C32.751 12.9107 32.3973 13.1908 31.9005 13.4155C30.9023 13.8671 29.3499 14.085 27.1482 14.085V14.335ZM33.5732 11.375C33.5732 10.594 33.3131 9.99955 32.7451 9.60543C32.187 9.21814 31.3499 9.03756 30.2241 9.03L30.2224 9.28C31.3316 9.28744 32.1069 9.46686 32.6026 9.81082C33.0884 10.1479 33.3232 10.656 33.3232 11.375H33.5732ZM30.2236 9.03L25.4236 9.015L25.4229 9.265L30.2229 9.28L30.2236 9.03ZM25.4232 9.015C25.116 9.015 24.9135 8.97038 24.7918 8.90039C24.6807 8.83649 24.6332 8.75037 24.6332 8.63H24.3832C24.3832 8.83963 24.4783 9.00851 24.6672 9.11711C24.8455 9.21962 25.1005 9.265 25.4232 9.265V9.015ZM24.6332 8.63C24.6332 8.55772 24.658 8.49467 24.7113 8.43871C24.7667 8.38045 24.8576 8.3257 24.9942 8.28473L24.9223 8.04527C24.7589 8.0943 24.6247 8.16705 24.5302 8.26629C24.4335 8.36783 24.3832 8.49228 24.3832 8.63H24.6332ZM24.9273 8.28611C25.6451 8.46938 26.496 8.56 27.4632 8.56V8.31C26.5105 8.31 25.6814 8.22062 24.9892 8.04389L24.9273 8.28611ZM27.4632 8.56C29.0559 8.56 30.3351 8.31136 31.2209 7.84432C32.1116 7.37471 32.6132 6.67756 32.6132 5.795H32.3632C32.3632 6.56244 31.9349 7.18529 31.1043 7.62318C30.2689 8.06364 29.0356 8.31 27.4632 8.31V8.56ZM32.6132 5.795C32.6132 5.04219 32.242 4.42012 31.5665 3.98025L31.43 4.18975C32.0445 4.58988 32.3632 5.13781 32.3632 5.795H32.6132ZM31.5541 4.1968C31.8014 4.07318 32.1405 4 32.5932 4V3.75C32.1159 3.75 31.7351 3.82682 31.4423 3.9732L31.5541 4.1968ZM32.5932 4C32.9306 4 33.2064 4.0293 33.4661 4.08702L33.5204 3.84298C33.2401 3.7807 32.9459 3.75 32.5932 3.75V4ZM27.4632 6.945C26.815 6.945 26.3197 6.83033 25.9909 6.62956C25.6687 6.43284 25.5032 6.15287 25.5032 5.795H25.2532C25.2532 6.24713 25.4703 6.60466 25.8606 6.84294C26.2443 7.07717 26.7915 7.195 27.4632 7.195V6.945ZM25.5032 5.795C25.5032 5.44575 25.6637 5.18155 25.9826 4.99766C26.3096 4.80905 26.8054 4.705 27.4632 4.705V4.455C26.7861 4.455 26.2394 4.56095 25.8577 4.78109C25.4678 5.00595 25.2532 5.34925 25.2532 5.795H25.5032ZM27.4632 4.705C28.1211 4.705 28.6129 4.80908 28.9359 4.99737C29.2505 5.18075 29.4082 5.44469 29.4082 5.795H29.6582C29.6582 5.35031 29.4485 5.00675 29.0618 4.78138C28.6836 4.56092 28.1404 4.455 27.4632 4.455V4.705ZM29.4082 5.795C29.4082 6.15297 29.2427 6.43302 28.9222 6.62971C28.5952 6.83041 28.1038 6.945 27.4632 6.945V7.195C28.1277 7.195 28.6712 7.07709 29.053 6.84278C29.4413 6.60448 29.6582 6.24703 29.6582 5.795H29.4082ZM29.9082 11.455C30.2907 11.455 30.5405 11.511 30.6911 11.602C30.8304 11.6862 30.8932 11.8049 30.8932 11.975H31.1432C31.1432 11.7251 31.0411 11.5213 30.8204 11.388C30.611 11.2615 30.3058 11.205 29.9082 11.205V11.455ZM30.8932 11.975C30.8932 12.13 30.8524 12.2468 30.7614 12.3427C30.6664 12.4428 30.5054 12.5322 30.2409 12.6044C29.71 12.7494 28.8224 12.81 27.4032 12.81V13.06C28.8191 13.06 29.739 13.0006 30.3068 12.8456C30.5918 12.7678 30.8029 12.6622 30.9427 12.5148C31.0866 12.3632 31.1432 12.18 31.1432 11.975H30.8932ZM27.4032 12.81C26.2791 12.81 25.474 12.7421 24.9531 12.5847C24.6934 12.5062 24.5156 12.4087 24.4037 12.2963C24.2956 12.1876 24.2432 12.0593 24.2432 11.9H23.9932C23.9932 12.1232 24.0703 12.3155 24.2265 12.4726C24.379 12.6259 24.6006 12.7394 24.8808 12.824C25.44 12.9929 26.2774 13.06 27.4032 13.06V12.81ZM24.2432 11.9C24.2432 11.7071 24.323 11.5606 24.5105 11.4133L24.356 11.2167C24.1235 11.3994 23.9932 11.6129 23.9932 11.9H24.2432ZM24.4177 11.439C24.5468 11.4552 24.6747 11.455 24.8082 11.455V11.205C24.6717 11.205 24.5597 11.2048 24.4487 11.191L24.4177 11.439ZM24.8082 11.455H29.9082V11.205H24.8082V11.455ZM38.5664 11.41C40.3384 11.41 41.8206 11.0089 42.8637 10.2872C43.9105 9.56294 44.5114 8.51732 44.5114 7.25H44.2614C44.2614 8.42768 43.7072 9.39956 42.7215 10.0816C41.7321 10.7661 40.3043 11.16 38.5664 11.16V11.41ZM44.5114 7.25C44.5114 5.98268 43.9105 4.93706 42.8637 4.21283C41.8206 3.49112 40.3384 3.09 38.5664 3.09V3.34C40.3043 3.34 41.7321 3.73388 42.7215 4.41842C43.7072 5.10044 44.2614 6.07232 44.2614 7.25H44.5114ZM38.5664 3.09C36.8017 3.09 35.3233 3.49116 34.282 4.21289C33.2372 4.93711 32.6364 5.9827 32.6364 7.25H32.8864C32.8864 6.0723 33.4405 5.10038 34.4245 4.41836C35.412 3.73384 36.836 3.34 38.5664 3.34V3.09ZM32.6364 7.25C32.6364 8.5173 33.2372 9.56289 34.282 10.2871C35.3233 11.0088 36.8017 11.41 38.5664 11.41V11.16C36.836 11.16 35.412 10.7662 34.4245 10.0816C33.4405 9.39962 32.8864 8.4277 32.8864 7.25H32.6364ZM38.5664 9.315C37.7462 9.315 37.0743 9.10619 36.6104 8.74681C36.1496 8.38973 35.8864 7.87863 35.8864 7.25H35.6364C35.6364 7.95637 35.9357 8.54027 36.4573 8.94444C36.976 9.3463 37.7065 9.565 38.5664 9.565V9.315ZM35.8864 7.25C35.8864 6.62137 36.1496 6.11027 36.6104 5.75319C37.0743 5.3938 37.7462 5.185 38.5664 5.185V4.935C37.7065 4.935 36.976 5.15369 36.4573 5.55556C35.9357 5.95973 35.6364 6.54363 35.6364 7.25H35.8864ZM38.5664 5.185C39.3942 5.185 40.066 5.3939 40.5278 5.75304C40.9865 6.10982 41.2464 6.62081 41.2464 7.25H41.4964C41.4964 6.54419 41.2013 5.96018 40.6812 5.55571C40.1642 5.15359 39.4335 4.935 38.5664 4.935V5.185ZM41.2464 7.25C41.2464 7.87919 40.9865 8.39018 40.5278 8.74696C40.066 9.10609 39.3942 9.315 38.5664 9.315V9.565C39.4335 9.565 40.1642 9.34641 40.6812 8.94429C41.2013 8.53982 41.4964 7.95581 41.4964 7.25H41.2464ZM50.1212 11H49.9962V11.125H50.1212V11ZM60.3662 11V11.125H60.4912V11H60.3662ZM60.3662 8.63H60.4912V8.505H60.3662V8.63ZM53.1512 8.63H53.0262V8.755H53.1512V8.63ZM53.1512 0.349999H53.2762V0.224999H53.1512V0.349999ZM50.1212 0.349999V0.224999H49.9962V0.349999H50.1212ZM50.1212 11.125H60.3662V10.875H50.1212V11.125ZM60.4912 11V8.63H60.2412V11H60.4912ZM60.3662 8.505H53.1512V8.755H60.3662V8.505ZM53.2762 8.63V0.349999H53.0262V8.63H53.2762ZM53.1512 0.224999H50.1212V0.474999H53.1512V0.224999ZM49.9962 0.349999V11H50.2462V0.349999H49.9962ZM66.0205 11.41C67.7925 11.41 69.2747 11.0089 70.3178 10.2872C71.3646 9.56294 71.9655 8.51732 71.9655 7.25H71.7155C71.7155 8.42768 71.1614 9.39956 70.1756 10.0816C69.1862 10.7661 67.7584 11.16 66.0205 11.16V11.41ZM71.9655 7.25C71.9655 5.98268 71.3646 4.93706 70.3178 4.21283C69.2747 3.49112 67.7925 3.09 66.0205 3.09V3.34C67.7584 3.34 69.1862 3.73388 70.1756 4.41842C71.1614 5.10044 71.7155 6.07232 71.7155 7.25H71.9655ZM66.0205 3.09C64.2558 3.09 62.7774 3.49116 61.7361 4.21289C60.6913 4.93711 60.0905 5.9827 60.0905 7.25H60.3405C60.3405 6.0723 60.8946 5.10038 61.8786 4.41836C62.8661 3.73384 64.2901 3.34 66.0205 3.34V3.09ZM60.0905 7.25C60.0905 8.5173 60.6913 9.56289 61.7361 10.2871C62.7774 11.0088 64.2558 11.41 66.0205 11.41V11.16C64.2901 11.16 62.8661 10.7662 61.8786 10.0816C60.8946 9.39962 60.3405 8.4277 60.3405 7.25H60.0905ZM66.0205 9.315C65.2003 9.315 64.5284 9.10619 64.0645 8.74681C63.6037 8.38973 63.3405 7.87863 63.3405 7.25H63.0905C63.0905 7.95637 63.3898 8.54027 63.9114 8.94444C64.4301 9.3463 65.1606 9.565 66.0205 9.565V9.315ZM63.3405 7.25C63.3405 6.62137 63.6037 6.11027 64.0645 5.75319C64.5284 5.3938 65.2003 5.185 66.0205 5.185V4.935C65.1606 4.935 64.4301 5.15369 63.9114 5.55556C63.3898 5.95973 63.0905 6.54363 63.0905 7.25H63.3405ZM66.0205 5.185C66.8484 5.185 67.5201 5.3939 67.9818 5.75304C68.4406 6.10982 68.7005 6.62081 68.7005 7.25H68.9505C68.9505 6.54419 68.6554 5.96018 68.1353 5.55571C67.6183 5.15359 66.8876 4.935 66.0205 4.935V5.185ZM68.7005 7.25C68.7005 7.87919 68.4406 8.39018 67.9818 8.74696C67.5201 9.10609 66.8484 9.315 66.0205 9.315V9.565C66.8876 9.565 67.6183 9.34641 68.1353 8.94429C68.6554 8.53982 68.9505 7.95581 68.9505 7.25H68.7005ZM83.2345 3.965L83.2073 4.08702L83.3595 4.12083V3.965H83.2345ZM83.2345 2.165H83.3595V2.06013L83.2562 2.0419L83.2345 2.165ZM80.0695 3.56L80.0342 3.67992L80.1555 3.71561L80.1898 3.59384L80.0695 3.56ZM73.7845 7.865L73.8098 7.9874L74.1991 7.9067L73.8337 7.75011L73.7845 7.865ZM73.0495 11.09L73.077 11.2119L73.4817 11.1205L73.0939 10.9732L73.0495 11.09ZM79.9645 9.155L79.9653 9.03L79.9648 9.03L79.9645 9.155ZM75.1645 9.14L75.1648 9.015H75.1645V9.14ZM74.6995 8.165L74.7304 8.04389L74.6968 8.0353L74.6635 8.04527L74.6995 8.165ZM81.2395 4.085L81.1835 3.9732L80.9885 4.07074L81.1712 4.18975L81.2395 4.085ZM74.1745 11.315L74.19 11.191L74.1382 11.1845L74.0972 11.2167L74.1745 11.315ZM83.3595 3.965V2.165H83.1095V3.965H83.3595ZM83.2562 2.0419C82.9927 1.99541 82.7603 1.98 82.5145 1.98V2.23C82.7486 2.23 82.9662 2.24459 83.2127 2.2881L83.2562 2.0419ZM82.5145 1.98C81.8547 1.98 81.2872 2.10642 80.8463 2.36463C80.4027 2.62442 80.093 3.01442 79.9491 3.52616L80.1898 3.59384C80.3159 3.14558 80.5837 2.80808 80.9726 2.58037C81.3642 2.35108 81.8842 2.23 82.5145 2.23V1.98ZM80.1047 3.44008C79.325 3.21074 78.3524 3.09 77.2045 3.09V3.34C78.3365 3.34 79.2839 3.45926 80.0342 3.67992L80.1047 3.44008ZM77.2045 3.09C75.5906 3.09 74.3078 3.32329 73.4238 3.77494C72.5338 4.22967 72.0395 4.91228 72.0395 5.795H72.2895C72.2895 5.02772 72.7101 4.42033 73.5376 3.99756C74.3711 3.57171 75.6084 3.34 77.2045 3.34V3.09ZM72.0395 5.795C72.0395 6.77589 72.6559 7.51732 73.7352 7.97989L73.8337 7.75011C72.813 7.31268 72.2895 6.64411 72.2895 5.795H72.0395ZM73.7591 7.7426C73.1303 7.87297 72.6234 8.1015 72.2716 8.42126C71.917 8.74364 71.7245 9.15539 71.7245 9.635H71.9745C71.9745 9.22961 72.1344 8.88386 72.4398 8.60624C72.7481 8.326 73.2086 8.11203 73.8098 7.9874L73.7591 7.7426ZM71.7245 9.635C71.7245 10.3647 72.2256 10.9107 73.0051 11.2068L73.0939 10.9732C72.3733 10.6993 71.9745 10.2253 71.9745 9.635H71.7245ZM73.0219 10.9681C72.5448 11.0758 72.1822 11.2446 71.9381 11.4846C71.6902 11.7283 71.5745 12.0355 71.5745 12.395H71.8245C71.8245 12.0945 71.9187 11.8542 72.1133 11.6629C72.3117 11.4679 72.6241 11.3142 73.077 11.2119L73.0219 10.9681ZM71.5745 12.395C71.5745 12.7364 71.6867 13.0357 71.9158 13.2879C72.1424 13.5372 72.4774 13.7343 72.9144 13.8874C73.7865 14.1928 75.1017 14.335 76.8895 14.335V14.085C75.1072 14.085 73.8274 13.9422 72.997 13.6514C72.5828 13.5063 72.2897 13.3275 72.1009 13.1198C71.9147 12.9149 71.8245 12.6761 71.8245 12.395H71.5745ZM76.8895 14.335C79.0978 14.335 80.6954 14.1179 81.7447 13.6433C82.2717 13.4049 82.6661 13.099 82.9282 12.7178C83.1909 12.3357 83.3145 11.8872 83.3145 11.375H83.0645C83.0645 11.8453 82.9517 12.2424 82.7222 12.5761C82.4922 12.9107 82.1385 13.1908 81.6417 13.4155C80.6435 13.8671 79.0911 14.085 76.8895 14.085V14.335ZM83.3145 11.375C83.3145 10.594 83.0543 9.99955 82.4863 9.60543C81.9283 9.21814 81.0911 9.03756 79.9653 9.03L79.9636 9.28C81.0728 9.28744 81.8482 9.46686 82.3438 9.81082C82.8296 10.1479 83.0645 10.656 83.0645 11.375H83.3145ZM79.9648 9.03L75.1648 9.015L75.1641 9.265L79.9641 9.28L79.9648 9.03ZM75.1645 9.015C74.8572 9.015 74.6547 8.97038 74.533 8.90039C74.4219 8.83649 74.3745 8.75037 74.3745 8.63H74.1245C74.1245 8.83963 74.2195 9.00851 74.4084 9.11711C74.5867 9.21962 74.8417 9.265 75.1645 9.265V9.015ZM74.3745 8.63C74.3745 8.55772 74.3992 8.49467 74.4525 8.43871C74.508 8.38045 74.5988 8.3257 74.7354 8.28473L74.6635 8.04527C74.5001 8.0943 74.366 8.16705 74.2714 8.26629C74.1747 8.36783 74.1245 8.49228 74.1245 8.63H74.3745ZM74.6685 8.28611C75.3863 8.46938 76.2372 8.56 77.2045 8.56V8.31C76.2517 8.31 75.4226 8.22062 74.7304 8.04389L74.6685 8.28611ZM77.2045 8.56C78.7971 8.56 80.0763 8.31136 80.9621 7.84432C81.8528 7.37471 82.3545 6.67756 82.3545 5.795H82.1045C82.1045 6.56244 81.6761 7.18529 80.8455 7.62318C80.0101 8.06364 78.7768 8.31 77.2045 8.31V8.56ZM82.3545 5.795C82.3545 5.04219 81.9832 4.42012 81.3077 3.98025L81.1712 4.18975C81.7857 4.58988 82.1045 5.13781 82.1045 5.795H82.3545ZM81.2954 4.1968C81.5426 4.07318 81.8818 4 82.3345 4V3.75C81.8572 3.75 81.4763 3.82682 81.1835 3.9732L81.2954 4.1968ZM82.3345 4C82.6718 4 82.9476 4.0293 83.2073 4.08702L83.2616 3.84298C82.9813 3.7807 82.6871 3.75 82.3345 3.75V4ZM77.2045 6.945C76.5562 6.945 76.0609 6.83033 75.7321 6.62956C75.4099 6.43284 75.2445 6.15287 75.2445 5.795H74.9945C74.9945 6.24713 75.2115 6.60466 75.6018 6.84294C75.9855 7.07717 76.5327 7.195 77.2045 7.195V6.945ZM75.2445 5.795C75.2445 5.44575 75.4049 5.18155 75.7238 4.99766C76.0508 4.80905 76.5466 4.705 77.2045 4.705V4.455C76.5273 4.455 75.9806 4.56095 75.5989 4.78109C75.209 5.00595 74.9945 5.34925 74.9945 5.795H75.2445ZM77.2045 4.705C77.8623 4.705 78.3541 4.80908 78.6771 4.99737C78.9917 5.18075 79.1495 5.44469 79.1495 5.795H79.3995C79.3995 5.35031 79.1897 5.00675 78.803 4.78138C78.4248 4.56092 77.8816 4.455 77.2045 4.455V4.705ZM79.1495 5.795C79.1495 6.15297 78.9839 6.43302 78.6634 6.62971C78.3365 6.83041 77.845 6.945 77.2045 6.945V7.195C77.8689 7.195 78.4125 7.07709 78.7942 6.84278C79.1825 6.60448 79.3995 6.24703 79.3995 5.795H79.1495ZM79.6495 11.455C80.0319 11.455 80.2817 11.511 80.4323 11.602C80.5716 11.6862 80.6345 11.8049 80.6345 11.975H80.8845C80.8845 11.7251 80.7823 11.5213 80.5616 11.388C80.3522 11.2615 80.047 11.205 79.6495 11.205V11.455ZM80.6345 11.975C80.6345 12.13 80.5936 12.2468 80.5026 12.3427C80.4076 12.4428 80.2466 12.5322 79.9822 12.6044C79.4512 12.7494 78.5636 12.81 77.1445 12.81V13.06C78.5603 13.06 79.4802 13.0006 80.048 12.8456C80.333 12.7678 80.5441 12.6622 80.684 12.5148C80.8278 12.3632 80.8845 12.18 80.8845 11.975H80.6345ZM77.1445 12.81C76.0203 12.81 75.2152 12.7421 74.6944 12.5847C74.4346 12.5062 74.2568 12.4087 74.145 12.2963C74.0368 12.1876 73.9845 12.0593 73.9845 11.9H73.7345C73.7345 12.1232 73.8115 12.3155 73.9677 12.4726C74.1202 12.6259 74.3418 12.7394 74.6221 12.824C75.1812 12.9929 76.0186 13.06 77.1445 13.06V12.81ZM73.9845 11.9C73.9845 11.7071 74.0642 11.5606 74.2517 11.4133L74.0972 11.2167C73.8647 11.3994 73.7345 11.6129 73.7345 11.9H73.9845ZM74.159 11.439C74.288 11.4552 74.416 11.455 74.5495 11.455V11.205C74.4129 11.205 74.3009 11.2048 74.19 11.191L74.159 11.439ZM74.5495 11.455H79.6495V11.205H74.5495V11.455ZM88.3076 11.41C90.0796 11.41 91.5618 11.0089 92.6049 10.2872C93.6517 9.56294 94.2526 8.51732 94.2526 7.25H94.0026C94.0026 8.42768 93.4485 9.39956 92.4627 10.0816C91.4733 10.7661 90.0455 11.16 88.3076 11.16V11.41ZM94.2526 7.25C94.2526 5.98268 93.6517 4.93706 92.6049 4.21283C91.5618 3.49112 90.0796 3.09 88.3076 3.09V3.34C90.0455 3.34 91.4733 3.73388 92.4627 4.41842C93.4485 5.10044 94.0026 6.07232 94.0026 7.25H94.2526ZM88.3076 3.09C86.5429 3.09 85.0645 3.49116 84.0232 4.21289C82.9784 4.93711 82.3776 5.9827 82.3776 7.25H82.6276C82.6276 6.0723 83.1817 5.10038 84.1657 4.41836C85.1532 3.73384 86.5772 3.34 88.3076 3.34V3.09ZM82.3776 7.25C82.3776 8.5173 82.9784 9.56289 84.0232 10.2871C85.0645 11.0088 86.5429 11.41 88.3076 11.41V11.16C86.5772 11.16 85.1532 10.7662 84.1657 10.0816C83.1817 9.39962 82.6276 8.4277 82.6276 7.25H82.3776ZM88.3076 9.315C87.4874 9.315 86.8155 9.10619 86.3516 8.74681C85.8908 8.38973 85.6276 7.87863 85.6276 7.25H85.3776C85.3776 7.95637 85.6769 8.54027 86.1985 8.94444C86.7172 9.3463 87.4477 9.565 88.3076 9.565V9.315ZM85.6276 7.25C85.6276 6.62137 85.8908 6.11027 86.3516 5.75319C86.8155 5.3938 87.4874 5.185 88.3076 5.185V4.935C87.4477 4.935 86.7172 5.15369 86.1985 5.55556C85.6769 5.95973 85.3776 6.54363 85.3776 7.25H85.6276ZM88.3076 5.185C89.1355 5.185 89.8072 5.3939 90.269 5.75304C90.7277 6.10982 90.9876 6.62081 90.9876 7.25H91.2376C91.2376 6.54419 90.9425 5.96018 90.4224 5.55571C89.9054 5.15359 89.1747 4.935 88.3076 4.935V5.185ZM90.9876 7.25C90.9876 7.87919 90.7277 8.39018 90.269 8.74696C89.8072 9.10609 89.1355 9.315 88.3076 9.315V9.565C89.1747 9.565 89.9054 9.34641 90.4224 8.94429C90.9425 8.53982 91.2376 7.95581 91.2376 7.25H90.9876Z" fill="black"/>
</svg>
