<?xml version="1.0" encoding="utf-8"?>
<!-- Generator: Adobe Illustrator 24.0.2, SVG Export Plug-In . SVG Version: 6.00 Build 0)  -->
<svg version="1.1" id="Layer_1" xmlns="http://www.w3.org/2000/svg" xmlns:xlink="http://www.w3.org/1999/xlink" x="0px" y="0px"
	 viewBox="0 0 456 98" style="enable-background:new 0 0 456 98;" xml:space="preserve">
<style type="text/css">
	.st0{fill:#580300;}
</style>
<g>
	<path class="st0" d="M1.3,95l0.6,0l-1.2-0.4L1.3,95z M1.3,95.4l-0.6,0l0,0.8l0.6,0L1.3,95.4z M18.9,95.4l0,0.8l0.6,0l0-0.8
		L18.9,95.4z M18.9,95.1l0.6,0l0-0.6l-0.5-0.2L18.9,95.1z M16.5,93.5l-0.4,0.6L16.5,93.5z M15.3,90l0.6-0.2l0,0L15.3,90z M14.8,82.1
		l-0.6,0L14.8,82.1z M14.8,14.5l-0.6,0L14.8,14.5z M15.3,6.6L16,6.8l0,0L15.3,6.6z M18.9,1.6l0.2,0.8l0.5-0.2l0-0.6L18.9,1.6z
		 M18.9,1.2l0.6,0l0-0.8l-0.6,0L18.9,1.2z M1.3,1.2l0-0.8l-0.6,0l0,0.8L1.3,1.2z M1.3,1.6l-0.6,0l0,0.6l0.4,0.2L1.3,1.6z M5.4,14.6
		l0.6,0L5.4,14.6z M5.4,82.2l0.6,0L5.4,82.2z M4.8,90.1L4.2,90L4.8,90.1z M3.5,93.8l-0.4-0.6L3.5,93.8z M1.2,95.3l-0.6-0.4L0,96.7
		l1.4-0.6L1.2,95.3z M0.7,95l0,0.4l1.3,0l0-0.4L0.7,95z M1.3,96.3l17.6,0l0-1.7l-17.6,0L1.3,96.3z M19.5,95.4l0-0.4l-1.3,0l0,0.4
		L19.5,95.4z M19.1,94.2c-1-0.4-1.6-0.8-2.1-1.3l-0.8,1.3c0.7,0.7,1.5,1.3,2.6,1.7L19.1,94.2z M16.9,92.9c-0.4-0.4-0.7-1.3-1-3.1
		l-1.2,0.4c0.3,1.8,0.7,3.2,1.4,4L16.9,92.9z M15.9,89.9c-0.3-1.7-0.5-4.3-0.5-7.8l-1.3,0.1c0.1,3.5,0.3,6.2,0.6,8.1L15.9,89.9z
		 M15.4,82.1c-0.1-3.5-0.1-8.4-0.1-14.5l-1.3,0c0,6.2,0,11.1,0.1,14.6L15.4,82.1z M15.3,67.5l0-38.5l-1.3,0l0,38.5L15.3,67.5z
		 M15.3,29.1c0-6.2,0-11,0.1-14.5l-1.3-0.1C14,18,14,22.9,14,29.1L15.3,29.1z M15.4,14.5c0.1-3.5,0.3-6.1,0.6-7.8l-1.2-0.4
		c-0.3,1.8-0.5,4.5-0.6,8.1L15.4,14.5z M16,6.8c0.3-1.7,0.6-2.6,1-3.1l-0.8-1.3c-0.7,0.8-1.1,2.2-1.4,4L16,6.8z M17,3.7
		c0.5-0.5,1.1-1,2.1-1.3l-0.3-1.6c-1.1,0.4-1.9,0.9-2.6,1.7L17,3.7z M19.5,1.6l0-0.4l-1.3,0l0,0.4L19.5,1.6z M18.9,0.3l-17.6,0
		l0,1.7l17.6,0L18.9,0.3z M0.7,1.2l0,0.4l1.3,0l0-0.4L0.7,1.2z M1.1,2.4c0.9,0.4,1.6,0.8,2,1.3L4,2.4C3.3,1.7,2.5,1.1,1.5,0.7
		L1.1,2.4z M3.2,3.7c0.2,0.2,0.4,0.5,0.5,1.1C3.9,5.3,4.1,6,4.2,6.9l1.2-0.4C5.3,5.6,5.1,4.8,4.9,4.1C4.7,3.4,4.4,2.8,4,2.4L3.2,3.7
		z M4.2,6.9c0.3,1.7,0.5,4.3,0.5,7.8L6,14.6c-0.1-3.5-0.3-6.2-0.6-8.1L4.2,6.9z M4.7,14.7c0.1,3.5,0.1,8.4,0.1,14.5l1.3,0
		c0-6.2,0-11.1-0.1-14.6L4.7,14.7z M4.8,29.2l0,38.5l1.3,0l0-38.5L4.8,29.2z M4.8,67.7c0,6.2,0,11-0.1,14.5L6,82.3
		c0.1-3.5,0.1-8.5,0.1-14.6L4.8,67.7z M4.7,82.2c-0.1,3.5-0.3,6.1-0.6,7.8l1.2,0.4c0.3-1.8,0.5-4.5,0.6-8.1L4.7,82.2z M4.2,90
		c-0.3,1.7-0.7,2.7-1.1,3.2l0.8,1.3c0.7-0.8,1.2-2.3,1.5-4.1L4.2,90z M3.1,93.1c-0.5,0.5-1.2,1-2,1.3l0.4,1.6c1-0.4,1.8-0.9,2.5-1.7
		L3.1,93.1z M1.8,95.7l0.1-0.3l-1.1-0.7l-0.1,0.3L1.8,95.7z M21.1,95.4l-0.6,0l0,0.8l0.6,0L21.1,95.4z M29.9,95.4l0,0.8l0.6,0l0-0.8
		L29.9,95.4z M29.9,95.1l0.6,0l0-0.6l-0.4-0.2L29.9,95.1z M27.5,93.3l0.4-0.6L27.5,93.3z M26.3,89.7l0.6-0.2L26.3,89.7z M25.8,81.9
		l0.6,0L25.8,81.9z M25.7,3.9l0.6-0.4l-1.2,0.4L25.7,3.9z M62.6,96l-0.6,0.4l0.2,0.4l0.4,0L62.6,96z M63.9,96l0,0.8l0.6,0l0-0.8
		L63.9,96z M64,15l0.6,0L64,15z M64.6,7.2l0.6,0.2l0,0L64.6,7.2z M65.8,3.6l0.4,0.6l0,0L65.8,3.6z M68.1,1.8l0.2,0.8l0.4-0.2l0-0.6
		L68.1,1.8z M68.1,1.5l0.6,0l0-0.8l-0.6,0L68.1,1.5z M59.3,1.4l0-0.8l-0.6,0l0,0.8L59.3,1.4z M59.3,1.8l-0.6,0l0,0.6l0.4,0.2
		L59.3,1.8z M61.7,3.6l-0.4,0.6v0L61.7,3.6z M62.9,7.2l0.6-0.2l0,0L62.9,7.2z M63.5,15l-0.6,0L63.5,15z M63.6,71.2L63,71.6l1.2-0.4
		L63.6,71.2z M36.6,4.5l0.6-0.4l0,0L36.6,4.5z M35.3,1.8l0.4-0.6l0,0L35.3,1.8z M21.3,1.3l0-0.8l-0.6,0l0,0.8L21.3,1.3z M21.3,1.7
		l-0.6,0l0,0.6l0.4,0.2L21.3,1.7z M23.5,3.2l-0.4,0.6L23.5,3.2z M24.7,6.8L24.1,7L24.7,6.8z M25.3,14.8l-0.6,0L25.3,14.8z M25.3,82
		l-0.6,0L25.3,82z M24.7,89.8l-0.6-0.2L24.7,89.8z M23.4,93.4l0.4,0.6L23.4,93.4z M21.1,95.2l-0.6,0l0,1.2l0.9-0.5L21.1,95.2z
		 M20.5,95.1l0,0.4l1.3,0l0-0.4L20.5,95.1z M21.1,96.3l8.7,0l0-1.7l-8.7,0L21.1,96.3z M30.5,95.4l0-0.4l-1.3,0l0,0.4L30.5,95.4z
		 M30.1,94.3c-1-0.5-1.7-1-2.2-1.6l-0.8,1.3c0.6,0.7,1.4,1.4,2.5,1.9L30.1,94.3z M27.9,92.7c-0.2-0.2-0.4-0.5-0.5-1.1
		c-0.2-0.5-0.3-1.2-0.5-2.1l-1.2,0.4c0.1,0.9,0.3,1.7,0.5,2.4c0.2,0.7,0.5,1.3,0.9,1.7L27.9,92.7z M26.9,89.5
		c-0.3-1.7-0.5-4.3-0.5-7.6l-1.3,0.1c0.1,3.4,0.3,6.1,0.6,7.9L26.9,89.5z M26.4,81.8c-0.1-3.4-0.1-8.1-0.1-14.2l-1.3,0
		c0,6,0,10.8,0.1,14.2L26.4,81.8z M26.3,67.7l0-63.7l-1.3,0l0,63.7L26.3,67.7z M25.1,4.3l36.9,92l1.1-0.8l-36.9-92L25.1,4.3z
		 M62.6,96.8l1.3,0l0-1.7l-1.3,0L62.6,96.8z M64.6,96l0-66.7l-1.3,0l0,66.7L64.6,96z M64.6,29.2c0-6,0-10.8,0.1-14.2L63.4,15
		c-0.1,3.4-0.1,8.2-0.1,14.2L64.6,29.2z M64.7,15.1c0.1-3.4,0.3-6,0.6-7.6L64,7.1c-0.3,1.8-0.5,4.5-0.6,7.9L64.7,15.1z M65.2,7.4
		c0.1-0.9,0.3-1.5,0.5-2.1c0.2-0.5,0.4-0.9,0.5-1.1l-0.8-1.3c-0.4,0.4-0.7,1-0.9,1.7c-0.2,0.7-0.4,1.5-0.5,2.4L65.2,7.4z M66.2,4.2
		c0.5-0.6,1.2-1.2,2.1-1.6l-0.5-1.6c-1,0.5-1.8,1.2-2.4,1.9L66.2,4.2z M68.7,1.8l0-0.4l-1.3,0l0,0.4L68.7,1.8z M68.1,0.6l-8.7,0
		l0,1.7l8.7,0L68.1,0.6z M58.7,1.4l0,0.4l1.3,0l0-0.4L58.7,1.4z M59.1,2.6c1,0.5,1.7,1,2.2,1.6l0.8-1.3c-0.6-0.7-1.4-1.4-2.5-1.9
		L59.1,2.6z M61.3,4.2c0.2,0.2,0.4,0.5,0.5,1.1c0.2,0.5,0.3,1.2,0.5,2.1l1.2-0.4c-0.1-0.9-0.3-1.7-0.5-2.4c-0.2-0.7-0.5-1.3-0.9-1.7
		L61.3,4.2z M62.3,7.4c0.3,1.7,0.5,4.3,0.5,7.6l1.3-0.1c-0.1-3.4-0.3-6.1-0.6-7.9L62.3,7.4z M62.9,15.1c0.1,3.4,0.1,8.1,0.1,14.2
		l1.3,0c0-6,0-10.8-0.1-14.2L62.9,15.1z M62.9,29.2l0,42l1.3,0l0-42L62.9,29.2z M64.1,70.8l-27-66.7L36,4.9l27,66.7L64.1,70.8z
		 M37.1,4.1c-0.6-1.4-1.1-2.4-1.4-2.8l-0.9,1.2C35,2.7,35.5,3.5,36,4.9L37.1,4.1z M35.7,1.2c-0.5-0.6-1.2-0.7-1.9-0.7l0,1.7
		c0.6,0,0.9,0.1,1,0.3L35.7,1.2z M33.9,0.5l-12.6,0l0,1.7l12.6,0L33.9,0.5z M20.6,1.3l0,0.4l1.3,0l0-0.4L20.6,1.3z M21.1,2.5
		c0.9,0.4,1.6,0.8,2,1.3l0.8-1.3c-0.6-0.7-1.5-1.3-2.5-1.7L21.1,2.5z M23.1,3.8c0.2,0.2,0.4,0.5,0.5,1.1C23.8,5.5,24,6.2,24.1,7
		l1.2-0.4c-0.1-0.9-0.3-1.7-0.5-2.4c-0.2-0.7-0.5-1.3-0.9-1.7L23.1,3.8z M24.1,7c0.3,1.7,0.5,4.3,0.5,7.8l1.3-0.1
		c-0.1-3.5-0.3-6.2-0.6-8.1L24.1,7z M24.7,14.8c0.1,3.5,0.1,8.4,0.1,14.5l1.3,0c0-6.2,0-11.1-0.1-14.6L24.7,14.8z M24.8,29.3l0,38.5
		l1.3,0l0-38.5L24.8,29.3z M24.8,67.8c0,6,0,10.8-0.1,14.2l1.3,0.1C26,78.6,26,73.8,26,67.8L24.8,67.8z M24.7,82
		c-0.1,3.4-0.3,6-0.6,7.6l1.2,0.4c0.3-1.8,0.5-4.5,0.6-7.9L24.7,82z M24.1,89.6c-0.3,1.7-0.7,2.7-1.1,3.2l0.8,1.3
		c0.7-0.8,1.2-2.3,1.5-4.1L24.1,89.6z M23,92.8c-0.5,0.6-1.2,1.2-2.1,1.6l0.5,1.6c1-0.5,1.8-1.2,2.4-1.9L23,92.8z M21.8,95.2l0-0.1
		l-1.3,0l0,0.1L21.8,95.2z M69.9,95.1l0-0.8l-0.6,0l0,0.8L69.9,95.1z M69.9,95.5l-0.6,0l0,0.8l0.6,0L69.9,95.5z M87.5,95.5l0,0.8
		l0.6,0l0-0.8L87.5,95.5z M87.5,95.1l0.6,0l0-0.6l-0.5-0.2L87.5,95.1z M85.2,93.6l-0.4,0.6L85.2,93.6z M83.9,90.1l0.6-0.2l0,0
		L83.9,90.1z M83.4,82.1l-0.6,0L83.4,82.1z M83.3,44.3l0.5-0.4l-1.2-2.6l0,3L83.3,44.3z M101.8,85l0.5-0.4l0,0l0,0L101.8,85z
		 M104.1,92.2l0.6-0.1l0,0L104.1,92.2z M102.1,95.3l-0.2-0.8l-0.4,0.2l0,0.6L102.1,95.3z M102.1,95.6l-0.6,0l0,0.8l0.6,0L102.1,95.6
		z M118.7,95.6l0,0.8l0.6,0l0-0.8L118.7,95.6z M118.7,95.3l0.6,0l0-0.5l-0.3-0.2L118.7,95.3z M117.3,94.1l0.4-0.6L117.3,94.1z
		 M116,92.2l0.5-0.5l0,0L116,92.2z M114.6,89.4l-0.5,0.4L114.6,89.4z M112.9,85.3l0.6-0.4l0,0l0,0L112.9,85.3z M90.5,34.9l-0.5-0.6
		l-0.3,0.5l0.2,0.5L90.5,34.9z M107.6,10l-0.5-0.6l0,0L107.6,10z M112.7,3.5l-0.4-0.7l0,0L112.7,3.5z M115.6,1.1l0.2,0.8l0.4-0.2
		l0-0.6L115.6,1.1z M115.6,0.8l0.6,0l0-0.8l-0.6,0L115.6,0.8z M106.5,0.8l0-0.8l-0.6,0l0,0.8L106.5,0.8z M106.5,1.1l-0.6,0l0,0.6
		l0.4,0.2L106.5,1.1z M108.7,2.5l-0.4,0.7l0,0L108.7,2.5z M109.2,4.6l-0.6-0.1l0,0L109.2,4.6z M105.1,12.7l-0.5-0.6l0,0L105.1,12.7z
		 M83.5,44.1l-0.6,0l0,2.1l1.1-1.6L83.5,44.1z M84.1,6.4l-0.6-0.2l0,0L84.1,6.4z M85.4,2.8l0.4,0.6L85.4,2.8z M87.7,1.3l0.2,0.8
		L88.3,2l0-0.6L87.7,1.3z M87.7,1l0.6,0l0-0.8l-0.6,0L87.7,1z M70.1,0.9l0-0.8l-0.6,0l0,0.8L70.1,0.9z M70.1,1.3l-0.6,0l0,0.6
		l0.4,0.2L70.1,1.3z M73.6,6.5L73,6.7l0,0L73.6,6.5z M74.2,14.4l0.6,0L74.2,14.4z M74.2,82l0.6,0L74.2,82z M73.6,89.9l0.6,0.2
		L73.6,89.9z M72.3,93.6l-0.4-0.6L72.3,93.6z M70,95.1l0,0.8l0.1,0l0.1,0L70,95.1z M69.3,95.1l0,0.4l1.3,0l0-0.4L69.3,95.1z
		 M69.9,96.3l17.6,0l0-1.7l-17.6,0L69.9,96.3z M88.1,95.5l0-0.4l-1.3,0l0,0.4L88.1,95.5z M87.7,94.3c-1-0.4-1.6-0.8-2.1-1.3
		l-0.8,1.3c0.7,0.7,1.5,1.3,2.6,1.7L87.7,94.3z M85.6,92.9c-0.4-0.4-0.7-1.3-1-3.1l-1.2,0.4c0.3,1.8,0.7,3.2,1.4,4L85.6,92.9z
		 M84.5,89.9c-0.3-1.7-0.5-4.3-0.5-7.8l-1.3,0.1c0.1,3.5,0.3,6.2,0.6,8.1L84.5,89.9z M84,82.1c-0.1-3.5-0.1-8.4-0.1-14.5l-1.3,0
		c0,6.2,0,11.1,0.1,14.6L84,82.1z M83.9,67.6l0-23.2l-1.3,0l0,23.2L83.9,67.6z M82.7,44.7l18.5,40.7l1.1-0.9L83.8,43.9L82.7,44.7z
		 M101.3,85.5c0.7,1.6,1.2,3,1.6,4.1c0.4,1.2,0.5,2,0.6,2.7l1.2-0.1c-0.1-0.9-0.3-2-0.7-3.2c-0.4-1.2-0.9-2.7-1.7-4.3L101.3,85.5z
		 M103.4,92.3c0,0.6-0.1,1-0.3,1.3c-0.2,0.4-0.6,0.7-1.3,1l0.4,1.6c0.8-0.3,1.4-0.8,1.8-1.5c0.4-0.7,0.6-1.6,0.6-2.5L103.4,92.3z
		 M101.5,95.3l0,0.3l1.3,0l0-0.3L101.5,95.3z M102.1,96.4l16.6,0l0-1.7l-16.6,0L102.1,96.4z M119.4,95.6l0-0.3l-1.3,0l0,0.3
		L119.4,95.6z M119,94.6c-0.5-0.4-0.9-0.7-1.2-1.1l-0.9,1.2c0.4,0.6,1,1,1.6,1.4L119,94.6z M117.8,93.5c-0.4-0.5-0.8-1.1-1.3-1.8
		l-1,1.1c0.5,0.8,1,1.4,1.4,1.9L117.8,93.5z M116.5,91.7c-0.4-0.7-0.9-1.6-1.3-2.6l-1.1,0.8c0.5,1.2,1,2.1,1.5,2.9L116.5,91.7z
		 M115.1,89c-0.5-1.1-1-2.5-1.7-4.1l-1.1,0.8c0.7,1.6,1.2,3,1.7,4.2L115.1,89z M113.4,84.9L91.1,34.5L90,35.3l22.4,50.4L113.4,84.9z
		 M91,35.5l17.1-24.9l-0.9-1.1L90.1,34.3L91,35.5z M108.1,10.6c2.2-3.1,3.8-5.2,5-6.4l-0.8-1.3c-1.3,1.3-3,3.5-5.2,6.6L108.1,10.6z
		 M113.1,4.1c1.2-1.2,2.1-1.9,2.7-2.3l-0.5-1.5c-0.7,0.4-1.7,1.2-3,2.5L113.1,4.1z M116.2,1.1l0-0.3l-1.3,0l0,0.3L116.2,1.1z
		 M115.6,0l-9,0l0,1.7l9,0L115.6,0z M105.9,0.8l0,0.3l1.3,0l0-0.3L105.9,0.8z M106.3,1.9c0.9,0.4,1.6,0.8,2,1.2l0.8-1.3
		c-0.6-0.6-1.4-1.1-2.4-1.5L106.3,1.9z M108.3,3.1c0.3,0.3,0.4,0.7,0.3,1.4l1.2,0.2c0.1-1.1-0.1-2.2-0.8-2.9L108.3,3.1z M108.6,4.5
		c-0.1,0.7-0.4,1.7-1,2.9l1,1c0.7-1.3,1.1-2.6,1.2-3.6L108.6,4.5z M107.6,7.4c-0.6,1.2-1.6,2.8-3,4.7l0.9,1.1
		c1.3-1.9,2.4-3.6,3.1-4.9L107.6,7.4z M104.6,12.1L83,43.5l0.9,1.1l21.6-31.4L104.6,12.1z M84.1,44.1l0-15.2l-1.3,0l0,15.2
		L84.1,44.1z M84.1,28.9c0-6.2,0-11,0.1-14.5l-1.3-0.1c-0.1,3.5-0.1,8.5-0.1,14.6L84.1,28.9z M84.2,14.3c0.1-3.5,0.3-6.1,0.6-7.8
		l-1.2-0.4c-0.3,1.8-0.5,4.5-0.6,8.1L84.2,14.3z M84.7,6.5c0.3-1.7,0.6-2.6,1-3.1L85,2.2c-0.7,0.8-1.1,2.2-1.4,4L84.7,6.5z
		 M85.8,3.5c0.5-0.5,1.1-1,2.1-1.3l-0.3-1.6c-1.1,0.4-1.9,0.9-2.6,1.7L85.8,3.5z M88.3,1.3l0-0.4l-1.3,0l0,0.4L88.3,1.3z M87.7,0.1
		l-17.6,0l0,1.7l17.6,0L87.7,0.1z M69.5,0.9l0,0.4l1.3,0l0-0.4L69.5,0.9z M69.9,2.1c0.9,0.4,1.6,0.8,2,1.3l0.8-1.3
		c-0.6-0.7-1.5-1.3-2.5-1.7L69.9,2.1z M72,3.5c0.2,0.2,0.4,0.5,0.5,1.1c0.2,0.5,0.3,1.2,0.5,2.1l1.2-0.4c-0.1-0.9-0.3-1.7-0.5-2.4
		c-0.2-0.7-0.5-1.3-0.9-1.7L72,3.5z M73,6.7c0.3,1.7,0.5,4.3,0.5,7.8l1.3-0.1c-0.1-3.5-0.3-6.2-0.6-8.1L73,6.7z M73.5,14.4
		c0.1,3.5,0.1,8.4,0.1,14.5l1.3,0c0-6.2,0-11.1-0.1-14.6L73.5,14.4z M73.6,29l0,38.5l1.3,0l0-38.5L73.6,29z M73.6,67.4
		c0,6.2,0,11-0.1,14.5l1.3,0.1c0.1-3.5,0.1-8.5,0.1-14.6L73.6,67.4z M73.5,82c-0.1,3.5-0.3,6.1-0.6,7.8l1.2,0.4
		c0.3-1.8,0.5-4.5,0.6-8.1L73.5,82z M73,89.7c-0.3,1.7-0.7,2.7-1.1,3.2l0.8,1.3c0.7-0.8,1.2-2.3,1.5-4.1L73,89.7z M71.9,92.9
		c-0.5,0.5-1.2,1-2,1.3l0.4,1.6c1-0.4,1.8-0.9,2.5-1.7L71.9,92.9z M70,94.2L70,94.2l-0.1,1.7l0.1,0L70,94.2z M136.1,95.1l0.6,0
		l-1.2-0.4L136.1,95.1z M136.1,95.5l-0.6,0l0,0.8l0.6,0L136.1,95.5z M174.8,94.2l0.6,0.2l0,0l0,0L174.8,94.2z M176.6,78.9l0.6,0.1
		l0.1-1l-0.7,0L176.6,78.9z M176.3,78.9l0-0.8l-0.5,0l-0.1,0.6L176.3,78.9z M173.8,87.2l0.5,0.4L173.8,87.2z M170.4,92.1l0.3,0.7
		L170.4,92.1z M165.9,94.4l-0.1-0.8L165.9,94.4z M149.6,95l-0.6,0l0,0.8l0.6,0L149.6,95z M150.3,6.6l-0.6-0.2l0,0L150.3,6.6z
		 M153.8,1.6l0.2,0.8l0.5-0.2l0-0.6L153.8,1.6z M153.8,1.2l0.6,0l0-0.8l-0.6,0L153.8,1.2z M136.2,1.2l0-0.8l-0.6,0l0,0.8L136.2,1.2z
		 M136.2,1.6l-0.6,0l0,0.6l0.4,0.2L136.2,1.6z M140.2,14.7l0.6,0L140.2,14.7z M140.2,82.3l0.6,0L140.2,82.3z M139.6,90.2L139,90
		L139.6,90.2z M138.3,93.8l-0.4-0.6L138.3,93.8z M136,95.4l-0.6-0.4l-0.6,1.7l1.4-0.6L136,95.4z M135.5,95.1l0,0.4l1.3,0l0-0.4
		L135.5,95.1z M136.1,96.3l37.6,0l0-1.7l-37.6,0L136.1,96.3z M173.8,96.3c0.2,0,0.5,0,0.8-0.2l-0.6-1.5c0,0-0.1,0-0.3,0L173.8,96.3z
		 M174.6,96.1c0.5-0.3,0.7-1,0.8-1.7l-1.2-0.3c0,0.2-0.1,0.4-0.1,0.5c0,0.1-0.1,0.1,0,0L174.6,96.1z M175.4,94.4l1.8-15.3l-1.2-0.3
		l-1.8,15.3L175.4,94.4z M176.6,78.1l-0.3,0l0,1.7l0.3,0L176.6,78.1z M175.7,78.7c-0.7,3.4-1.6,6-2.5,8.1l1.1,0.8
		c1-2.2,1.8-5,2.6-8.5L175.7,78.7z M173.2,86.8c-0.9,2-2,3.6-3.2,4.6l0.7,1.4c1.4-1.2,2.6-3,3.6-5.2L173.2,86.8z M170,91.4
		c-1.2,1.1-2.7,1.8-4.3,2.1l0.2,1.7c1.8-0.4,3.4-1.2,4.8-2.4L170,91.4z M165.8,93.5c-1.7,0.4-3.6,0.6-5.8,0.6l0,1.7
		c2.3,0,4.3-0.3,6-0.6L165.8,93.5z M159.9,94.1l-10.3,0l0,1.7l10.3,0L159.9,94.1z M150.2,95l0-65.8l-1.3,0l0,65.8L150.2,95z
		 M150.2,29.1c0-6.2,0-11,0.1-14.5l-1.3-0.1C149,18.1,149,23,149,29.1L150.2,29.1z M150.3,14.6c0.1-3.5,0.3-6.1,0.6-7.8l-1.2-0.4
		c-0.3,1.8-0.5,4.5-0.6,8.1L150.3,14.6z M150.9,6.8c0.3-1.7,0.6-2.6,1-3.1l-0.8-1.3c-0.7,0.8-1.1,2.2-1.4,4L150.9,6.8z M151.9,3.8
		c0.5-0.5,1.1-1,2.1-1.3l-0.3-1.6c-1.1,0.4-1.9,0.9-2.6,1.7L151.9,3.8z M154.5,1.6l0-0.4l-1.3,0l0,0.4L154.5,1.6z M153.8,0.4
		l-17.7,0l0,1.7l17.7,0L153.8,0.4z M135.5,1.2l0,0.4l1.3,0l0-0.4L135.5,1.2z M136,2.4c0.9,0.4,1.6,0.8,2,1.3l0.8-1.3
		c-0.6-0.7-1.5-1.3-2.5-1.7L136,2.4z M138,3.8c0.2,0.2,0.4,0.5,0.5,1.1c0.2,0.5,0.3,1.2,0.5,2.1l1.2-0.4c-0.1-0.9-0.3-1.7-0.5-2.4
		c-0.2-0.7-0.5-1.3-0.9-1.7L138,3.8z M139,6.9c0.3,1.7,0.5,4.3,0.5,7.8l1.3-0.1c-0.1-3.5-0.3-6.2-0.6-8.1L139,6.9z M139.6,14.7
		c0.1,3.5,0.1,8.4,0.1,14.5l1.3,0c0-6.2,0-11.1-0.1-14.6L139.6,14.7z M139.7,29.3l0,38.5l1.3,0l0-38.5L139.7,29.3z M139.7,67.7
		c0,6.2,0,11-0.1,14.5l1.3,0.1c0.1-3.5,0.1-8.5,0.1-14.6L139.7,67.7z M139.6,82.3c-0.1,3.5-0.3,6.1-0.6,7.8l1.2,0.4
		c0.3-1.8,0.5-4.5,0.6-8.1L139.6,82.3z M139,90c-0.3,1.7-0.7,2.7-1.1,3.2l0.8,1.3c0.7-0.8,1.2-2.3,1.5-4.1L139,90z M137.9,93.2
		c-0.5,0.5-1.2,1-2,1.3l0.4,1.6c1-0.4,1.8-0.9,2.5-1.7L137.9,93.2z M136.6,95.7l0.1-0.3l-1.1-0.7l-0.1,0.3L136.6,95.7z M178.4,95.1
		l0.6,0l-1.2-0.4L178.4,95.1z M178.4,95.5l-0.6,0l0,0.8l0.6,0L178.4,95.5z M196,95.5l0,0.8l0.6,0l0-0.8L196,95.5z M196,95.1l0.6,0
		l0-0.6l-0.5-0.2L196,95.1z M193.6,93.6l-0.4,0.6L193.6,93.6z M192.4,90.1l0.6-0.2l0,0L192.4,90.1z M191.8,82.2l-0.6,0L191.8,82.2z
		 M191.9,14.6l-0.6,0L191.9,14.6z M192.4,6.7l0.6,0.2l0,0L192.4,6.7z M196,1.6l0.2,0.8l0.5-0.2l0-0.6L196,1.6z M196,1.2l0.6,0l0-0.8
		l-0.6,0L196,1.2z M178.4,1.2l0-0.8l-0.6,0l0,0.8L178.4,1.2z M178.4,1.6l-0.6,0l0,0.6l0.4,0.2L178.4,1.6z M182.5,14.7l0.6,0
		L182.5,14.7z M182.4,82.3l0.6,0L182.4,82.3z M181.9,90.2l-0.6-0.2L181.9,90.2z M180.6,93.9l-0.4-0.6L180.6,93.9z M178.3,95.4
		l-0.6-0.4l-0.6,1.7l1.4-0.6L178.3,95.4z M177.8,95.1l0,0.4l1.3,0l0-0.4L177.8,95.1z M178.4,96.3l17.6,0l0-1.7l-17.6,0L178.4,96.3z
		 M196.6,95.5l0-0.4l-1.3,0l0,0.4L196.6,95.5z M196.1,94.3c-1-0.4-1.6-0.8-2.1-1.3l-0.8,1.3c0.7,0.7,1.5,1.3,2.6,1.7L196.1,94.3z
		 M194,93c-0.4-0.4-0.7-1.3-1-3.1l-1.2,0.4c0.3,1.8,0.7,3.2,1.4,4L194,93z M193,89.9c-0.3-1.7-0.5-4.3-0.5-7.8l-1.3,0.1
		c0.1,3.5,0.3,6.2,0.6,8.1L193,89.9z M192.5,82.1c-0.1-3.5-0.1-8.4-0.1-14.5l-1.3,0c0,6.2,0,11.1,0.1,14.6L192.5,82.1z M192.4,67.6
		l0-38.5l-1.3,0l0,38.5L192.4,67.6z M192.4,29.1c0-6.2,0-11,0.1-14.5l-1.3-0.1c-0.1,3.5-0.1,8.5-0.1,14.6L192.4,29.1z M192.5,14.6
		c0.1-3.5,0.3-6.1,0.6-7.8l-1.2-0.4c-0.3,1.8-0.5,4.5-0.6,8.1L192.5,14.6z M193,6.8c0.3-1.7,0.6-2.6,1-3.1l-0.8-1.3
		c-0.7,0.8-1.1,2.2-1.4,4L193,6.8z M194,3.8c0.5-0.5,1.1-1,2.1-1.3l-0.3-1.6c-1.1,0.4-1.9,0.9-2.6,1.7L194,3.8z M196.6,1.6l0-0.4
		l-1.3,0l0,0.4L196.6,1.6z M196,0.4l-17.6,0l0,1.7l17.6,0L196,0.4z M177.8,1.2l0,0.4l1.3,0l0-0.4L177.8,1.2z M178.2,2.4
		c0.9,0.4,1.6,0.8,2,1.3l0.8-1.3c-0.6-0.7-1.5-1.3-2.5-1.7L178.2,2.4z M180.3,3.8c0.2,0.2,0.4,0.5,0.5,1.1c0.2,0.5,0.3,1.2,0.5,2.1
		l1.2-0.4c-0.1-0.9-0.3-1.7-0.5-2.4c-0.2-0.7-0.5-1.3-0.9-1.7L180.3,3.8z M181.3,6.9c0.3,1.7,0.5,4.3,0.5,7.8l1.3-0.1
		c-0.1-3.5-0.3-6.2-0.6-8.1L181.3,6.9z M181.8,14.7c0.1,3.5,0.1,8.4,0.1,14.5l1.3,0c0-6.2,0-11.1-0.1-14.6L181.8,14.7z M181.9,29.3
		l0,38.5l1.3,0l0-38.5L181.9,29.3z M181.9,67.7c0,6.2,0,11-0.1,14.5l1.3,0.1c0.1-3.5,0.1-8.5,0.1-14.6L181.9,67.7z M181.8,82.3
		c-0.1,3.5-0.3,6.1-0.6,7.8l1.2,0.4c0.3-1.8,0.5-4.5,0.6-8.1L181.8,82.3z M181.3,90c-0.3,1.7-0.7,2.7-1.1,3.2l0.8,1.3
		c0.7-0.8,1.2-2.3,1.5-4.1L181.3,90z M180.2,93.2c-0.5,0.5-1.2,1-2,1.3l0.4,1.6c1-0.4,1.8-0.9,2.5-1.7L180.2,93.2z M178.9,95.7
		l0.1-0.3l-1.1-0.8l-0.1,0.3L178.9,95.7z M198.2,95.5l-0.6,0l0,0.8l0.6,0L198.2,95.5z M207,95.5l0,0.8l0.6,0l0-0.8L207,95.5z
		 M207,95.1l0.6,0l0-0.6l-0.4-0.2L207,95.1z M204.6,93.4l0.4-0.6L204.6,93.4z M203.4,89.7l0.6-0.2L203.4,89.7z M202.8,81.9l0.6,0
		L202.8,81.9z M202.8,4l0.6-0.4L202.1,4L202.8,4z M239.7,96l-0.6,0.4l0.2,0.4l0.4,0L239.7,96z M241,96l0,0.8l0.6,0l0-0.8L241,96z
		 M241.1,15.1l0.6,0L241.1,15.1z M241.7,7.3l0.6,0.2l0,0L241.7,7.3z M242.9,3.7l0.4,0.6l0,0L242.9,3.7z M245.2,1.9l0.2,0.8l0.4-0.2
		l0-0.6L245.2,1.9z M245.2,1.5l0.6,0l0-0.8l-0.6,0L245.2,1.5z M236.4,1.5l0-0.8l-0.6,0l0,0.8L236.4,1.5z M236.4,1.9l-0.6,0l0,0.6
		l0.4,0.2L236.4,1.9z M238.8,3.7l-0.4,0.6l0,0L238.8,3.7z M240,7.3l0.6-0.2l0,0L240,7.3z M240.6,15.1l-0.6,0L240.6,15.1z
		 M240.7,71.3l-0.6,0.4l1.2-0.4L240.7,71.3z M213.7,4.5l0.6-0.4l0,0L213.7,4.5z M212.4,1.9l0.4-0.6l0,0L212.4,1.9z M198.3,1.4l0-0.8
		l-0.6,0l0,0.8L198.3,1.4z M198.3,1.8l-0.6,0l0,0.6l0.4,0.2L198.3,1.8z M200.6,3.3l-0.4,0.6L200.6,3.3z M201.8,6.9l-0.6,0.2
		L201.8,6.9z M202.4,14.8l-0.6,0L202.4,14.8z M202.4,82.1l-0.6,0L202.4,82.1z M201.8,89.8l-0.6-0.2L201.8,89.8z M200.5,93.5l0.4,0.6
		L200.5,93.5z M198.2,95.2l-0.6,0l0,1.2l0.9-0.5L198.2,95.2z M197.6,95.1l0,0.4l1.3,0l0-0.4L197.6,95.1z M198.2,96.3l8.7,0l0-1.7
		l-8.7,0L198.2,96.3z M207.6,95.5l0-0.4l-1.3,0l0,0.4L207.6,95.5z M207.2,94.3c-1-0.5-1.7-1-2.2-1.6l-0.8,1.3
		c0.6,0.7,1.4,1.4,2.5,1.9L207.2,94.3z M205,92.7c-0.2-0.2-0.4-0.5-0.5-1.1c-0.2-0.5-0.3-1.2-0.5-2.1l-1.2,0.4
		c0.1,0.9,0.3,1.7,0.5,2.4c0.2,0.7,0.5,1.3,0.9,1.7L205,92.7z M204,89.5c-0.3-1.7-0.5-4.3-0.5-7.6l-1.3,0.1c0.1,3.4,0.3,6.1,0.6,7.9
		L204,89.5z M203.5,81.9c-0.1-3.4-0.1-8.1-0.1-14.2l-1.3,0c0,6,0,10.8,0.1,14.2L203.5,81.9z M203.4,67.7l0-63.7l-1.3,0l0,63.7
		L203.4,67.7z M202.2,4.4l36.9,92l1.1-0.8l-36.9-92L202.2,4.4z M239.7,96.9l1.3,0l0-1.7l-1.3,0L239.7,96.9z M241.7,96l0-66.7l-1.3,0
		l0,66.7L241.7,96z M241.7,29.3c0-6,0-10.8,0.1-14.2l-1.3-0.1c-0.1,3.4-0.1,8.2-0.1,14.2L241.7,29.3z M241.8,15.1
		c0.1-3.4,0.3-6,0.6-7.6l-1.2-0.4c-0.3,1.8-0.5,4.5-0.6,7.9L241.8,15.1z M242.3,7.5c0.1-0.9,0.3-1.5,0.5-2.1
		c0.2-0.5,0.4-0.9,0.5-1.1L242.5,3c-0.4,0.4-0.7,1-0.9,1.7c-0.2,0.7-0.4,1.5-0.5,2.4L242.3,7.5z M243.3,4.3c0.5-0.6,1.2-1.2,2.1-1.6
		l-0.5-1.6c-1,0.5-1.8,1.2-2.4,1.9L243.3,4.3z M245.8,1.9l0-0.4l-1.3,0l0,0.4L245.8,1.9z M245.2,0.7l-8.7,0l0,1.7l8.7,0L245.2,0.7z
		 M235.8,1.5l0,0.4l1.3,0l0-0.4L235.8,1.5z M236.2,2.7c1,0.5,1.7,1,2.2,1.6l0.8-1.3c-0.6-0.7-1.4-1.4-2.5-1.9L236.2,2.7z M238.4,4.3
		c0.2,0.2,0.4,0.5,0.5,1.1c0.2,0.5,0.3,1.2,0.5,2.1l1.2-0.4c-0.1-0.9-0.3-1.7-0.5-2.4c-0.2-0.7-0.5-1.3-0.9-1.7L238.4,4.3z
		 M239.4,7.5c0.3,1.7,0.5,4.3,0.5,7.6l1.3-0.1c-0.1-3.4-0.3-6.1-0.6-7.9L239.4,7.5z M239.9,15.1c0.1,3.4,0.1,8.1,0.1,14.2l1.3,0
		c0-6,0-10.8-0.1-14.2L239.9,15.1z M240,29.3l0,42l1.3,0l0-42L240,29.3z M241.2,70.9l-27-66.7l-1.1,0.8l27,66.7L241.2,70.9z
		 M214.2,4.1c-0.6-1.4-1.1-2.4-1.4-2.8l-0.9,1.2c0.2,0.3,0.7,1.1,1.2,2.4L214.2,4.1z M212.8,1.3c-0.5-0.6-1.2-0.7-1.9-0.7l0,1.7
		c0.6,0,0.9,0.1,1,0.3L212.8,1.3z M210.9,0.5l-12.6,0l0,1.7l12.6,0L210.9,0.5z M197.7,1.4l0,0.4l1.3,0l0-0.4L197.7,1.4z M198.2,2.6
		c0.9,0.4,1.6,0.8,2,1.3l0.8-1.3c-0.6-0.7-1.5-1.3-2.5-1.7L198.2,2.6z M200.2,3.9c0.2,0.2,0.4,0.5,0.5,1.1c0.2,0.5,0.3,1.2,0.5,2.1
		l1.2-0.4c-0.1-0.9-0.3-1.7-0.5-2.4c-0.2-0.7-0.5-1.3-0.9-1.7L200.2,3.9z M201.2,7.1c0.3,1.7,0.5,4.3,0.5,7.8l1.3-0.1
		c-0.1-3.5-0.3-6.2-0.6-8.1L201.2,7.1z M201.8,14.9c0.1,3.5,0.1,8.4,0.1,14.5l1.3,0c0-6.2,0-11.1-0.1-14.6L201.8,14.9z M201.8,29.4
		l0,38.5l1.3,0l0-38.5L201.8,29.4z M201.8,67.9c0,6,0,10.8-0.1,14.2l1.3,0.1c0.1-3.4,0.1-8.2,0.1-14.2L201.8,67.9z M201.7,82
		c-0.1,3.4-0.3,6-0.6,7.6l1.2,0.4c0.3-1.8,0.5-4.5,0.6-7.9L201.7,82z M201.2,89.7c-0.3,1.7-0.7,2.7-1.1,3.2l0.8,1.3
		c0.7-0.8,1.2-2.3,1.5-4.1L201.2,89.7z M200.1,92.8c-0.5,0.6-1.2,1.2-2.1,1.6l0.5,1.6c1-0.5,1.8-1.2,2.4-1.9L200.1,92.8z
		 M198.9,95.2l0-0.1l-1.3,0l0,0.1L198.9,95.2z M274.9,96.5l0-0.8l-0.2,0l-0.2,0.2L274.9,96.5z M281.7,95.3l-0.2-0.8L281.7,95.3z
		 M294.6,83.1l0.5,0.5l0.1-0.2l0-0.3L294.6,83.1z M294.7,64l0.6,0L294.7,64z M295.3,58.3l0.6,0.2l0,0L295.3,58.3z M296.6,55.7
		l0.3,0.7l0,0L296.6,55.7z M298.9,54.4l0.2,0.8l0.5-0.2l0-0.6L298.9,54.4z M298.9,54.1l0.6,0l0-0.8l-0.6,0L298.9,54.1z M281.5,54.1
		l0-0.8l-0.6,0l0,0.8L281.5,54.1z M281.5,54.4l-0.6,0l0,0.6l0.4,0.2L281.5,54.4z M283.8,55.7l-0.3,0.7l0,0L283.8,55.7z M285.1,58.3
		l-0.6,0.2L285.1,58.3z M285.7,63.6l-0.6,0L285.7,63.6z M285.3,84.9l0.6,0.1L285.3,84.9z M283.6,91.5l0.5,0.5L283.6,91.5z
		 M280.2,95.3l-0.2-0.8L280.2,95.3z M262.5,84.8l-0.6,0.4L262.5,84.8z M259.1,69.4l-0.6,0.1L259.1,69.4z M262.7,11.2l0.5,0.4
		L262.7,11.2z M268.1,3.7l0.3,0.7l0,0L268.1,3.7z M280.5,2.5l-0.2,0.8l0,0L280.5,2.5z M285.3,6.2l0.4-0.6L285.3,6.2z M289,12.6
		l-0.6,0.4L289,12.6z M291.2,22l-0.6,0.1l0.1,0.7l0.5,0L291.2,22z M291.5,22l0,0.8l0.6,0l0-0.8L291.5,22z M291.5,2.3l0.6,0l0-0.8
		l-0.6,0L291.5,2.3z M291.2,2.3l0-0.8l-0.5,0l-0.1,0.6L291.2,2.3z M286.1,4.9l0.3-0.8l0,0L286.1,4.9z M283.3,3.4l0.2-0.8l0,0
		L283.3,3.4z M279.8,1.9l0.2-0.8L279.8,1.9z M265,3.9l-0.3-0.8L265,3.9z M250.1,27.3l-0.6-0.3L250.1,27.3z M249.6,68.8l0.6-0.2
		L249.6,68.8z M254.9,84.1l-0.5,0.5L254.9,84.1z M263.3,93.8l-0.3,0.7L263.3,93.8z M274.3,97.2l0,0.8l0.2,0l0.2-0.2L274.3,97.2z
		 M274.9,97.4c2.5,0,4.8-0.4,7-1.3l-0.4-1.6c-2,0.8-4.2,1.2-6.6,1.2L274.9,97.4z M281.9,96.1c2.1-0.9,4-1.9,5.8-3.2l-0.6-1.5
		c-1.6,1.2-3.5,2.2-5.5,3.1L281.9,96.1z M287.7,92.9c1.8-1.3,3.2-2.9,4.5-4.5l-0.9-1.2c-1.2,1.6-2.6,3-4.2,4.3L287.7,92.9z
		 M292.1,88.3c1.2-1.7,2.2-3.2,3-4.8l-1-0.9c-0.7,1.5-1.6,2.9-2.8,4.5L292.1,88.3z M295.2,83.1l0-8.9l-1.3,0l0,8.9L295.2,83.1z
		 M295.2,74.2c0-4.3,0-7.6,0.1-10.1l-1.3-0.1c-0.1,2.5-0.1,6-0.1,10.2L295.2,74.2z M295.3,64c0.1-2.5,0.3-4.3,0.5-5.5l-1.2-0.5
		c-0.3,1.4-0.5,3.3-0.6,5.9L295.3,64z M295.9,58.6c0.3-1.1,0.7-1.8,1.1-2.2l-0.7-1.4c-0.7,0.6-1.3,1.7-1.6,3.1L295.9,58.6z
		 M296.9,56.4c0.5-0.4,1.1-0.8,2.2-1.1l-0.3-1.6c-1.1,0.4-1.9,0.8-2.5,1.4L296.9,56.4z M299.6,54.4l0-0.4l-1.3,0l0,0.4L299.6,54.4z
		 M298.9,53.2l-17.4,0l0,1.7l17.4,0L298.9,53.2z M280.9,54.1l0,0.4l1.3,0l0-0.4L280.9,54.1z M281.3,55.2c0.9,0.4,1.6,0.7,2.1,1.2
		l0.7-1.4c-0.6-0.6-1.5-1-2.4-1.4L281.3,55.2z M283.4,56.4c0.4,0.4,0.8,1.1,1.1,2.2l1.2-0.5c-0.3-1.4-0.9-2.5-1.6-3.1L283.4,56.4z
		 M284.5,58.6c0.3,1.2,0.4,2.8,0.5,5.1l1.3-0.1c-0.1-2.3-0.3-4.1-0.6-5.5L284.5,58.6z M285,63.7c0.1,2.2,0.1,5.2,0.1,9.1l1.3,0
		c0-3.9,0-6.9-0.1-9.2L285,63.7z M285.1,72.8l0,2.3l1.3,0l0-2.3L285.1,72.8z M285.1,75c0,3.9-0.2,7.1-0.5,9.7l1.2,0.2
		c0.3-2.7,0.5-6,0.5-9.9L285.1,75z M284.7,84.7c-0.3,2.6-0.8,4.7-1.6,6.3l1.1,0.9c0.9-1.9,1.5-4.3,1.8-7L284.7,84.7z M283.1,91.1
		c-0.8,1.6-1.8,2.8-3.1,3.4l0.5,1.6c1.5-0.8,2.8-2.2,3.7-4.1L283.1,91.1z M280,94.5c-1.3,0.7-3.1,1.1-5.3,1.1l0,1.7
		c2.3,0,4.3-0.4,5.8-1.2L280,94.5z M274.7,95.6c-2.3,0-4.5-0.8-6.4-2.6l-0.7,1.4c2.2,2,4.6,2.9,7.1,2.9L274.7,95.6z M268.2,92.9
		c-2-1.8-3.7-4.6-5.2-8.5l-1.1,0.7c1.5,4.1,3.4,7.1,5.6,9.1L268.2,92.9z M263.1,84.5c-1.5-3.9-2.6-9-3.3-15.2l-1.2,0.3
		c0.8,6.3,1.9,11.6,3.4,15.7L263.1,84.5z M259.8,69.3c-0.7-6.2-1.1-13.7-1.1-22.6l-1.3,0c0,9,0.4,16.5,1.1,22.9L259.8,69.3z
		 M258.6,46.6c0-8.5,0.4-15.6,1.2-21.3l-1.2-0.3c-0.9,5.9-1.2,13.1-1.2,21.6L258.6,46.6z M259.9,25.3c0.8-5.7,2-10.3,3.4-13.7
		l-1.1-0.8c-1.6,3.6-2.7,8.4-3.6,14.2L259.9,25.3z M263.3,11.6c1.5-3.4,3.2-5.8,5.1-7.2l-0.6-1.5c-2.2,1.6-4.1,4.2-5.6,7.9
		L263.3,11.6z M268.4,4.4c2-1.4,4.1-2.2,6.5-2.2l0-1.7c-2.5,0-4.9,0.8-7.1,2.4L268.4,4.4z M274.9,2.2c1.9,0,3.7,0.4,5.5,1.1l0.4-1.6
		c-1.9-0.8-3.8-1.2-5.8-1.2L274.9,2.2z M280.3,3.3c1.7,0.7,3.2,1.9,4.6,3.5l0.8-1.3c-1.5-1.7-3.1-3-5-3.8L280.3,3.3z M284.9,6.8
		c1.3,1.6,2.5,3.6,3.5,6.2l1.1-0.8c-1.1-2.7-2.3-4.9-3.8-6.7L284.9,6.8z M288.4,13c1,2.5,1.7,5.6,2.2,9.2l1.2-0.3
		c-0.5-3.7-1.2-6.9-2.3-9.7L288.4,13z M291.2,22.9l0.3,0l0-1.7l-0.3,0L291.2,22.9z M292.1,22l0-19.7l-1.3,0l0,19.7L292.1,22z
		 M291.5,1.5l-0.3,0l0,1.7l0.3,0L291.5,1.5z M290.6,2.1c-0.2,1.1-0.5,1.8-0.8,2.2c-0.3,0.4-0.6,0.6-1,0.6l0,1.7
		c0.7,0,1.4-0.4,1.9-1.1c0.5-0.7,0.9-1.7,1.1-2.9L290.6,2.1z M288.8,4.8c-0.8,0-1.6-0.2-2.4-0.7l-0.5,1.5c0.9,0.5,1.9,0.8,2.9,0.8
		L288.8,4.8z M286.4,4.2c-0.9-0.5-1.8-1-2.9-1.5l-0.4,1.6c1,0.5,1.9,1,2.8,1.5L286.4,4.2z M283.5,2.6c-1.1-0.5-2.3-1-3.6-1.5
		l-0.3,1.6c1.3,0.5,2.5,1,3.5,1.5L283.5,2.6z M279.9,1.1c-1.4-0.5-3.1-0.8-5.2-0.8l0,1.7c1.9,0,3.6,0.2,4.8,0.7L279.9,1.1z
		 M274.8,0.3c-3.4,0-6.8,0.9-10,2.8l0.5,1.5c3.1-1.8,6.3-2.7,9.5-2.7L274.8,0.3z M264.7,3.1c-3.3,1.9-6.3,4.9-8.9,8.9l0.9,1.1
		c2.5-3.8,5.3-6.6,8.4-8.5L264.7,3.1z M255.9,12c-2.6,4-4.7,9-6.3,15l1.2,0.6c1.6-5.8,3.6-10.6,6.1-14.4L255.9,12z M249.5,27
		c-1.6,6-2.4,13.2-2.4,21.4l1.3,0c0-8.1,0.7-15,2.3-20.8L249.5,27z M247.1,48.4c0,7.6,0.7,14.5,1.9,20.6l1.2-0.4
		c-1.2-6-1.9-12.7-1.9-20.1L247.1,48.4z M249,69c1.2,6.1,3.1,11.4,5.4,15.6l1-1c-2.2-4.1-4-9.1-5.2-15.1L249,69z M254.4,84.6
		c2.3,4.2,5.2,7.6,8.6,9.9l0.6-1.5c-3.2-2.2-5.9-5.4-8.1-9.4L254.4,84.6z M263,94.5c3.4,2.3,7.2,3.5,11.3,3.5l0-1.7
		c-4,0-7.5-1.1-10.7-3.3L263,94.5z M274.6,97.8l0.7-0.6l-0.7-1.4l-0.7,0.6L274.6,97.8z M300.5,95.2l0.6,0l0-1.2l-0.8,0.4L300.5,95.2
		z M300.5,95.5l-0.6,0l0,0.8l0.6,0L300.5,95.5z M341.4,94.3l0.6,0.2l0,0l0,0L341.4,94.3z M342.5,81l0.6,0.1l0.1-0.9l-0.7,0L342.5,81
		z M342.1,81l0-0.8l-0.5,0l-0.1,0.6L342.1,81z M336.8,92.8l-0.3-0.7L336.8,92.8z M332.2,94.7l0.1,0.8L332.2,94.7z M313.9,95l-0.6,0
		l0,0.8l0.6,0L313.9,95z M313.9,44.1l0-0.8l-0.6,0l0,0.8L313.9,44.1z M326.1,47.3l-0.5,0.5l0,0L326.1,47.3z M327.4,50.3L328,50
		L327.4,50.3z M328,53.7l-0.6,0.2l0.1,0.7l0.5,0L328,53.7z M328.2,53.7l0,0.8l0.6,0l0-0.8L328.2,53.7z M328.2,33.7l0.6,0l0-0.8
		l-0.6,0L328.2,33.7z M328,33.7l0-0.8l-0.5,0l-0.1,0.7L328,33.7z M327.4,37.1l0.6,0.3L327.4,37.1z M326.1,40.1l-0.5-0.5L326.1,40.1z
		 M323.7,42.4l0.3,0.8L323.7,42.4z M313.9,43.3l-0.6,0l0,0.8l0.6,0L313.9,43.3z M313.9,1.4l0-0.8l-0.6,0l0,0.8L313.9,1.4z
		 M330.3,2.1l-0.1,0.8L330.3,2.1z M334.6,4.1l-0.3,0.7L334.6,4.1z M337.7,8l-0.5,0.5l0,0L337.7,8z M339.8,14.1l-0.6,0.2l0.1,0.6
		l0.5,0L339.8,14.1z M340.2,14.1l0,0.8l0.7,0l-0.1-1L340.2,14.1z M338.7,2.9L338,3.1l0,0l0,0L338.7,2.9z M338.2,1.4l-0.3,0.7l0,0
		L338.2,1.4z M300.4,1.2l0-0.8l-0.6,0l0,0.8L300.4,1.2z M300.4,1.5l-0.6,0l0,0.6l0.4,0.2L300.4,1.5z M302.6,3l0.4-0.6l0,0L302.6,3z
		 M304.4,14.6l0.6,0L304.4,14.6z M304.4,82.2l0.6,0L304.4,82.2z M303.8,90.1l0.6,0.2L303.8,90.1z M302.5,93.8l-0.4-0.6L302.5,93.8z
		 M300.3,95.3l-0.2-0.8l0.4,1.6L300.3,95.3z M299.9,95.2l0,0.4l1.3,0l0-0.4L299.9,95.2z M300.5,96.4l39.9,0l0-1.7l-39.9,0
		L300.5,96.4z M340.4,96.4c0.2,0,0.5,0,0.8-0.2l-0.6-1.5c0,0-0.1,0-0.3,0L340.4,96.4z M341.3,96.2c0.3-0.2,0.4-0.5,0.5-0.8
		c0.1-0.3,0.1-0.6,0.2-0.9l-1.2-0.3c0,0.3-0.1,0.5-0.1,0.6c0,0.1,0,0,0.1,0L341.3,96.2z M342,94.4l1.1-13.3l-1.2-0.2l-1.1,13.3
		L342,94.4z M342.5,80.1l-0.4,0l0,1.7l0.4,0L342.5,80.1z M341.5,80.8c-0.6,3.1-1.3,5.5-2.1,7.3l1.1,0.9c0.9-2,1.7-4.6,2.2-7.8
		L341.5,80.8z M339.4,88.1c-0.8,1.8-1.8,3-3,4l0.6,1.5c1.4-1.1,2.5-2.6,3.4-4.6L339.4,88.1z M336.4,92.1c-1.2,0.9-2.7,1.5-4.4,1.8
		l0.1,1.7c1.9-0.3,3.5-0.9,4.9-2L336.4,92.1z M332.1,93.8c-1.8,0.2-3.9,0.4-6.3,0.4l0,1.7c2.5,0,4.6-0.1,6.5-0.4L332.1,93.8z
		 M325.8,94.2l-11.9,0l0,1.7l11.9,0L325.8,94.2z M314.5,95l0-50.9l-1.3,0l0,50.9L314.5,95z M313.9,45l5.5,0l0-1.7l-5.5,0L313.9,45z
		 M319.5,45c1.8,0,3.1,0.3,4,0.8l0.5-1.5c-1.2-0.7-2.7-1-4.5-1L319.5,45z M323.4,45.8c1,0.6,1.7,1.3,2.2,2l1-1.1
		c-0.6-1-1.6-1.8-2.7-2.5L323.4,45.8z M325.7,47.8c0.5,0.8,0.8,1.7,1.1,2.7L328,50c-0.3-1.2-0.7-2.3-1.3-3.3L325.7,47.8z
		 M326.8,50.6c0.3,1.1,0.5,2.2,0.6,3.3l1.2-0.4c-0.2-1.1-0.4-2.3-0.7-3.5L326.8,50.6z M328,54.5l0.2,0l0-1.7l-0.2,0L328,54.5z
		 M328.8,53.7l0-20l-1.3,0l0,20L328.8,53.7z M328.2,32.9l-0.2,0l0,1.7l0.2,0L328.2,32.9z M327.4,33.5c-0.2,1.1-0.4,2.2-0.6,3.3
		l1.2,0.5c0.3-1.2,0.5-2.4,0.7-3.5L327.4,33.5z M326.8,36.8c-0.3,1.1-0.6,2-1.1,2.7l1,1.1c0.6-1,1-2.1,1.3-3.3L326.8,36.8z
		 M325.7,39.6c-0.5,0.8-1.2,1.4-2.2,2l0.5,1.5c1.1-0.7,2-1.5,2.7-2.5L325.7,39.6z M323.4,41.6c-0.9,0.6-2.2,0.8-4,0.8l0,1.7
		c1.8,0,3.3-0.2,4.5-1L323.4,41.6z M319.5,42.4l-5.5,0l0,1.7l5.5,0L319.5,42.4z M314.5,43.3l0-41.8l-1.3,0l0,41.8L314.5,43.3z
		 M313.9,2.3l10.4,0l0-1.7l-10.4,0L313.9,2.3z M324.4,2.3c2.2,0,4.2,0.2,5.8,0.6l0.2-1.7c-1.7-0.4-3.7-0.6-6-0.6L324.4,2.3z
		 M330.2,2.9c1.6,0.4,3,1,4.1,1.9l0.7-1.4c-1.3-1.1-2.8-1.7-4.6-2.1L330.2,2.9z M334.3,4.8c1.2,1,2.1,2.1,2.9,3.7l1-1
		c-0.9-1.7-2-3.1-3.3-4.1L334.3,4.8z M337.2,8.4c0.8,1.5,1.4,3.5,2,5.9l1.2-0.5c-0.6-2.6-1.3-4.7-2.2-6.4L337.2,8.4z M339.8,15
		l0.4,0l0-1.7l-0.4,0L339.8,15z M340.8,14l-1.5-11.2L338,3.1l1.5,11.2L340.8,14z M339.3,2.8c-0.1-0.5-0.1-0.9-0.2-1.3
		c-0.1-0.3-0.3-0.7-0.6-0.9l-0.6,1.5c-0.1,0-0.1-0.1-0.1-0.1c0,0,0,0,0.1,0.1c0.1,0.2,0.1,0.4,0.2,0.8L339.3,2.8z M338.5,0.7
		c-0.2-0.2-0.6-0.3-1-0.3l0,1.7c0.2,0,0.3,0.1,0.5,0.2L338.5,0.7z M337.4,0.3l-37.1,0l0,1.7l37.1,0L337.4,0.3z M299.8,1.2l0,0.4
		l1.3,0l0-0.4L299.8,1.2z M300.2,2.3c0.9,0.4,1.6,0.8,2,1.3l0.8-1.3c-0.6-0.7-1.5-1.3-2.5-1.7L300.2,2.3z M302.2,3.7
		c0.2,0.2,0.4,0.5,0.5,1.1c0.2,0.5,0.3,1.2,0.5,2.1l1.2-0.4c-0.1-0.9-0.3-1.7-0.5-2.4c-0.2-0.7-0.5-1.3-0.9-1.7L302.2,3.7z
		 M303.2,6.9c0.3,1.7,0.5,4.3,0.5,7.8l1.3-0.1c-0.1-3.5-0.3-6.2-0.6-8.1L303.2,6.9z M303.8,14.6c0.1,3.5,0.1,8.4,0.1,14.5l1.3,0
		c0-6.2,0-11.1-0.1-14.6L303.8,14.6z M303.9,29.2l0,38.5l1.3,0l0-38.5L303.9,29.2z M303.9,67.6c0,6.2,0,11-0.1,14.5l1.3,0.1
		c0.1-3.5,0.1-8.5,0.1-14.6L303.9,67.6z M303.8,82.2c-0.1,3.5-0.3,6.1-0.6,7.8l1.2,0.4c0.3-1.8,0.5-4.5,0.6-8.1L303.8,82.2z
		 M303.2,90c-0.3,1.7-0.7,2.7-1.1,3.2l0.8,1.3c0.7-0.8,1.2-2.3,1.5-4.1L303.2,90z M302.1,93.1c-0.5,0.5-1.2,1-2,1.3l0.4,1.6
		c1-0.4,1.8-0.9,2.5-1.7L302.1,93.1z M300.5,96.1l0.3-0.1l-0.4-1.6l-0.3,0.1L300.5,96.1z M344.5,95.6l-0.6,0l0,0.8l0.6,0L344.5,95.6
		z M362.1,95.6l0,0.8l0.6,0l0-0.8L362.1,95.6z M362.1,95.2l0.6,0l0-0.6l-0.5-0.2L362.1,95.2z M359.8,93.7l-0.4,0.6L359.8,93.7z
		 M358.6,90.2l-0.6,0.2L358.6,90.2z M358,82.2l0.6,0L358,82.2z M357.9,48.3l0-0.8l-0.6,0l0,0.8L357.9,48.3z M364.7,48.9l0.2-0.8
		L364.7,48.9z M367.3,52l0.5-0.4L367.3,52z M369.3,59.5l0.6-0.2L369.3,59.5z M371.4,73.7l-0.6,0.2l0,0L371.4,73.7z M373.7,85.3
		l-0.6,0.3L373.7,85.3z M376.9,92.3l0.4-0.6l0,0L376.9,92.3z M381.1,95.7l-0.2,0.8L381.1,95.7z M391.3,95.3l0.3,0.7L391.3,95.3z
		 M394.1,92.4l0.5,0.6l0.4-0.6l-0.4-0.6L394.1,92.4z M393.8,92.1l0.4-0.6l-0.5-0.6l-0.4,0.7L393.8,92.1z M392,94.1l-0.3-0.7
		L392,94.1z M386.6,93.7l-0.3,0.7L386.6,93.7z M384.3,89.9l-0.6,0.4L384.3,89.9z M382.5,83l-0.6,0.2L382.5,83z M380.8,72.4l-0.6,0.1
		l0,0L380.8,72.4z M378.5,61.5l0.6-0.3L378.5,61.5z M375.1,54.3l0.5-0.6L375.1,54.3z M370.6,50.2l0.2-0.8L370.6,50.2z M365,48.6
		l0-0.8l-0.1,1.7L365,48.6z M366.8,48.7l0,0.8l0,0l0,0L366.8,48.7z M375.4,47.2l-0.2-0.8L375.4,47.2z M382.6,42.7l-0.4-0.7
		L382.6,42.7z M387.4,35l-0.6-0.4L387.4,35z M383.1,7l-0.3,0.7L383.1,7z M344.6,1.7l0-0.8l-0.6,0l0,0.8L344.6,1.7z M344.6,2.1
		l-0.6,0l0,0.6l0.4,0.2L344.6,2.1z M346.8,3.6l-0.4,0.6l0,0L346.8,3.6z M348,7.2l-0.6,0.2L348,7.2z M348.6,15.1l-0.6,0l0,0
		L348.6,15.1z M348.6,82.7l-0.6,0L348.6,82.7z M348,90.7l-0.6-0.2L348,90.7z M346.7,94.3l-0.4-0.6L346.7,94.3z M344.5,95.8l-0.6,0
		l0,1.1l0.8-0.3L344.5,95.8z M358,2.4l0-0.8l-0.6,0l0,0.8L358,2.4z M371.7,3.8l-0.2,0.8L371.7,3.8z M376.6,8l-0.5,0.5L376.6,8z
		 M376.9,42.4l0.5,0.5L376.9,42.4z M357.9,48.4l-0.6,0l0,0.8l0.6,0L357.9,48.4z M343.8,95.2l0,0.4l1.3,0l0-0.4L343.8,95.2z
		 M344.5,96.4l17.7,0l0-1.7l-17.7,0L344.5,96.4z M362.8,95.6l0-0.4l-1.3,0l0,0.4L362.8,95.6z M362.3,94.4c-1-0.4-1.6-0.8-2.1-1.3
		l-0.8,1.3c0.7,0.7,1.5,1.3,2.6,1.7L362.3,94.4z M360.2,93c-0.4-0.4-0.7-1.3-1-3.1l-1.2,0.4c0.3,1.8,0.7,3.2,1.4,4L360.2,93z
		 M359.2,90c-0.3-1.7-0.5-4.3-0.5-7.8l-1.3,0.1c0.1,3.5,0.3,6.2,0.6,8.1L359.2,90z M358.6,82.2c-0.1-3.5-0.1-8.4-0.1-14.5l-1.3,0
		c0,6.2,0,11.1,0.1,14.6L358.6,82.2z M358.5,67.7l0-19.4l-1.3,0l0,19.4L358.5,67.7z M357.9,49.1l2.4,0l0-1.7l-2.4,0L357.9,49.1z
		 M360.3,49.1c1.8,0,3.3,0.2,4.3,0.6l0.3-1.6c-1.1-0.4-2.7-0.7-4.6-0.7L360.3,49.1z M364.5,49.7c0.8,0.3,1.6,1.1,2.3,2.6l1.1-0.9
		c-0.8-1.7-1.8-2.9-3-3.4L364.5,49.7z M366.8,52.4c0.7,1.5,1.3,3.9,1.9,7.3l1.2-0.4c-0.6-3.4-1.2-6-2.1-7.8L366.8,52.4z M368.7,59.7
		c0.6,3.4,1.2,8.1,2.1,14.2l1.2-0.3c-0.8-6-1.5-10.8-2.1-14.2L368.7,59.7z M370.7,73.9c0.7,4.7,1.4,8.6,2.4,11.7l1.2-0.6
		c-0.9-2.9-1.7-6.8-2.3-11.4L370.7,73.9z M373.1,85.6c1,3.1,2,5.6,3.3,7.3l0.9-1.2c-1.1-1.5-2.1-3.8-3.1-6.8L373.1,85.6z
		 M376.5,92.9c1.3,1.7,2.8,2.9,4.5,3.6l0.4-1.6c-1.5-0.6-2.8-1.6-4-3.2L376.5,92.9z M381,96.5c1.7,0.7,3.5,1,5.5,1l0-1.7
		c-1.9,0-3.6-0.4-5.2-1L381,96.5z M386.5,97.5c2.1,0,3.8-0.5,5.1-1.5l-0.6-1.5c-1.1,0.8-2.6,1.3-4.5,1.3L386.5,97.5z M391.6,96.1
		c1.3-0.9,2.3-2,3-3.1l-0.9-1.1c-0.6,0.9-1.5,1.9-2.6,2.7L391.6,96.1z M394.6,91.8l-0.3-0.4l-0.9,1.2l0.3,0.4L394.6,91.8z
		 M393.4,91.5c-0.5,0.8-1,1.4-1.6,1.8l0.6,1.5c0.7-0.6,1.3-1.2,2-2.2L393.4,91.5z M391.7,93.3c-0.5,0.4-1.3,0.6-2.3,0.6l0,1.7
		c1.2,0,2.2-0.3,2.9-0.9L391.7,93.3z M389.4,94c-0.9,0-1.7-0.3-2.5-1l-0.7,1.4c1,0.8,2,1.3,3.2,1.3L389.4,94z M386.9,93
		c-0.7-0.6-1.4-1.8-2-3.4l-1.1,0.7c0.7,1.8,1.5,3.2,2.5,4.1L386.9,93z M384.9,89.5c-0.6-1.7-1.3-3.9-1.8-6.7l-1.2,0.4
		c0.6,2.9,1.2,5.3,1.9,7.1L384.9,89.5z M383.1,82.8c-0.6-2.9-1.1-6.4-1.7-10.5l-1.2,0.3c0.6,4.2,1.1,7.7,1.7,10.6L383.1,82.8z
		 M381.4,72.3c-0.6-4.4-1.3-8.2-2.3-11.1l-1.1,0.7c0.9,2.8,1.7,6.4,2.2,10.7L381.4,72.3z M379.1,61.2c-1-3-2.1-5.4-3.5-7.4l-0.9,1.1
		c1.3,1.8,2.4,4.1,3.3,6.9L379.1,61.2z M375.6,53.8c-1.4-2-3-3.4-4.7-4.4l-0.5,1.6c1.6,0.8,3,2.1,4.3,3.9L375.6,53.8z M370.8,49.4
		c-1.8-0.9-3.7-1.4-5.8-1.7l-0.1,1.7c2,0.2,3.9,0.7,5.5,1.6L370.8,49.4z M364.9,49.4l1.9,0.1l0.1-1.7l-1.9-0.1L364.9,49.4z
		 M366.8,49.5c3.1,0,5.9-0.5,8.7-1.5l-0.3-1.6c-2.7,1-5.4,1.5-8.4,1.5L366.8,49.5z M375.6,48c2.8-1,5.2-2.6,7.4-4.7l-0.7-1.4
		c-2,1.9-4.3,3.4-6.9,4.4L375.6,48z M382.9,43.3c2.2-2.1,3.8-4.7,5.1-8l-1.1-0.8c-1.2,3-2.7,5.4-4.7,7.4L382.9,43.3z M388,35.4
		c1.3-3.3,1.9-7.1,1.9-11.3l-1.3,0c0,4-0.6,7.6-1.7,10.5L388,35.4z M389.9,24.1c0-8.1-2.1-14.1-6.4-17.8l-0.7,1.4
		c3.8,3.3,5.8,8.7,5.8,16.4L389.9,24.1z M383.5,6.3c-4.2-3.7-10.5-5.4-18.7-5.4l0,1.7c8.1,0,14.1,1.8,18,5.1L383.5,6.3z M364.8,0.9
		l-20.2,0l0,1.7l20.2,0L364.8,0.9z M343.9,1.7l0,0.4l1.3,0l0-0.4L343.9,1.7z M344.4,2.9c0.9,0.4,1.6,0.8,2,1.3l0.8-1.3
		c-0.6-0.7-1.5-1.3-2.5-1.7L344.4,2.9z M346.4,4.2c0.2,0.2,0.4,0.5,0.5,1.1c0.2,0.5,0.3,1.2,0.5,2.1l1.2-0.4
		c-0.1-0.9-0.3-1.7-0.5-2.4c-0.2-0.7-0.5-1.3-0.9-1.7L346.4,4.2z M347.4,7.4c0.3,1.7,0.5,4.3,0.5,7.8l1.3-0.1
		c-0.1-3.5-0.3-6.2-0.6-8.1L347.4,7.4z M348,15.2c0.1,3.5,0.1,8.4,0.1,14.5l1.3,0c0-6.2,0-11.1-0.1-14.6L348,15.2z M348.1,29.7
		l0,38.5l1.3,0l0-38.5L348.1,29.7z M348.1,68.2c0,6.2,0,11-0.1,14.5l1.3,0.1c0.1-3.5,0.1-8.5,0.1-14.6L348.1,68.2z M348,82.7
		c-0.1,3.5-0.3,6.1-0.6,7.8l1.2,0.4c0.3-1.8,0.5-4.5,0.6-8.1L348,82.7z M347.4,90.5c-0.3,1.7-0.7,2.7-1.1,3.2l0.8,1.3
		c0.7-0.8,1.2-2.3,1.5-4.1L347.4,90.5z M346.3,93.7c-0.5,0.5-1.2,1-2,1.3l0.4,1.6c1-0.4,1.8-0.9,2.5-1.7L346.3,93.7z M345.1,95.8
		l0-0.6l-1.3,0l0,0.6L345.1,95.8z M358,3.3l6.3,0l0-1.7l-6.3,0L358,3.3z M364.3,3.3c2.9,0,5.2,0.5,7.2,1.3l0.4-1.6
		c-2.1-0.9-4.7-1.4-7.6-1.4L364.3,3.3z M371.6,4.6c2,0.8,3.5,2.1,4.6,3.9l0.9-1.1c-1.3-2-3-3.5-5.2-4.4L371.6,4.6z M376.2,8.5
		c1.2,1.8,2.1,4,2.6,6.8l1.2-0.4c-0.6-3-1.6-5.5-2.9-7.5L376.2,8.5z M378.8,15.4c0.5,2.8,0.8,6.2,0.8,10.2l1.3,0
		c0-4.1-0.3-7.7-0.9-10.6L378.8,15.4z M379.6,25.6c0,7.1-1.1,12.5-3.2,16.3l1,1c2.3-4.2,3.4-10.1,3.4-17.3L379.6,25.6z M376.4,41.9
		c-2,3.7-5.4,5.7-10.2,5.7l0,1.7c5.1,0,8.9-2.1,11.2-6.4L376.4,41.9z M366.2,47.6l-8.3,0l0,1.7l8.3,0L366.2,47.6z M358.5,48.4
		l0.1-46l-1.3,0l-0.1,46L358.5,48.4z M393.5,95.2l0.6,0l-1.2-0.4L393.5,95.2z M393.5,95.6l-0.6,0l0,0.8l0.6,0L393.5,95.6z
		 M411.1,95.6l0,0.8l0.6,0l0-0.8L411.1,95.6z M411.1,95.2l0.6,0l0-0.6l-0.5-0.2L411.1,95.2z M408.7,93.7l-0.4,0.6L408.7,93.7z
		 M407.5,90.2l0.6-0.2l0,0L407.5,90.2z M407,82.3l-0.6,0L407,82.3z M407,14.6l-0.6,0L407,14.6z M407.5,6.7l0.6,0.2l0,0L407.5,6.7z
		 M411.1,1.7l0.2,0.8l0.5-0.2l0-0.6L411.1,1.7z M411.1,1.3l0.6,0l0-0.8l-0.6,0L411.1,1.3z M393.5,1.3l0-0.8l-0.6,0l0,0.8L393.5,1.3z
		 M393.5,1.7l-0.6,0l0,0.6l0.4,0.2L393.5,1.7z M397.6,14.8l0.6,0L397.6,14.8z M397.5,82.4l0.6,0L397.5,82.4z M397,90.3l-0.6-0.2
		L397,90.3z M395.7,93.9l-0.4-0.6L395.7,93.9z M393.4,95.4l-0.6-0.4l-0.6,1.7l1.4-0.6L393.4,95.4z M392.9,95.2l0,0.4l1.3,0l0-0.4
		L392.9,95.2z M393.5,96.4l17.6,0l0-1.7l-17.6,0L393.5,96.4z M411.7,95.6l0-0.4l-1.3,0l0,0.4L411.7,95.6z M411.3,94.4
		c-1-0.4-1.6-0.8-2.1-1.3l-0.8,1.3c0.7,0.7,1.5,1.3,2.6,1.7L411.3,94.4z M409.1,93.1c-0.4-0.4-0.7-1.3-1-3.1l-1.2,0.4
		c0.3,1.8,0.7,3.2,1.4,4L409.1,93.1z M408.1,90c-0.3-1.7-0.5-4.3-0.5-7.8l-1.3,0.1c0.1,3.5,0.3,6.2,0.6,8.1L408.1,90z M407.6,82.2
		c-0.1-3.5-0.1-8.4-0.1-14.5l-1.3,0c0,6.2,0,11.1,0.1,14.6L407.6,82.2z M407.5,67.7l0-38.5l-1.3,0l0,38.5L407.5,67.7z M407.5,29.2
		c0-6.2,0-11,0.1-14.5l-1.3-0.1c-0.1,3.5-0.1,8.5-0.1,14.6L407.5,29.2z M407.6,14.7c0.1-3.5,0.3-6.1,0.6-7.8l-1.2-0.4
		c-0.3,1.8-0.5,4.5-0.6,8.1L407.6,14.7z M408.1,6.9c0.3-1.7,0.6-2.6,1-3.1l-0.8-1.3c-0.7,0.8-1.1,2.2-1.4,4L408.1,6.9z M409.2,3.9
		c0.5-0.5,1.1-1,2.1-1.3l-0.3-1.6c-1.1,0.4-1.9,0.9-2.6,1.7L409.2,3.9z M411.7,1.7l0-0.4l-1.3,0l0,0.4L411.7,1.7z M411.1,0.5
		l-17.6,0l0,1.7l17.6,0L411.1,0.5z M392.9,1.3l0,0.4l1.3,0l0-0.4L392.9,1.3z M393.3,2.5c0.9,0.4,1.6,0.8,2,1.3l0.8-1.3
		c-0.6-0.7-1.5-1.3-2.5-1.7L393.3,2.5z M395.4,3.9c0.2,0.2,0.4,0.5,0.5,1.1c0.2,0.5,0.3,1.2,0.5,2.1l1.2-0.4
		c-0.1-0.9-0.3-1.7-0.5-2.4c-0.2-0.7-0.5-1.3-0.9-1.7L395.4,3.9z M396.4,7c0.3,1.7,0.5,4.3,0.5,7.8l1.3-0.1
		c-0.1-3.5-0.3-6.2-0.6-8.1L396.4,7z M396.9,14.8c0.1,3.5,0.1,8.4,0.1,14.5l1.3,0c0-6.2,0-11.1-0.1-14.6L396.9,14.8z M397,29.3
		l0,38.5l1.3,0l0-38.5L397,29.3z M397,67.8c0,6.2,0,11-0.1,14.5l1.3,0.1c0.1-3.5,0.1-8.5,0.1-14.6L397,67.8z M396.9,82.3
		c-0.1,3.5-0.3,6.1-0.6,7.8l1.2,0.4c0.3-1.8,0.5-4.5,0.6-8.1L396.9,82.3z M396.4,90.1c-0.3,1.7-0.7,2.7-1.1,3.2l0.8,1.3
		c0.7-0.8,1.2-2.3,1.5-4.1L396.4,90.1z M395.3,93.3c-0.5,0.5-1.2,1-2,1.3l0.4,1.6c1-0.4,1.8-0.9,2.5-1.7L395.3,93.3z M394,95.8
		l0.1-0.3l-1.1-0.8l-0.1,0.3L394,95.8z M413.3,95.2l0.6,0l0-1.2l-0.8,0.4L413.3,95.2z M413.3,95.6l-0.6,0l0,0.8l0.6,0L413.3,95.6z
		 M454.2,94.3l0.6,0.2l0,0l0,0L454.2,94.3z M455.3,81l0.6,0.1l0.1-0.9l-0.7,0L455.3,81z M454.9,81l0-0.8l-0.5,0l-0.1,0.6L454.9,81z
		 M449.6,92.8l-0.3-0.7L449.6,92.8z M444.9,94.7l0.1,0.8L444.9,94.7z M426.7,95.1l-0.6,0l0,0.8l0.6,0L426.7,95.1z M426.7,44.2l0-0.8
		l-0.6,0l0,0.8L426.7,44.2z M438.9,47.3l-0.5,0.5l0,0L438.9,47.3z M440.2,50.4l0.6-0.3L440.2,50.4z M440.8,53.7l-0.6,0.2l0.1,0.7
		l0.5,0L440.8,53.7z M441,53.7l0,0.8l0.6,0l0-0.8L441,53.7z M441,33.8l0.6,0l0-0.8l-0.6,0L441,33.8z M440.8,33.8l0-0.8l-0.5,0
		l-0.1,0.7L440.8,33.8z M440.2,37.2l0.6,0.3L440.2,37.2z M438.9,40.2l-0.5-0.5L438.9,40.2z M436.5,42.4l0.3,0.8L436.5,42.4z
		 M426.7,43.3l-0.6,0l0,0.8l0.6,0L426.7,43.3z M426.7,1.5l0-0.8l-0.6,0l0,0.8L426.7,1.5z M443.1,2.1L443,2.9l0,0L443.1,2.1z
		 M447.4,4.1l-0.3,0.7L447.4,4.1z M450.5,8L450,8.5l0,0L450.5,8z M452.6,14.2l-0.6,0.2l0.1,0.6l0.5,0L452.6,14.2z M453,14.2l0,0.8
		l0.7,0l-0.1-1L453,14.2z M451.5,3l-0.6,0.1l0,0l0,0L451.5,3z M451,1.5l-0.3,0.7l0,0L451,1.5z M413.2,1.2l0-0.8l-0.6,0l0,0.8
		L413.2,1.2z M413.2,1.6l-0.6,0l0,0.6l0.4,0.2L413.2,1.6z M415.4,3.1l0.4-0.6l0,0L415.4,3.1z M417.2,14.7l0.6,0L417.2,14.7z
		 M417.2,82.3l0.6,0L417.2,82.3z M416.6,90.2l0.6,0.2L416.6,90.2z M415.3,93.8l-0.4-0.6L415.3,93.8z M413.1,95.3l-0.2-0.8l0.4,1.6
		L413.1,95.3z M412.7,95.2l0,0.4l1.3,0l0-0.4L412.7,95.2z M413.3,96.4l39.9,0l0-1.7l-39.9,0L413.3,96.4z M453.2,96.4
		c0.2,0,0.5,0,0.8-0.2l-0.6-1.5c0,0-0.1,0-0.3,0L453.2,96.4z M454.1,96.2c0.3-0.2,0.4-0.5,0.5-0.8c0.1-0.3,0.1-0.6,0.2-0.9l-1.2-0.3
		c0,0.3-0.1,0.5-0.1,0.6c0,0.1,0,0,0.1,0L454.1,96.2z M454.8,94.4l1.1-13.3l-1.2-0.2l-1.1,13.3L454.8,94.4z M455.3,80.2l-0.4,0
		l0,1.7l0.4,0L455.3,80.2z M454.3,80.8c-0.6,3.1-1.3,5.5-2.1,7.3l1.1,0.9c0.9-2,1.7-4.6,2.2-7.8L454.3,80.8z M452.2,88.1
		c-0.8,1.8-1.8,3-3,4l0.6,1.5c1.4-1.1,2.5-2.6,3.4-4.6L452.2,88.1z M449.2,92.1c-1.2,0.9-2.7,1.5-4.4,1.8l0.1,1.7
		c1.9-0.3,3.5-0.9,4.9-2L449.2,92.1z M444.9,93.9c-1.8,0.2-3.9,0.4-6.3,0.4l0,1.7c2.5,0,4.6-0.1,6.5-0.4L444.9,93.9z M438.5,94.2
		l-11.9,0l0,1.7l11.9,0L438.5,94.2z M427.3,95.1l0-50.9l-1.3,0l0,50.9L427.3,95.1z M426.7,45l5.5,0l0-1.7l-5.5,0L426.7,45z
		 M432.3,45c1.8,0,3.1,0.3,4,0.8l0.5-1.5c-1.2-0.7-2.7-1-4.5-1L432.3,45z M436.2,45.8c1,0.6,1.7,1.3,2.2,2l1-1.1
		c-0.6-1-1.6-1.8-2.7-2.5L436.2,45.8z M438.5,47.9c0.5,0.8,0.8,1.7,1.1,2.7l1.2-0.5c-0.3-1.2-0.7-2.3-1.3-3.3L438.5,47.9z
		 M439.6,50.6c0.3,1.1,0.5,2.2,0.6,3.3l1.2-0.4c-0.2-1.1-0.4-2.3-0.7-3.5L439.6,50.6z M440.8,54.6l0.2,0l0-1.7h-0.2L440.8,54.6z
		 M441.6,53.7l0-20l-1.3,0l0,20L441.6,53.7z M441,32.9h-0.2l0,1.7l0.2,0L441,32.9z M440.2,33.6c-0.2,1.1-0.4,2.2-0.6,3.3l1.2,0.5
		c0.3-1.2,0.5-2.4,0.7-3.5L440.2,33.6z M439.6,36.9c-0.3,1.1-0.6,2-1.1,2.7l1,1.1c0.6-1,1-2.1,1.3-3.3L439.6,36.9z M438.5,39.6
		c-0.5,0.8-1.2,1.4-2.2,2l0.5,1.5c1.1-0.7,2-1.5,2.7-2.5L438.5,39.6z M436.2,41.7c-0.9,0.6-2.2,0.8-4,0.8l0,1.7c1.8,0,3.3-0.2,4.5-1
		L436.2,41.7z M432.3,42.5l-5.5,0l0,1.7l5.5,0L432.3,42.5z M427.3,43.3l0-41.8l-1.3,0l0,41.8L427.3,43.3z M426.7,2.3l10.4,0l0-1.7
		l-10.4,0L426.7,2.3z M437.2,2.3c2.2,0,4.2,0.2,5.8,0.6l0.2-1.7c-1.7-0.4-3.7-0.6-6-0.6L437.2,2.3z M443,2.9c1.6,0.4,3,1,4.1,1.9
		l0.7-1.4c-1.3-1.1-2.8-1.7-4.6-2.1L443,2.9z M447.1,4.8c1.2,1,2.1,2.1,2.9,3.7l1-1c-0.9-1.7-2-3.1-3.3-4.1L447.1,4.8z M450,8.5
		c0.8,1.5,1.4,3.5,2,5.9l1.2-0.5c-0.6-2.6-1.3-4.7-2.2-6.4L450,8.5z M452.6,15l0.4,0l0-1.7l-0.4,0L452.6,15z M453.6,14l-1.5-11.2
		l-1.2,0.3l1.5,11.2L453.6,14z M452.1,2.9c-0.1-0.5-0.1-0.9-0.2-1.3c-0.1-0.3-0.3-0.7-0.6-0.9l-0.6,1.5c-0.1,0-0.1-0.1-0.1-0.1
		c0,0,0,0,0.1,0.1c0.1,0.2,0.1,0.4,0.2,0.8L452.1,2.9z M451.3,0.7c-0.2-0.2-0.6-0.3-1-0.3l0,1.7c0.2,0,0.3,0.1,0.5,0.2L451.3,0.7z
		 M450.2,0.4l-37.1,0l0,1.7l37.1,0L450.2,0.4z M412.5,1.2l0,0.4l1.3,0l0-0.4L412.5,1.2z M413,2.4c0.9,0.4,1.6,0.8,2,1.3l0.8-1.3
		c-0.6-0.7-1.5-1.3-2.5-1.7L413,2.4z M415,3.7c0.2,0.2,0.4,0.5,0.5,1.1c0.2,0.5,0.3,1.2,0.5,2.1l1.2-0.4c-0.1-0.9-0.3-1.7-0.5-2.4
		c-0.2-0.7-0.5-1.3-0.9-1.7L415,3.7z M416,6.9c0.3,1.7,0.5,4.3,0.5,7.8l1.3-0.1c-0.1-3.5-0.3-6.2-0.6-8.1L416,6.9z M416.6,14.7
		c0.1,3.5,0.1,8.4,0.1,14.5l1.3,0c0-6.2,0-11.1-0.1-14.6L416.6,14.7z M416.7,29.2l0,38.5l1.3,0l0-38.5L416.7,29.2z M416.7,67.7
		c0,6.2,0,11-0.1,14.5l1.3,0.1c0.1-3.5,0.1-8.5,0.1-14.6L416.7,67.7z M416.6,82.2c-0.1,3.5-0.3,6.1-0.6,7.8l1.2,0.4
		c0.3-1.8,0.5-4.5,0.6-8.1L416.6,82.2z M416,90c-0.3,1.7-0.7,2.7-1.1,3.2l0.8,1.3c0.7-0.8,1.2-2.3,1.5-4.1L416,90z M414.9,93.2
		c-0.5,0.5-1.2,1-2,1.3l0.4,1.6c1-0.4,1.8-0.9,2.5-1.7L414.9,93.2z M413.3,96.1l0.3-0.1l-0.4-1.6l-0.3,0.1L413.3,96.1z"/>
</g>
<g>
	<path class="st0" d="M1.3,95.1l0.6,0l-1.2-0.4L1.3,95.1z M1.3,95.5l-0.6,0v0.8l0.6,0L1.3,95.5z M18.9,95.5l0,0.8l0.6,0l0-0.8
		L18.9,95.5z M18.9,95.1l0.6,0l0-0.6l-0.5-0.2L18.9,95.1z M16.6,93.6l-0.4,0.6L16.6,93.6z M15.3,90.1l0.6-0.2l0,0L15.3,90.1z
		 M14.8,82.2l-0.6,0L14.8,82.2z M14.8,14.6l-0.6,0L14.8,14.6z M15.3,6.7l0.6,0.2l0,0L15.3,6.7z M18.9,1.6l0.2,0.8l0.5-0.2l0-0.6
		L18.9,1.6z M18.9,1.3l0.6,0l0-0.8l-0.6,0L18.9,1.3z M1.3,1.3l0-0.8l-0.6,0l0,0.8L1.3,1.3z M1.3,1.6l-0.6,0l0,0.6l0.4,0.2L1.3,1.6z
		 M5.4,14.7l0.6,0L5.4,14.7z M5.4,82.3l0.6,0L5.4,82.3z M4.8,90.2l-0.6-0.2L4.8,90.2z M3.5,93.9l-0.4-0.6L3.5,93.9z M1.2,95.4
		L0.7,95L0,96.7l1.4-0.6L1.2,95.4z M0.7,95.1l0,0.4l1.3,0l0-0.4L0.7,95.1z M1.3,96.3l17.6,0l0-1.7l-17.6,0L1.3,96.3z M19.5,95.5
		l0-0.4l-1.3,0l0,0.4L19.5,95.5z M19.1,94.3c-1-0.4-1.6-0.8-2.1-1.3l-0.8,1.3c0.7,0.7,1.5,1.3,2.6,1.7L19.1,94.3z M17,93
		c-0.4-0.4-0.7-1.3-1-3.1l-1.2,0.4c0.3,1.8,0.7,3.2,1.4,4L17,93z M15.9,89.9c-0.3-1.7-0.5-4.3-0.6-7.8l-1.3,0.1
		c0.1,3.5,0.3,6.2,0.6,8.1L15.9,89.9z M15.4,82.2c-0.1-3.5-0.1-8.4-0.1-14.5l-1.3,0c0,6.2,0,11.1,0.1,14.6L15.4,82.2z M15.3,67.6
		l0-38.5l-1.3,0l0,38.5L15.3,67.6z M15.3,29.2c0-6.2,0-11,0.1-14.5l-1.3-0.1C14,18.1,14,23,14,29.2L15.3,29.2z M15.4,14.6
		c0.1-3.5,0.3-6.1,0.6-7.8l-1.2-0.4c-0.3,1.8-0.5,4.5-0.6,8.1L15.4,14.6z M15.9,6.8c0.3-1.7,0.6-2.6,1-3.1l-0.8-1.3
		c-0.7,0.8-1.1,2.2-1.4,4L15.9,6.8z M17,3.8c0.5-0.5,1.1-1,2.1-1.3l-0.3-1.6c-1.1,0.4-1.9,0.9-2.6,1.7L17,3.8z M19.5,1.6l0-0.4
		l-1.3,0l0,0.4L19.5,1.6z M18.9,0.4l-17.6,0l0,1.7l17.6,0L18.9,0.4z M0.7,1.3l0,0.4l1.3,0l0-0.4H0.7z M1.1,2.4
		c0.9,0.4,1.6,0.8,2,1.3L4,2.5C3.3,1.8,2.5,1.2,1.5,0.8L1.1,2.4z M3.2,3.8C3.3,4,3.5,4.3,3.7,4.9C3.9,5.4,4,6.1,4.2,7l1.2-0.4
		C5.3,5.7,5.1,4.9,4.9,4.2C4.6,3.5,4.4,2.9,4,2.5L3.2,3.8z M4.2,7c0.3,1.7,0.5,4.3,0.6,7.8L6,14.7c-0.1-3.5-0.3-6.2-0.6-8.1L4.2,7z
		 M4.7,14.7c0.1,3.5,0.1,8.4,0.1,14.5l1.3,0c0-6.2,0-11.1-0.1-14.6L4.7,14.7z M4.8,29.3l0,38.5l1.3,0l0-38.5L4.8,29.3z M4.8,67.7
		c0,6.2,0,11-0.1,14.5L6,82.3c0.1-3.5,0.1-8.5,0.1-14.6L4.8,67.7z M4.7,82.3c-0.1,3.5-0.3,6.1-0.6,7.8l1.2,0.4
		c0.3-1.8,0.5-4.5,0.6-8.1L4.7,82.3z M4.2,90.1c-0.3,1.7-0.7,2.7-1.1,3.2l0.8,1.3c0.7-0.8,1.2-2.3,1.5-4.1L4.2,90.1z M3.1,93.2
		c-0.5,0.5-1.2,1-2,1.3l0.4,1.6c1-0.4,1.8-0.9,2.5-1.7L3.1,93.2z M1.8,95.8l0.1-0.3l-1.1-0.7L0.7,95L1.8,95.8z M21.2,95.5l-0.6,0
		l0,0.8l0.6,0L21.2,95.5z M29.9,95.5l0,0.8l0.6,0l0-0.8L29.9,95.5z M29.9,95.1l0.6,0l0-0.6l-0.4-0.2L29.9,95.1z M27.5,93.4l0.4-0.6
		L27.5,93.4z M26.3,89.7l0.6-0.2L26.3,89.7z M25.8,81.9l0.6,0L25.8,81.9z M25.7,4l0.6-0.4L25,4L25.7,4z M62.6,96l-0.6,0.4l0.2,0.4
		l0.4,0L62.6,96z M63.9,96l0,0.8l0.6,0l0-0.8L63.9,96z M64,15.1l0.6,0L64,15.1z M64.6,7.3l0.6,0.2l0,0L64.6,7.3z M65.8,3.6l0.4,0.6
		l0,0L65.8,3.6z M68.1,1.9l0.2,0.8l0.4-0.2l0-0.6L68.1,1.9z M68.1,1.5l0.6,0l0-0.8l-0.6,0L68.1,1.5z M59.3,1.5l0-0.8l-0.6,0l0,0.8
		L59.3,1.5z M59.3,1.9l-0.6,0l0,0.6l0.4,0.2L59.3,1.9z M61.7,3.6l-0.4,0.6v0L61.7,3.6z M62.9,7.3l0.6-0.2l0,0L62.9,7.3z M63.5,15.1
		l-0.6,0L63.5,15.1z M63.6,71.3L63,71.7l1.2-0.4L63.6,71.3z M36.6,4.5l0.6-0.4l0,0L36.6,4.5z M35.3,1.9l0.4-0.6l0,0L35.3,1.9z
		 M21.2,1.4l0-0.8l-0.6,0l0,0.8L21.2,1.4z M21.2,1.8l-0.6,0l0,0.6l0.4,0.2L21.2,1.8z M23.5,3.3l-0.4,0.6L23.5,3.3z M24.7,6.9
		l-0.6,0.2L24.7,6.9z M25.3,14.8l-0.6,0L25.3,14.8z M25.3,82.1l-0.6,0L25.3,82.1z M24.7,89.9l-0.6-0.2L24.7,89.9z M23.4,93.5
		l0.4,0.6L23.4,93.5z M21.2,95.3l-0.6,0l0,1.2l0.9-0.5L21.2,95.3z M20.5,95.1l0,0.4l1.3,0l0-0.4L20.5,95.1z M21.2,96.3l8.7,0l0-1.7
		l-8.7,0L21.2,96.3z M30.5,95.5l0-0.4l-1.3,0l0,0.4L30.5,95.5z M30.1,94.3c-1-0.5-1.7-1-2.2-1.6L27.1,94c0.6,0.7,1.4,1.4,2.5,1.9
		L30.1,94.3z M28,92.7c-0.2-0.2-0.4-0.5-0.5-1.1c-0.2-0.5-0.3-1.2-0.5-2.1l-1.2,0.4c0.1,0.9,0.3,1.7,0.5,2.4
		c0.2,0.7,0.5,1.3,0.9,1.7L28,92.7z M26.9,89.6c-0.3-1.7-0.5-4.3-0.6-7.6L25.1,82c0.1,3.4,0.3,6.1,0.6,7.9L26.9,89.6z M26.4,81.9
		c-0.1-3.4-0.1-8.1-0.1-14.2l-1.3,0c0,6,0,10.8,0.1,14.2L26.4,81.9z M26.3,67.7l0-63.7H25l0,63.7L26.3,67.7z M25.1,4.4l37,92
		l1.1-0.8l-37-92L25.1,4.4z M62.6,96.9l1.3,0l0-1.7l-1.3,0L62.6,96.9z M64.6,96l0-66.7l-1.3,0l0,66.7L64.6,96z M64.6,29.3
		c0-6,0-10.8,0.1-14.2l-1.3-0.1c-0.1,3.4-0.1,8.2-0.1,14.2L64.6,29.3z M64.7,15.1c0.1-3.4,0.3-6,0.6-7.6L64,7.1
		c-0.3,1.8-0.5,4.5-0.6,7.9L64.7,15.1z M65.2,7.5c0.1-0.9,0.3-1.5,0.5-2.1c0.2-0.5,0.4-0.9,0.5-1.1L65.4,3c-0.4,0.4-0.7,1-0.9,1.7
		c-0.2,0.7-0.4,1.5-0.5,2.4L65.2,7.5z M66.2,4.3c0.5-0.6,1.2-1.2,2.1-1.6l-0.5-1.6c-1,0.5-1.8,1.2-2.4,1.9L66.2,4.3z M68.7,1.9
		l0-0.4l-1.3,0l0,0.4L68.7,1.9z M68.1,0.7l-8.7,0l0,1.7l8.7,0L68.1,0.7z M58.7,1.5l0,0.4l1.3,0l0-0.4L58.7,1.5z M59.1,2.7
		c1,0.5,1.7,1,2.2,1.6L62.1,3c-0.6-0.7-1.4-1.4-2.5-1.9L59.1,2.7z M61.3,4.3c0.2,0.2,0.4,0.5,0.5,1.1c0.2,0.5,0.3,1.2,0.5,2.1
		l1.2-0.4c-0.1-0.9-0.3-1.7-0.5-2.4C62.8,4,62.5,3.4,62.1,3L61.3,4.3z M62.3,7.5c0.3,1.7,0.5,4.3,0.6,7.6l1.3-0.1
		C64,11.6,63.8,9,63.5,7.1L62.3,7.5z M62.9,15.1c0.1,3.4,0.1,8.1,0.1,14.2l1.3,0c0-6,0-10.8-0.1-14.2L62.9,15.1z M62.9,29.3l0,42
		l1.3,0l0-42L62.9,29.3z M64.1,70.9l-27-66.7L36,4.9l27,66.7L64.1,70.9z M37.1,4.1c-0.6-1.4-1.1-2.4-1.4-2.8l-0.9,1.2
		C35,2.8,35.5,3.6,36,4.9L37.1,4.1z M35.7,1.3c-0.5-0.6-1.2-0.7-1.9-0.7l0,1.7c0.6,0,0.9,0.1,1,0.3L35.7,1.3z M33.9,0.5l-12.6,0
		l0,1.7l12.6,0L33.9,0.5z M20.6,1.4l0,0.4l1.3,0l0-0.4L20.6,1.4z M21.1,2.6c0.9,0.4,1.6,0.8,2,1.3l0.8-1.3c-0.6-0.7-1.5-1.3-2.5-1.7
		L21.1,2.6z M23.1,3.9c0.2,0.2,0.4,0.5,0.5,1.1c0.2,0.5,0.3,1.2,0.5,2.1l1.2-0.4C25.2,5.8,25,5,24.8,4.3c-0.2-0.7-0.5-1.3-0.9-1.7
		L23.1,3.9z M24.1,7.1c0.3,1.7,0.5,4.3,0.6,7.8l1.3-0.1c-0.1-3.5-0.3-6.2-0.6-8.1L24.1,7.1z M24.7,14.9c0.1,3.5,0.1,8.4,0.1,14.5
		l1.3,0c0-6.2,0-11.1-0.1-14.6L24.7,14.9z M24.8,29.4l0,38.5l1.3,0l0-38.5L24.8,29.4z M24.8,67.9c0,6,0,10.8-0.1,14.2l1.3,0.1
		C26,78.7,26,73.9,26,67.9L24.8,67.9z M24.7,82c-0.1,3.4-0.3,6-0.6,7.6l1.2,0.4c0.3-1.8,0.5-4.5,0.6-7.9L24.7,82z M24.1,89.7
		c-0.3,1.7-0.7,2.7-1.1,3.2l0.8,1.3c0.7-0.8,1.2-2.3,1.5-4.1L24.1,89.7z M23,92.9c-0.5,0.6-1.2,1.2-2.1,1.6l0.5,1.6
		c1-0.5,1.8-1.2,2.4-1.9L23,92.9z M21.8,95.3l0-0.1l-1.3,0l0,0.1L21.8,95.3z M69.9,95.1l0-0.8l-0.6,0l0,0.8L69.9,95.1z M69.9,95.5
		l-0.6,0l0,0.8l0.6,0L69.9,95.5z M87.5,95.5l0,0.8l0.6,0l0-0.8L87.5,95.5z M87.5,95.1l0.6,0l0-0.6l-0.5-0.2L87.5,95.1z M85.2,93.6
		l-0.4,0.6L85.2,93.6z M83.9,90.1l0.6-0.2l0,0L83.9,90.1z M83.4,82.2l-0.6,0L83.4,82.2z M83.3,44.4l0.5-0.4l-1.2-2.6l0,3L83.3,44.4z
		 M101.8,85.1l0.5-0.4l0,0l0,0L101.8,85.1z M104.1,92.2l0.6-0.1l0,0L104.1,92.2z M102.1,95.4l-0.2-0.8l-0.4,0.2l0,0.6L102.1,95.4z
		 M102.1,95.6l-0.6,0l0,0.8l0.6,0L102.1,95.6z M118.7,95.6l0,0.8l0.6,0l0-0.8L118.7,95.6z M118.7,95.4l0.6,0l0-0.5l-0.3-0.2
		L118.7,95.4z M117.3,94.1l0.4-0.6L117.3,94.1z M116,92.2l0.5-0.5l0,0L116,92.2z M114.6,89.5l-0.5,0.4L114.6,89.5z M112.9,85.3
		l0.6-0.4l0,0l0,0L112.9,85.3z M90.5,34.9l-0.5-0.6l-0.3,0.5l0.2,0.5L90.5,34.9z M107.6,10.1l-0.5-0.6l0,0L107.6,10.1z M112.7,3.5
		l-0.4-0.7l0,0L112.7,3.5z M115.5,1.1l0.2,0.8l0.4-0.2l0-0.6L115.5,1.1z M115.5,0.9l0.6,0l0-0.8l-0.6,0L115.5,0.9z M106.5,0.9l0-0.8
		l-0.6,0l0,0.8L106.5,0.9z M106.5,1.1l-0.6,0l0,0.6l0.4,0.2L106.5,1.1z M108.7,2.5l-0.4,0.7l0,0L108.7,2.5z M109.2,4.7l-0.6-0.1l0,0
		L109.2,4.7z M105.1,12.7l-0.5-0.6l0,0L105.1,12.7z M83.5,44.1l-0.6,0l0,2.1l1.1-1.6L83.5,44.1z M84.1,6.4l-0.6-0.2l0,0L84.1,6.4z
		 M85.4,2.9l0.4,0.6L85.4,2.9z M87.7,1.4l0.2,0.8L88.3,2l0-0.6L87.7,1.4z M87.7,1l0.6,0l0-0.8l-0.6,0L87.7,1z M70.1,1l0-0.8l-0.6,0
		l0,0.8L70.1,1z M70.1,1.4l-0.6,0l0,0.6l0.4,0.2L70.1,1.4z M73.6,6.5L73,6.7l0,0L73.6,6.5z M74.2,14.5l0.6,0L74.2,14.5z M74.2,82.1
		l0.6,0L74.2,82.1z M73.6,90l0.6,0.2L73.6,90z M72.3,93.6L71.9,93L72.3,93.6z M70,95.1l0,0.8l0.1,0l0.1,0L70,95.1z M69.3,95.1l0,0.4
		l1.3,0l0-0.4L69.3,95.1z M69.9,96.3l17.6,0l0-1.7l-17.6,0L69.9,96.3z M88.1,95.5l0-0.4l-1.3,0l0,0.4L88.1,95.5z M87.7,94.3
		c-1-0.4-1.6-0.8-2.1-1.3l-0.8,1.3c0.7,0.7,1.5,1.3,2.6,1.7L87.7,94.3z M85.6,93c-0.4-0.4-0.7-1.3-1-3.1l-1.2,0.4
		c0.3,1.8,0.7,3.2,1.4,4L85.6,93z M84.6,89.9c-0.3-1.7-0.5-4.3-0.6-7.8l-1.3,0.1c0.1,3.5,0.3,6.2,0.6,8.1L84.6,89.9z M84,82.2
		c-0.1-3.5-0.1-8.4-0.1-14.5l-1.3,0c0,6.2,0,11.1,0.1,14.6L84,82.2z M83.9,67.6l0-23.2l-1.3,0l0,23.2L83.9,67.6z M82.7,44.8
		l18.5,40.7l1.1-0.9L83.8,43.9L82.7,44.8z M101.3,85.5c0.7,1.6,1.2,3,1.6,4.1c0.4,1.2,0.5,2,0.6,2.7l1.2-0.1c-0.1-0.9-0.3-2-0.7-3.2
		c-0.4-1.2-0.9-2.7-1.7-4.3L101.3,85.5z M103.4,92.3c0,0.6-0.1,1-0.3,1.3c-0.2,0.4-0.6,0.7-1.3,1l0.4,1.6c0.8-0.3,1.4-0.8,1.8-1.5
		c0.4-0.7,0.6-1.6,0.6-2.5L103.4,92.3z M101.5,95.4l0,0.3l1.3,0l0-0.3L101.5,95.4z M102.1,96.5l16.6,0l0-1.7l-16.6,0L102.1,96.5z
		 M119.4,95.6l0-0.3l-1.3,0l0,0.3L119.4,95.6z M119,94.6c-0.5-0.4-0.9-0.7-1.2-1.1l-0.9,1.2c0.4,0.6,1,1,1.6,1.4L119,94.6z
		 M117.8,93.5c-0.4-0.5-0.8-1.1-1.3-1.8l-1,1.1c0.5,0.8,1,1.4,1.4,1.9L117.8,93.5z M116.5,91.7c-0.4-0.7-0.9-1.6-1.3-2.6l-1.1,0.8
		c0.5,1.2,1,2.1,1.5,2.9L116.5,91.7z M115.1,89.1c-0.5-1.1-1-2.5-1.7-4.1l-1.1,0.8c0.7,1.6,1.2,3,1.7,4.2L115.1,89.1z M113.4,84.9
		L91.1,34.5L90,35.4l22.4,50.4L113.4,84.9z M91,35.5l17.1-24.9l-0.9-1.1L90.1,34.4L91,35.5z M108.1,10.6c2.2-3.1,3.8-5.2,5-6.4
		l-0.8-1.3c-1.3,1.3-3,3.5-5.2,6.6L108.1,10.6z M113.1,4.2c1.2-1.2,2.1-1.9,2.7-2.3l-0.5-1.5c-0.7,0.4-1.7,1.2-3,2.5L113.1,4.2z
		 M116.2,1.1l0-0.3l-1.3,0l0,0.3L116.2,1.1z M115.5,0l-9,0l0,1.7l9,0L115.5,0z M105.9,0.9l0,0.3l1.3,0l0-0.3L105.9,0.9z M106.3,1.9
		c0.9,0.4,1.6,0.8,2,1.2l0.8-1.3c-0.6-0.6-1.4-1.1-2.4-1.5L106.3,1.9z M108.3,3.2c0.3,0.3,0.4,0.7,0.3,1.4l1.2,0.2
		c0.1-1.1-0.1-2.2-0.8-2.9L108.3,3.2z M108.6,4.5c-0.1,0.7-0.4,1.7-1,2.9l1,1c0.7-1.3,1.1-2.6,1.2-3.6L108.6,4.5z M107.6,7.4
		c-0.6,1.2-1.6,2.8-3,4.7l0.9,1.1c1.3-1.9,2.4-3.6,3.1-4.9L107.6,7.4z M104.6,12.1L83,43.5l0.9,1.1l21.6-31.4L104.6,12.1z
		 M84.1,44.1l0-15.2l-1.3,0l0,15.2L84.1,44.1z M84.1,28.9c0-6.2,0-11,0.1-14.5l-1.3-0.1c-0.1,3.5-0.1,8.5-0.1,14.6L84.1,28.9z
		 M84.2,14.4c0.1-3.5,0.3-6.1,0.6-7.8l-1.2-0.4c-0.3,1.8-0.5,4.5-0.6,8.1L84.2,14.4z M84.7,6.6c0.3-1.7,0.6-2.6,1-3.1l-0.8-1.3
		c-0.7,0.8-1.1,2.2-1.4,4L84.7,6.6z M85.8,3.5c0.5-0.5,1.1-1,2.1-1.3l-0.3-1.6c-1.1,0.4-1.9,0.9-2.6,1.7L85.8,3.5z M88.3,1.4l0-0.4
		l-1.3,0l0,0.4L88.3,1.4z M87.7,0.2l-17.6,0l0,1.7l17.6,0L87.7,0.2z M69.5,1l0,0.4l1.3,0l0-0.4L69.5,1z M69.9,2.2
		c0.9,0.4,1.6,0.8,2,1.3l0.8-1.3c-0.6-0.7-1.5-1.3-2.5-1.7L69.9,2.2z M72,3.5c0.2,0.2,0.4,0.5,0.5,1.1c0.2,0.5,0.3,1.2,0.5,2.1
		l1.2-0.4c-0.1-0.9-0.3-1.7-0.5-2.4c-0.2-0.7-0.5-1.3-0.9-1.7L72,3.5z M73,6.7c0.3,1.7,0.5,4.3,0.6,7.8l1.3-0.1
		c-0.1-3.5-0.3-6.2-0.6-8.1L73,6.7z M73.5,14.5c0.1,3.5,0.1,8.4,0.1,14.5l1.3,0c0-6.2,0-11.1-0.1-14.6L73.5,14.5z M73.6,29l0,38.5
		l1.3,0l0-38.5L73.6,29z M73.6,67.5c0,6.2,0,11-0.1,14.5l1.3,0.1c0.1-3.5,0.1-8.5,0.1-14.6L73.6,67.5z M73.5,82
		c-0.1,3.5-0.3,6.1-0.6,7.8l1.2,0.4c0.3-1.8,0.5-4.5,0.6-8.1L73.5,82z M73,89.8c-0.3,1.7-0.7,2.7-1.1,3.2l0.8,1.3
		c0.7-0.8,1.2-2.3,1.5-4.1L73,89.8z M71.9,93c-0.5,0.5-1.2,1-2,1.3l0.4,1.6c1-0.4,1.8-0.9,2.5-1.7L71.9,93z M70,94.3L70,94.3
		L69.9,96l0.1,0L70,94.3z M136.1,95.1l0.6,0l-1.2-0.4L136.1,95.1z M136.1,95.5l-0.6,0l0,0.8l0.6,0L136.1,95.5z M174.8,94.3l0.6,0.2
		l0,0l0,0L174.8,94.3z M176.6,78.9l0.6,0.1l0.1-1l-0.7,0L176.6,78.9z M176.3,78.9l0-0.8l-0.5,0l-0.1,0.6L176.3,78.9z M173.8,87.2
		l0.5,0.4L173.8,87.2z M170.4,92.1l0.3,0.7L170.4,92.1z M165.9,94.4l-0.1-0.8L165.9,94.4z M149.6,95l-0.6,0l0,0.8l0.6,0L149.6,95z
		 M150.3,6.7l-0.6-0.2l0,0L150.3,6.7z M153.8,1.6l0.2,0.8l0.5-0.2l0-0.6L153.8,1.6z M153.8,1.3l0.6,0l0-0.8l-0.6,0L153.8,1.3z
		 M136.1,1.3l0-0.8l-0.6,0l0,0.8L136.1,1.3z M136.1,1.6l-0.6,0l0,0.6l0.4,0.2L136.1,1.6z M140.2,14.7l0.6,0L140.2,14.7z M140.2,82.3
		l0.6,0L140.2,82.3z M139.6,90.2l-0.6-0.2L139.6,90.2z M138.3,93.9l-0.4-0.6L138.3,93.9z M136.1,95.4l-0.6-0.4l-0.6,1.7l1.4-0.6
		L136.1,95.4z M135.5,95.1l0,0.4l1.3,0l0-0.4L135.5,95.1z M136.1,96.3l37.6,0l0-1.7l-37.6,0L136.1,96.3z M173.8,96.3
		c0.2,0,0.5,0,0.8-0.2l-0.6-1.5c0,0-0.1,0-0.3,0L173.8,96.3z M174.6,96.1c0.5-0.3,0.7-1,0.8-1.7l-1.2-0.3c0,0.2-0.1,0.4-0.1,0.5
		c0,0.1-0.1,0.1,0,0L174.6,96.1z M175.4,94.4l1.8-15.3l-1.2-0.3l-1.8,15.3L175.4,94.4z M176.6,78.1l-0.3,0l0,1.7l0.3,0L176.6,78.1z
		 M175.7,78.7c-0.7,3.4-1.6,6-2.5,8.1l1.1,0.8c1-2.2,1.8-5,2.6-8.5L175.7,78.7z M173.2,86.8c-0.9,2-2,3.6-3.2,4.6l0.7,1.4
		c1.4-1.2,2.6-3,3.6-5.2L173.2,86.8z M170,91.4c-1.2,1.1-2.7,1.8-4.3,2.1l0.2,1.7c1.8-0.4,3.4-1.2,4.8-2.4L170,91.4z M165.8,93.6
		c-1.7,0.4-3.6,0.6-5.8,0.6l0,1.7c2.3,0,4.3-0.3,6-0.6L165.8,93.6z M159.9,94.2l-10.3,0l0,1.7l10.3,0L159.9,94.2z M150.2,95l0-65.8
		l-1.3,0l0,65.8L150.2,95z M150.2,29.2c0-6.2,0-11,0.1-14.5l-1.3-0.1C149,18.1,149,23,149,29.2L150.2,29.2z M150.3,14.6
		c0.1-3.5,0.3-6.1,0.6-7.8l-1.2-0.4c-0.3,1.8-0.5,4.5-0.6,8.1L150.3,14.6z M150.9,6.8c0.3-1.7,0.6-2.6,1-3.1l-0.8-1.3
		c-0.7,0.8-1.1,2.2-1.4,4L150.9,6.8z M151.9,3.8c0.5-0.5,1.1-1,2.1-1.3l-0.3-1.6c-1.1,0.4-1.9,0.9-2.6,1.7L151.9,3.8z M154.5,1.6
		l0-0.4l-1.3,0l0,0.4L154.5,1.6z M153.8,0.4l-17.7,0l0,1.7l17.7,0L153.8,0.4z M135.5,1.3l0,0.4l1.3,0l0-0.4L135.5,1.3z M136,2.4
		c0.9,0.4,1.6,0.8,2,1.3l0.8-1.3c-0.6-0.7-1.5-1.3-2.5-1.7L136,2.4z M138,3.8c0.2,0.2,0.4,0.5,0.5,1.1c0.2,0.5,0.3,1.2,0.5,2.1
		l1.2-0.4c-0.1-0.9-0.3-1.7-0.5-2.4c-0.2-0.7-0.5-1.3-0.9-1.7L138,3.8z M139,7c0.3,1.7,0.5,4.3,0.6,7.8l1.3-0.1
		c-0.1-3.5-0.3-6.2-0.6-8.1L139,7z M139.6,14.7c0.1,3.5,0.1,8.4,0.1,14.5l1.3,0c0-6.2,0-11.1-0.1-14.6L139.6,14.7z M139.7,29.3
		l0,38.5l1.3,0l0-38.5L139.7,29.3z M139.7,67.7c0,6.2,0,11-0.1,14.5l1.3,0.1c0.1-3.5,0.1-8.5,0.1-14.6L139.7,67.7z M139.6,82.3
		c-0.1,3.5-0.3,6.1-0.6,7.8l1.2,0.4c0.3-1.8,0.5-4.5,0.6-8.1L139.6,82.3z M139,90.1c-0.3,1.7-0.7,2.7-1.1,3.2l0.8,1.3
		c0.7-0.8,1.2-2.3,1.5-4.1L139,90.1z M137.9,93.2c-0.5,0.5-1.2,1-2,1.3l0.4,1.6c1-0.4,1.8-0.9,2.5-1.7L137.9,93.2z M136.6,95.8
		l0.1-0.3l-1.1-0.7l-0.1,0.3L136.6,95.8z M178.4,95.1l0.6,0l-1.2-0.4L178.4,95.1z M178.4,95.5l-0.6,0l0,0.8l0.6,0L178.4,95.5z
		 M196,95.5l0,0.8l0.6,0l0-0.8L196,95.5z M196,95.1l0.6,0l0-0.6l-0.5-0.2L196,95.1z M193.6,93.6l-0.4,0.6L193.6,93.6z M192.4,90.1
		l0.6-0.2l0,0L192.4,90.1z M191.8,82.2l-0.6,0L191.8,82.2z M191.8,14.6l-0.6,0L191.8,14.6z M192.4,6.7l0.6,0.2l0,0L192.4,6.7z
		 M196,1.6l0.2,0.8l0.5-0.2l0-0.6L196,1.6z M196,1.3l0.6,0l0-0.8l-0.6,0L196,1.3z M178.4,1.3l0-0.8l-0.6,0l0,0.8L178.4,1.3z
		 M178.4,1.6l-0.6,0l0,0.6l0.4,0.2L178.4,1.6z M182.4,14.7l0.6,0L182.4,14.7z M182.4,82.3l0.6,0L182.4,82.3z M181.9,90.2l-0.6-0.2
		L181.9,90.2z M180.6,93.9l-0.4-0.6L180.6,93.9z M178.3,95.4l-0.6-0.4l-0.6,1.7l1.4-0.6L178.3,95.4z M177.8,95.1l0,0.4l1.3,0l0-0.4
		L177.8,95.1z M178.4,96.3l17.6,0l0-1.7l-17.6,0L178.4,96.3z M196.6,95.5l0-0.4l-1.3,0l0,0.4L196.6,95.5z M196.2,94.3
		c-1-0.4-1.6-0.8-2.1-1.3l-0.8,1.3c0.7,0.7,1.5,1.3,2.6,1.7L196.2,94.3z M194,93c-0.4-0.4-0.7-1.3-1-3.1l-1.2,0.4
		c0.3,1.8,0.7,3.2,1.4,4L194,93z M193,89.9c-0.3-1.7-0.5-4.3-0.6-7.8l-1.3,0.1c0.1,3.5,0.3,6.2,0.6,8.1L193,89.9z M192.5,82.2
		c-0.1-3.5-0.1-8.4-0.1-14.5l-1.3,0c0,6.2,0,11.1,0.1,14.6L192.5,82.2z M192.4,67.6l0-38.5l-1.3,0l0,38.5L192.4,67.6z M192.4,29.2
		c0-6.2,0-11,0.1-14.5l-1.3-0.1c-0.1,3.5-0.1,8.5-0.1,14.6L192.4,29.2z M192.5,14.6c0.1-3.5,0.3-6.1,0.6-7.8l-1.2-0.4
		c-0.3,1.8-0.5,4.5-0.6,8.1L192.5,14.6z M193,6.8c0.3-1.7,0.6-2.6,1-3.1l-0.8-1.3c-0.7,0.8-1.1,2.2-1.4,4L193,6.8z M194,3.8
		c0.5-0.5,1.1-1,2.1-1.3l-0.3-1.6c-1.1,0.4-1.9,0.9-2.6,1.7L194,3.8z M196.6,1.6l0-0.4l-1.3,0l0,0.4L196.6,1.6z M196,0.4l-17.6,0
		l0,1.7l17.6,0L196,0.4z M177.8,1.3l0,0.4l1.3,0l0-0.4L177.8,1.3z M178.2,2.4c0.9,0.4,1.6,0.8,2,1.3l0.8-1.3
		c-0.6-0.7-1.5-1.3-2.5-1.7L178.2,2.4z M180.3,3.8c0.2,0.2,0.4,0.5,0.5,1.1c0.2,0.5,0.3,1.2,0.5,2.1l1.2-0.4
		c-0.1-0.9-0.3-1.7-0.5-2.4c-0.2-0.7-0.5-1.3-0.9-1.7L180.3,3.8z M181.3,7c0.3,1.7,0.5,4.3,0.6,7.8l1.3-0.1
		c-0.1-3.5-0.3-6.2-0.6-8.1L181.3,7z M181.8,14.7c0.1,3.5,0.1,8.4,0.1,14.5l1.3,0c0-6.2,0-11.1-0.1-14.6L181.8,14.7z M181.9,29.3
		l0,38.5l1.3,0l0-38.5L181.9,29.3z M181.9,67.7c0,6.2,0,11-0.1,14.5l1.3,0.1c0.1-3.5,0.1-8.5,0.1-14.6L181.9,67.7z M181.8,82.3
		c-0.1,3.5-0.3,6.1-0.6,7.8l1.2,0.4c0.3-1.8,0.5-4.5,0.6-8.1L181.8,82.3z M181.3,90.1c-0.3,1.7-0.7,2.7-1.1,3.2l0.8,1.3
		c0.7-0.8,1.2-2.3,1.5-4.1L181.3,90.1z M180.2,93.2c-0.5,0.5-1.2,1-2,1.3l0.4,1.6c1-0.4,1.8-0.9,2.5-1.7L180.2,93.2z M178.9,95.8
		l0.1-0.3l-1.1-0.7l-0.1,0.3L178.9,95.8z M198.2,95.5l-0.6,0l0,0.8l0.6,0L198.2,95.5z M207,95.5l0,0.8l0.6,0l0-0.8L207,95.5z
		 M207,95.1l0.6,0l0-0.6l-0.4-0.2L207,95.1z M204.6,93.4l0.4-0.6L204.6,93.4z M203.4,89.7l0.6-0.2L203.4,89.7z M202.8,81.9l0.6,0
		L202.8,81.9z M202.8,4l0.6-0.4L202.1,4L202.8,4z M239.7,96l-0.6,0.4l0.2,0.4l0.4,0L239.7,96z M241,96l0,0.8l0.6,0l0-0.8L241,96z
		 M241.1,15.1l0.6,0L241.1,15.1z M241.7,7.3l0.6,0.2l0,0L241.7,7.3z M242.9,3.6l0.4,0.6l0,0L242.9,3.6z M245.2,1.9l0.2,0.8l0.4-0.2
		l0-0.6L245.2,1.9z M245.2,1.5l0.6,0l0-0.8l-0.6,0L245.2,1.5z M236.4,1.5l0-0.8l-0.6,0l0,0.8L236.4,1.5z M236.4,1.9l-0.6,0l0,0.6
		l0.4,0.2L236.4,1.9z M238.8,3.6l-0.4,0.6l0,0L238.8,3.6z M240,7.3l0.6-0.2l0,0L240,7.3z M240.6,15.1l-0.6,0L240.6,15.1z
		 M240.7,71.3l-0.6,0.4l1.2-0.4L240.7,71.3z M213.7,4.5l0.6-0.4l0,0L213.7,4.5z M212.3,1.9l0.4-0.6l0,0L212.3,1.9z M198.3,1.4l0-0.8
		l-0.6,0l0,0.8L198.3,1.4z M198.3,1.8l-0.6,0l0,0.6l0.4,0.2L198.3,1.8z M200.6,3.3l-0.4,0.6L200.6,3.3z M201.8,6.9l-0.6,0.2
		L201.8,6.9z M202.4,14.8l-0.6,0L202.4,14.8z M202.4,82.1l-0.6,0L202.4,82.1z M201.8,89.9l-0.6-0.2L201.8,89.9z M200.5,93.5l0.4,0.6
		L200.5,93.5z M198.2,95.3l-0.6,0l0,1.2l0.9-0.5L198.2,95.3z M197.6,95.1l0,0.4l1.3,0l0-0.4L197.6,95.1z M198.2,96.3l8.7,0l0-1.7
		l-8.7,0L198.2,96.3z M207.6,95.5l0-0.4l-1.3,0l0,0.4L207.6,95.5z M207.2,94.3c-1-0.5-1.7-1-2.2-1.6l-0.8,1.3
		c0.6,0.7,1.4,1.4,2.5,1.9L207.2,94.3z M205,92.7c-0.2-0.2-0.4-0.5-0.5-1.1c-0.2-0.5-0.3-1.2-0.5-2.1l-1.2,0.4
		c0.1,0.9,0.3,1.7,0.5,2.4c0.2,0.7,0.5,1.3,0.9,1.7L205,92.7z M204,89.6c-0.3-1.7-0.5-4.3-0.6-7.6l-1.3,0.1c0.1,3.4,0.3,6.1,0.6,7.9
		L204,89.6z M203.5,81.9c-0.1-3.4-0.1-8.1-0.1-14.2l-1.3,0c0,6,0,10.8,0.1,14.2L203.5,81.9z M203.4,67.7l0-63.7l-1.3,0l0,63.7
		L203.4,67.7z M202.2,4.4l37,92l1.1-0.8l-37-92L202.2,4.4z M239.7,96.9h1.3l0-1.7l-1.3,0L239.7,96.9z M241.7,96l0-66.7l-1.3,0
		l0,66.7L241.7,96z M241.7,29.3c0-6,0-10.8,0.1-14.2l-1.3-0.1c-0.1,3.4-0.1,8.2-0.1,14.2L241.7,29.3z M241.8,15.1
		c0.1-3.4,0.3-6,0.6-7.6l-1.2-0.4c-0.3,1.8-0.5,4.5-0.6,7.9L241.8,15.1z M242.3,7.5c0.1-0.9,0.3-1.5,0.5-2.1
		c0.2-0.5,0.4-0.9,0.5-1.1L242.5,3c-0.4,0.4-0.7,1-0.9,1.7c-0.2,0.7-0.4,1.5-0.5,2.4L242.3,7.5z M243.3,4.3c0.5-0.6,1.2-1.2,2.1-1.6
		l-0.5-1.6c-1,0.5-1.8,1.2-2.4,1.9L243.3,4.3z M245.8,1.9l0-0.4l-1.3,0l0,0.4L245.8,1.9z M245.2,0.7l-8.7,0l0,1.7l8.7,0L245.2,0.7z
		 M235.8,1.5l0,0.4l1.3,0l0-0.4L235.8,1.5z M236.2,2.7c1,0.5,1.7,1,2.2,1.6l0.8-1.3c-0.6-0.7-1.4-1.4-2.5-1.9L236.2,2.7z M238.4,4.3
		c0.2,0.2,0.4,0.5,0.5,1.1c0.2,0.5,0.3,1.2,0.5,2.1l1.2-0.4c-0.1-0.9-0.3-1.7-0.5-2.4c-0.2-0.7-0.5-1.3-0.9-1.7L238.4,4.3z
		 M239.4,7.5c0.3,1.7,0.5,4.3,0.6,7.6l1.3-0.1c-0.1-3.4-0.3-6.1-0.6-7.9L239.4,7.5z M239.9,15.1c0.1,3.4,0.1,8.1,0.1,14.2l1.3,0
		c0-6,0-10.8-0.1-14.2L239.9,15.1z M240,29.3l0,42l1.3,0l0-42L240,29.3z M241.2,70.9l-27-66.7l-1.1,0.8l27,66.7L241.2,70.9z
		 M214.2,4.1c-0.6-1.4-1.1-2.4-1.4-2.8l-0.9,1.2c0.2,0.3,0.7,1.1,1.2,2.4L214.2,4.1z M212.8,1.3c-0.5-0.6-1.2-0.7-1.9-0.7l0,1.7
		c0.6,0,0.9,0.1,1,0.3L212.8,1.3z M210.9,0.5l-12.6,0l0,1.7l12.6,0L210.9,0.5z M197.7,1.4l0,0.4l1.3,0l0-0.4L197.7,1.4z M198.2,2.6
		c0.9,0.4,1.6,0.8,2,1.3l0.8-1.3c-0.6-0.7-1.5-1.3-2.5-1.7L198.2,2.6z M200.2,3.9c0.2,0.2,0.4,0.5,0.5,1.1c0.2,0.5,0.3,1.2,0.5,2.1
		l1.2-0.4c-0.1-0.9-0.3-1.7-0.5-2.4c-0.2-0.7-0.5-1.3-0.9-1.7L200.2,3.9z M201.2,7.1c0.3,1.7,0.5,4.3,0.6,7.8l1.3-0.1
		c-0.1-3.5-0.3-6.2-0.6-8.1L201.2,7.1z M201.8,14.9c0.1,3.5,0.1,8.4,0.1,14.5l1.3,0c0-6.2,0-11.1-0.1-14.6L201.8,14.9z M201.8,29.4
		l0,38.5l1.3,0l0-38.5L201.8,29.4z M201.8,67.9c0,6,0,10.8-0.1,14.2l1.3,0.1c0.1-3.4,0.1-8.2,0.1-14.2L201.8,67.9z M201.8,82
		c-0.1,3.4-0.3,6-0.6,7.6l1.2,0.4c0.3-1.8,0.5-4.5,0.6-7.9L201.8,82z M201.2,89.7c-0.3,1.7-0.7,2.7-1.1,3.2l0.8,1.3
		c0.7-0.8,1.2-2.3,1.5-4.1L201.2,89.7z M200.1,92.9c-0.5,0.6-1.2,1.2-2.1,1.6l0.5,1.6c1-0.5,1.8-1.2,2.4-1.9L200.1,92.9z
		 M198.9,95.3l0-0.1l-1.3,0l0,0.1L198.9,95.3z M274.9,96.5l0-0.8l-0.2,0l-0.2,0.2L274.9,96.5z M281.7,95.3l-0.2-0.8L281.7,95.3z
		 M294.6,83.1l0.5,0.5l0.1-0.2l0-0.3L294.6,83.1z M294.7,64l0.6,0L294.7,64z M295.3,58.3l0.6,0.2l0,0L295.3,58.3z M296.6,55.7
		l0.3,0.7l0,0L296.6,55.7z M298.9,54.4l0.2,0.8l0.5-0.2l0-0.6L298.9,54.4z M298.9,54l0.6,0l0-0.8l-0.6,0L298.9,54z M281.5,54l0-0.8
		l-0.6,0l0,0.8L281.5,54z M281.5,54.4l-0.6,0l0,0.6l0.4,0.2L281.5,54.4z M283.8,55.7l-0.3,0.7l0,0L283.8,55.7z M285.1,58.3l-0.6,0.2
		L285.1,58.3z M285.7,63.6l-0.6,0L285.7,63.6z M285.3,84.8l0.6,0.1L285.3,84.8z M283.6,91.5l0.5,0.5L283.6,91.5z M280.2,95.3
		l-0.2-0.8L280.2,95.3z M262.5,84.8l-0.6,0.4L262.5,84.8z M259.1,69.4l-0.6,0.1L259.1,69.4z M262.7,11.2l0.5,0.4L262.7,11.2z
		 M268.1,3.6l0.3,0.7l0,0L268.1,3.6z M280.5,2.5l-0.2,0.8l0,0L280.5,2.5z M285.3,6.2l0.4-0.6L285.3,6.2z M289,12.6l-0.6,0.4
		L289,12.6z M291.2,22l-0.6,0.1l0.1,0.7l0.5,0L291.2,22z M291.5,22l0,0.8l0.6,0l0-0.8L291.5,22z M291.5,2.3l0.6,0l0-0.8l-0.6,0
		L291.5,2.3z M291.2,2.3l0-0.8l-0.5,0L290.6,2L291.2,2.3z M286.1,4.9l0.3-0.8l0,0L286.1,4.9z M283.3,3.4l0.2-0.8l0,0L283.3,3.4z
		 M279.7,1.9l0.2-0.8L279.7,1.9z M265,3.9l-0.3-0.8L265,3.9z M250.1,27.3l-0.6-0.3L250.1,27.3z M249.6,68.7l0.6-0.2L249.6,68.7z
		 M254.9,84.1l-0.5,0.5L254.9,84.1z M263.3,93.8l-0.3,0.7L263.3,93.8z M274.3,97.1l0,0.8l0.2,0l0.2-0.2L274.3,97.1z M274.9,97.4
		c2.5,0,4.8-0.4,7-1.3l-0.4-1.6c-2,0.8-4.2,1.2-6.6,1.2L274.9,97.4z M281.9,96.1c2.1-0.9,4-1.9,5.8-3.2l-0.6-1.5
		c-1.6,1.2-3.5,2.2-5.5,3.1L281.9,96.1z M287.7,92.9c1.8-1.3,3.2-2.9,4.5-4.5l-0.9-1.2c-1.2,1.6-2.6,3-4.2,4.3L287.7,92.9z
		 M292.1,88.3c1.2-1.7,2.2-3.2,3-4.8l-1-0.9c-0.7,1.5-1.6,2.9-2.8,4.5L292.1,88.3z M295.2,83.1l0-8.9l-1.3,0l0,8.9L295.2,83.1z
		 M295.2,74.1c0-4.3,0-7.6,0.1-10.1l-1.3-0.1c-0.1,2.5-0.1,6-0.1,10.2L295.2,74.1z M295.3,64c0.1-2.5,0.3-4.3,0.5-5.5l-1.2-0.5
		c-0.3,1.4-0.5,3.3-0.6,5.9L295.3,64z M295.9,58.6c0.3-1.1,0.6-1.8,1.1-2.2l-0.7-1.4c-0.7,0.6-1.3,1.7-1.6,3.1L295.9,58.6z
		 M296.9,56.4c0.5-0.4,1.1-0.8,2.2-1.1l-0.3-1.6c-1.1,0.4-1.9,0.8-2.5,1.4L296.9,56.4z M299.6,54.4l0-0.4l-1.3,0l0,0.4L299.6,54.4z
		 M298.9,53.2l-17.4,0l0,1.7l17.4,0L298.9,53.2z M280.9,54l0,0.4l1.3,0l0-0.4L280.9,54z M281.3,55.2c0.9,0.4,1.6,0.7,2.1,1.2
		l0.7-1.4c-0.6-0.6-1.5-1-2.4-1.4L281.3,55.2z M283.4,56.4c0.4,0.4,0.8,1.1,1.1,2.2l1.2-0.5c-0.3-1.4-0.9-2.5-1.6-3.1L283.4,56.4z
		 M284.5,58.6c0.3,1.2,0.4,2.8,0.5,5.1l1.3-0.1c-0.1-2.3-0.3-4.1-0.6-5.5L284.5,58.6z M285,63.6c0.1,2.2,0.1,5.2,0.1,9.1l1.3,0
		c0-3.9,0-6.9-0.1-9.2L285,63.6z M285.1,72.8l0,2.3l1.3,0l0-2.3L285.1,72.8z M285.1,75c0,3.9-0.2,7.1-0.5,9.7l1.2,0.2
		c0.3-2.7,0.5-6,0.5-9.9L285.1,75z M284.7,84.7c-0.3,2.6-0.8,4.7-1.6,6.3l1.1,0.9c0.9-1.9,1.5-4.3,1.8-7L284.7,84.7z M283.1,91
		c-0.8,1.6-1.8,2.8-3.1,3.4l0.5,1.6c1.5-0.8,2.8-2.2,3.7-4.1L283.1,91z M280,94.5c-1.3,0.7-3.1,1.1-5.3,1.1l0,1.7
		c2.3,0,4.3-0.4,5.8-1.2L280,94.5z M274.7,95.6c-2.3,0-4.5-0.8-6.4-2.6l-0.7,1.4c2.2,2,4.6,2.9,7.1,2.9L274.7,95.6z M268.2,92.9
		c-2-1.8-3.7-4.5-5.2-8.5l-1.1,0.7c1.5,4.1,3.4,7.1,5.6,9.1L268.2,92.9z M263.1,84.5c-1.5-3.9-2.6-9-3.3-15.2l-1.2,0.3
		c0.8,6.3,1.9,11.6,3.4,15.7L263.1,84.5z M259.8,69.2c-0.7-6.2-1.1-13.7-1.1-22.6l-1.3,0c0,9,0.4,16.5,1.1,22.9L259.8,69.2z
		 M258.6,46.6c0-8.5,0.4-15.6,1.2-21.3l-1.2-0.3c-0.9,5.9-1.2,13.1-1.2,21.6L258.6,46.6z M259.9,25.3c0.8-5.7,2-10.3,3.4-13.7
		l-1.1-0.8c-1.6,3.6-2.7,8.4-3.6,14.2L259.9,25.3z M263.3,11.6c1.5-3.4,3.2-5.8,5.1-7.2l-0.6-1.5c-2.2,1.6-4.1,4.2-5.6,7.9
		L263.3,11.6z M268.4,4.4c2-1.4,4.1-2.2,6.5-2.2l0-1.7c-2.5,0-4.9,0.8-7.1,2.4L268.4,4.4z M274.9,2.2c1.9,0,3.7,0.4,5.5,1.1l0.4-1.6
		c-1.9-0.8-3.8-1.2-5.8-1.2L274.9,2.2z M280.3,3.3c1.7,0.7,3.2,1.9,4.6,3.5l0.8-1.3c-1.5-1.7-3.1-3-5-3.8L280.3,3.3z M284.9,6.8
		c1.3,1.6,2.5,3.6,3.5,6.2l1.1-0.8c-1.1-2.7-2.3-4.9-3.8-6.7L284.9,6.8z M288.4,13c1,2.5,1.7,5.6,2.2,9.2l1.2-0.3
		c-0.5-3.7-1.2-6.9-2.3-9.7L288.4,13z M291.2,22.8l0.3,0l0-1.7l-0.3,0L291.2,22.8z M292.1,22l0-19.7l-1.3,0l0,19.7L292.1,22z
		 M291.5,1.4l-0.3,0l0,1.7l0.3,0L291.5,1.4z M290.6,2c-0.2,1.1-0.5,1.8-0.8,2.2c-0.3,0.4-0.6,0.6-1,0.6l0,1.7c0.7,0,1.4-0.4,1.9-1.1
		c0.5-0.7,0.9-1.7,1.1-2.9L290.6,2z M288.8,4.8c-0.8,0-1.6-0.2-2.4-0.7l-0.5,1.5c0.9,0.5,1.9,0.8,2.9,0.8L288.8,4.8z M286.4,4.1
		c-0.9-0.5-1.8-1-2.9-1.5l-0.4,1.6c1,0.5,2,1,2.8,1.5L286.4,4.1z M283.5,2.6c-1.1-0.5-2.3-1-3.6-1.5l-0.3,1.6c1.3,0.5,2.5,1,3.5,1.5
		L283.5,2.6z M279.9,1.1c-1.4-0.5-3.1-0.8-5.2-0.8l0,1.7c1.9,0,3.6,0.2,4.8,0.7L279.9,1.1z M274.8,0.3c-3.4,0-6.8,0.9-10,2.8
		l0.5,1.5c3.1-1.8,6.3-2.7,9.5-2.7L274.8,0.3z M264.7,3.1c-3.3,1.9-6.3,4.9-8.9,8.9l0.9,1.1c2.5-3.8,5.3-6.6,8.4-8.5L264.7,3.1z
		 M255.8,12c-2.6,4-4.7,9-6.3,15l1.2,0.6c1.6-5.8,3.6-10.6,6.1-14.4L255.8,12z M249.5,27c-1.6,6-2.4,13.2-2.4,21.4l1.3,0
		c0-8.1,0.7-15,2.3-20.8L249.5,27z M247.1,48.4c0,7.6,0.7,14.5,1.9,20.6l1.2-0.4c-1.2-6-1.9-12.7-1.9-20.1L247.1,48.4z M249,69
		c1.2,6.1,3.1,11.4,5.4,15.6l1-1c-2.2-4.1-4-9.1-5.2-15.1L249,69z M254.4,84.6c2.3,4.2,5.2,7.6,8.6,9.9l0.6-1.5
		c-3.2-2.2-5.9-5.4-8.2-9.4L254.4,84.6z M263,94.5c3.4,2.3,7.2,3.5,11.3,3.5l0-1.7c-4,0-7.5-1.1-10.7-3.3L263,94.5z M274.7,97.8
		l0.7-0.6l-0.7-1.4l-0.7,0.6L274.7,97.8z M300.6,95.1l0.6,0l0-1.2l-0.8,0.4L300.6,95.1z M300.6,95.5l-0.6,0l0,0.8l0.6,0L300.6,95.5z
		 M341.4,94.3l0.6,0.2l0,0l0,0L341.4,94.3z M342.5,80.9l0.6,0.1l0.1-0.9l-0.7,0L342.5,80.9z M342.1,80.9l0-0.8l-0.5,0l-0.1,0.6
		L342.1,80.9z M336.8,92.7l-0.3-0.7L336.8,92.7z M332.2,94.6l0.1,0.8L332.2,94.6z M313.9,95l-0.6,0l0,0.8l0.6,0L313.9,95z
		 M313.9,44.1l0-0.8l-0.6,0l0,0.8L313.9,44.1z M326.1,47.3l-0.5,0.5l0,0L326.1,47.3z M327.4,50.3L328,50L327.4,50.3z M328,53.7
		l-0.6,0.2l0.1,0.7l0.5,0L328,53.7z M328.2,53.7l0,0.8l0.6,0l0-0.8L328.2,53.7z M328.2,33.7l0.6,0l0-0.8l-0.6,0L328.2,33.7z
		 M328,33.7l0-0.8l-0.5,0l-0.1,0.7L328,33.7z M327.4,37.1l0.6,0.3L327.4,37.1z M326.1,40.1l-0.5-0.5L326.1,40.1z M323.7,42.4
		l0.3,0.8L323.7,42.4z M313.9,43.2l-0.6,0l0,0.8l0.6,0L313.9,43.2z M313.9,1.4l0-0.8l-0.6,0l0,0.8L313.9,1.4z M330.3,2l-0.1,0.8
		L330.3,2z M334.6,4l-0.3,0.7L334.6,4z M337.7,7.9l-0.5,0.5l0,0L337.7,7.9z M339.8,14.1l-0.6,0.2l0.1,0.6l0.5,0L339.8,14.1z
		 M340.2,14.1l0,0.8l0.7,0l-0.1-1L340.2,14.1z M338.7,2.9L338,3l0,0l0,0L338.7,2.9z M338.2,1.4l-0.3,0.7l0,0L338.2,1.4z M300.4,1.1
		l0-0.8l-0.6,0l0,0.8L300.4,1.1z M300.4,1.5l-0.6,0l0,0.6l0.4,0.2L300.4,1.5z M302.6,3l0.4-0.6l0,0L302.6,3z M304.4,14.6l0.6,0
		L304.4,14.6z M304.4,82.2l0.6,0L304.4,82.2z M303.9,90.1l0.6,0.2L303.9,90.1z M302.5,93.8l-0.4-0.6L302.5,93.8z M300.3,95.3
		l-0.2-0.8l0.4,1.6L300.3,95.3z M299.9,95.1l0,0.4l1.3,0l0-0.4L299.9,95.1z M300.6,96.3l39.9,0l0-1.7l-39.9,0L300.6,96.3z
		 M340.4,96.3c0.2,0,0.5,0,0.8-0.2l-0.6-1.5c0,0-0.1,0-0.3,0L340.4,96.3z M341.3,96.1c0.3-0.2,0.4-0.5,0.5-0.8
		c0.1-0.3,0.1-0.6,0.2-0.9l-1.2-0.3c0,0.3-0.1,0.5-0.1,0.6c0,0.1,0,0,0.1,0L341.3,96.1z M342,94.3l1.1-13.3l-1.2-0.2l-1.1,13.3
		L342,94.3z M342.5,80.1l-0.4,0l0,1.7l0.4,0L342.5,80.1z M341.5,80.7c-0.6,3.1-1.3,5.5-2.1,7.3l1.1,0.9c0.9-2,1.7-4.6,2.2-7.8
		L341.5,80.7z M339.4,88c-0.8,1.8-1.8,3-3,4l0.6,1.5c1.4-1.1,2.5-2.6,3.4-4.6L339.4,88z M336.5,92c-1.2,0.9-2.7,1.5-4.4,1.8l0.1,1.7
		c1.9-0.3,3.5-0.9,4.9-2L336.5,92z M332.1,93.8c-1.8,0.2-3.9,0.4-6.3,0.4l0,1.7c2.5,0,4.6-0.1,6.5-0.4L332.1,93.8z M325.8,94.2
		l-11.9,0l0,1.7l11.9,0L325.8,94.2z M314.5,95l0-50.9l-1.3,0l0,50.9L314.5,95z M313.9,45l5.5,0l0-1.7l-5.5,0L313.9,45z M319.5,45
		c1.8,0,3.1,0.3,4,0.8l0.5-1.5c-1.2-0.7-2.7-1-4.5-1L319.5,45z M323.4,45.8c1,0.6,1.7,1.3,2.2,2l1-1.1c-0.6-1-1.6-1.8-2.7-2.5
		L323.4,45.8z M325.7,47.8c0.5,0.8,0.8,1.7,1.1,2.7L328,50c-0.3-1.2-0.7-2.3-1.3-3.3L325.7,47.8z M326.8,50.5
		c0.3,1.1,0.5,2.2,0.6,3.3l1.2-0.4c-0.2-1.1-0.4-2.3-0.7-3.5L326.8,50.5z M328,54.5l0.2,0l0-1.7l-0.2,0L328,54.5z M328.8,53.7l0-20
		l-1.3,0l0,20L328.8,53.7z M328.2,32.8l-0.2,0l0,1.7l0.2,0L328.2,32.8z M327.4,33.5c-0.2,1.1-0.4,2.2-0.6,3.3l1.2,0.5
		c0.3-1.2,0.5-2.4,0.7-3.5L327.4,33.5z M326.8,36.8c-0.3,1.1-0.6,2-1.1,2.7l1,1.1c0.6-1,1-2.1,1.3-3.3L326.8,36.8z M325.7,39.5
		c-0.5,0.8-1.2,1.4-2.2,2l0.5,1.5c1.1-0.7,2-1.5,2.7-2.5L325.7,39.5z M323.4,41.6c-0.9,0.6-2.2,0.8-4,0.8l0,1.7c1.8,0,3.3-0.3,4.5-1
		L323.4,41.6z M319.5,42.4l-5.5,0l0,1.7l5.5,0L319.5,42.4z M314.5,43.2l0-41.8l-1.3,0l0,41.8L314.5,43.2z M313.9,2.2l10.4,0l0-1.7
		l-10.4,0L313.9,2.2z M324.4,2.2c2.2,0,4.2,0.2,5.8,0.6l0.2-1.7c-1.7-0.4-3.7-0.6-6-0.6L324.4,2.2z M330.2,2.8c1.6,0.4,3,1,4.1,1.9
		l0.7-1.4c-1.3-1.1-2.8-1.7-4.6-2.1L330.2,2.8z M334.3,4.7c1.2,0.9,2.1,2.1,2.9,3.7l1-1c-0.9-1.7-2-3.1-3.3-4.1L334.3,4.7z
		 M337.2,8.4c0.8,1.5,1.4,3.5,2,5.9l1.2-0.5c-0.6-2.6-1.3-4.7-2.2-6.4L337.2,8.4z M339.8,14.9l0.4,0l0-1.7l-0.4,0L339.8,14.9z
		 M340.8,13.9l-1.5-11.2L338,3l1.5,11.2L340.8,13.9z M339.3,2.8c-0.1-0.5-0.1-0.9-0.2-1.3c-0.1-0.3-0.3-0.7-0.6-0.9l-0.6,1.5
		c-0.1,0-0.1-0.1-0.1-0.1c0,0,0,0,0.1,0.1c0.1,0.2,0.1,0.4,0.2,0.8L339.3,2.8z M338.5,0.6c-0.2-0.2-0.6-0.3-1-0.3l0,1.7
		c0.2,0,0.3,0.1,0.5,0.2L338.5,0.6z M337.4,0.3l-37.1,0l0,1.7l37.1,0L337.4,0.3z M299.7,1.1l0,0.4l1.3,0l0-0.4L299.7,1.1z
		 M300.2,2.3c0.9,0.4,1.6,0.8,2,1.3l0.8-1.3c-0.6-0.7-1.5-1.3-2.5-1.7L300.2,2.3z M302.2,3.7c0.2,0.2,0.4,0.5,0.5,1.1
		c0.2,0.5,0.3,1.2,0.5,2.1l1.2-0.4c-0.1-0.9-0.3-1.7-0.5-2.4c-0.2-0.7-0.5-1.3-0.9-1.7L302.2,3.7z M303.2,6.8
		c0.3,1.7,0.5,4.3,0.6,7.8l1.3-0.1c-0.1-3.5-0.3-6.2-0.6-8.1L303.2,6.8z M303.8,14.6c0.1,3.5,0.1,8.4,0.1,14.5l1.3,0
		c0-6.2,0-11.1-0.1-14.6L303.8,14.6z M303.9,29.2l0,38.5l1.3,0l0-38.5L303.9,29.2z M303.9,67.6c0,6.2,0,11-0.1,14.5l1.3,0.1
		c0.1-3.5,0.1-8.5,0.1-14.6L303.9,67.6z M303.8,82.2c-0.1,3.5-0.3,6.1-0.6,7.8l1.2,0.4c0.3-1.8,0.5-4.5,0.6-8.1L303.8,82.2z
		 M303.2,89.9c-0.3,1.7-0.7,2.7-1.1,3.2l0.8,1.3c0.7-0.8,1.2-2.3,1.5-4.1L303.2,89.9z M302.1,93.1c-0.5,0.5-1.2,1-2,1.3l0.4,1.6
		c1-0.4,1.8-0.9,2.5-1.7L302.1,93.1z M300.5,96.1l0.3-0.1l-0.4-1.6l-0.3,0.1L300.5,96.1z M344.5,95.5l-0.6,0l0,0.8l0.6,0L344.5,95.5
		z M362.1,95.5l0,0.8l0.6,0l0-0.8L362.1,95.5z M362.1,95.1l0.6,0l0-0.6l-0.5-0.2L362.1,95.1z M359.8,93.6l-0.4,0.6L359.8,93.6z
		 M358.6,90.1l-0.6,0.2L358.6,90.1z M358,82.2l0.6,0L358,82.2z M357.9,48.3l0-0.8l-0.6,0l0,0.8L357.9,48.3z M364.7,48.9l0.2-0.8
		L364.7,48.9z M367.3,51.9l0.5-0.4L367.3,51.9z M369.3,59.4l0.6-0.2L369.3,59.4z M371.4,73.6l-0.6,0.2l0,0L371.4,73.6z M373.7,85.2
		l-0.6,0.3L373.7,85.2z M376.9,92.2l0.4-0.6l0,0L376.9,92.2z M381.1,95.6l-0.2,0.8L381.1,95.6z M391.3,95.3l0.3,0.7L391.3,95.3z
		 M394.1,92.4l0.5,0.6l0.4-0.6l-0.4-0.6L394.1,92.4z M393.8,92l0.4-0.6l-0.5-0.6l-0.4,0.7L393.8,92z M392.1,94l-0.3-0.7L392.1,94z
		 M386.6,93.6l-0.3,0.7L386.6,93.6z M384.3,89.9l-0.6,0.4L384.3,89.9z M382.5,82.9l-0.6,0.2L382.5,82.9z M380.8,72.4l-0.6,0.1l0,0
		L380.8,72.4z M378.5,61.5l0.6-0.3L378.5,61.5z M375.1,54.3l0.5-0.6L375.1,54.3z M370.6,50.1l0.2-0.8L370.6,50.1z M365,48.5l0-0.8
		l-0.1,1.7L365,48.5z M366.8,48.6l0,0.8l0,0l0,0L366.8,48.6z M375.4,47.1l-0.2-0.8L375.4,47.1z M382.6,42.6l-0.4-0.7L382.6,42.6z
		 M387.4,34.9l-0.6-0.4L387.4,34.9z M383.1,6.9l-0.3,0.7L383.1,6.9z M344.6,1.6l0-0.8l-0.6,0l0,0.8L344.6,1.6z M344.6,2l-0.6,0
		l0,0.6l0.4,0.2L344.6,2z M346.8,3.5l-0.4,0.6l0,0L346.8,3.5z M348,7.2l-0.6,0.2L348,7.2z M348.6,15.1l-0.6,0l0,0L348.6,15.1z
		 M348.6,82.7l-0.6,0L348.6,82.7z M348,90.6l-0.6-0.2L348,90.6z M346.7,94.3l-0.4-0.6L346.7,94.3z M344.5,95.8l-0.6,0l0,1.1l0.8-0.3
		L344.5,95.8z M358,2.4l0-0.8l-0.6,0l0,0.8L358,2.4z M371.7,3.8l-0.2,0.8L371.7,3.8z M376.6,7.9l-0.5,0.5L376.6,7.9z M376.9,42.4
		l0.5,0.5L376.9,42.4z M357.9,48.4l-0.6,0l0,0.8l0.6,0L357.9,48.4z M343.8,95.1l0,0.4l1.3,0l0-0.4L343.8,95.1z M344.5,96.3l17.7,0
		l0-1.7l-17.7,0L344.5,96.3z M362.8,95.5l0-0.4l-1.3,0l0,0.4L362.8,95.5z M362.3,94.3c-1-0.4-1.6-0.8-2.1-1.3l-0.8,1.3
		c0.7,0.7,1.5,1.3,2.6,1.7L362.3,94.3z M360.2,93c-0.4-0.4-0.7-1.3-1-3l-1.2,0.4c0.3,1.8,0.7,3.2,1.4,4L360.2,93z M359.2,89.9
		c-0.3-1.7-0.5-4.3-0.6-7.8l-1.3,0.1c0.1,3.5,0.3,6.2,0.6,8.1L359.2,89.9z M358.6,82.2c-0.1-3.5-0.1-8.4-0.1-14.5l-1.3,0
		c0,6.2,0,11.1,0.1,14.6L358.6,82.2z M358.5,67.6l0-19.4l-1.3,0l0,19.4L358.5,67.6z M357.9,49.1l2.4,0l0-1.7h-2.4L357.9,49.1z
		 M360.3,49.1c1.8,0,3.3,0.2,4.3,0.6l0.3-1.6c-1.1-0.4-2.7-0.7-4.6-0.7L360.3,49.1z M364.5,49.7c0.8,0.3,1.6,1.1,2.3,2.6l1.1-0.9
		c-0.8-1.7-1.8-2.9-3-3.4L364.5,49.7z M366.8,52.3c0.7,1.5,1.3,3.9,1.9,7.3l1.2-0.4c-0.6-3.4-1.2-6-2.1-7.8L366.8,52.3z M368.7,59.6
		c0.6,3.4,1.2,8.1,2.1,14.2l1.2-0.3c-0.8-6-1.5-10.8-2.1-14.2L368.7,59.6z M370.7,73.8c0.7,4.7,1.4,8.6,2.4,11.7l1.2-0.6
		c-0.9-2.9-1.7-6.8-2.3-11.4L370.7,73.8z M373.1,85.5c1,3.1,2,5.6,3.3,7.3l0.9-1.2c-1.1-1.5-2.1-3.8-3.1-6.8L373.1,85.5z
		 M376.5,92.8c1.3,1.7,2.8,2.9,4.5,3.6l0.4-1.6c-1.5-0.6-2.8-1.6-4-3.2L376.5,92.8z M381,96.4c1.7,0.7,3.5,1,5.5,1l0-1.7
		c-1.9,0-3.6-0.4-5.2-1L381,96.4z M386.5,97.5c2.1,0,3.8-0.5,5.1-1.5l-0.6-1.5c-1.1,0.8-2.6,1.3-4.5,1.3L386.5,97.5z M391.6,96
		c1.3-0.9,2.3-2,3-3.1l-0.9-1.1c-0.6,0.9-1.5,1.9-2.6,2.7L391.6,96z M394.6,91.8l-0.3-0.4l-0.9,1.2l0.3,0.4L394.6,91.8z M393.4,91.4
		c-0.5,0.8-1,1.4-1.6,1.8l0.6,1.5c0.7-0.6,1.3-1.2,2-2.2L393.4,91.4z M391.7,93.3c-0.5,0.4-1.3,0.6-2.3,0.6l0,1.7
		c1.2,0,2.2-0.3,2.9-0.9L391.7,93.3z M389.4,93.9c-0.9,0-1.7-0.3-2.5-1l-0.7,1.4c1,0.8,2,1.3,3.2,1.3L389.4,93.9z M386.9,92.9
		c-0.7-0.6-1.4-1.8-2-3.4l-1.1,0.7c0.7,1.8,1.5,3.2,2.5,4.1L386.9,92.9z M384.9,89.5c-0.6-1.7-1.3-3.9-1.8-6.7l-1.2,0.4
		c0.6,2.9,1.2,5.3,1.9,7.1L384.9,89.5z M383.1,82.7c-0.6-2.9-1.1-6.4-1.7-10.5l-1.2,0.3c0.6,4.2,1.1,7.7,1.7,10.6L383.1,82.7z
		 M381.4,72.2c-0.6-4.4-1.3-8.2-2.3-11.1l-1.1,0.7c0.9,2.8,1.7,6.4,2.2,10.7L381.4,72.2z M379.1,61.1c-1-3-2.1-5.4-3.5-7.4l-0.9,1.1
		c1.3,1.8,2.4,4.1,3.3,6.9L379.1,61.1z M375.6,53.7c-1.4-2-3-3.4-4.7-4.4l-0.5,1.6c1.6,0.8,3,2.1,4.3,3.9L375.6,53.7z M370.8,49.4
		c-1.8-0.9-3.7-1.4-5.8-1.7l-0.1,1.7c2,0.2,3.9,0.7,5.5,1.6L370.8,49.4z M364.9,49.3l1.9,0.1l0.1-1.7l-1.9-0.1L364.9,49.3z
		 M366.8,49.5c3.1,0,5.9-0.5,8.7-1.5l-0.3-1.6c-2.7,1-5.4,1.5-8.4,1.5L366.8,49.5z M375.6,47.9c2.8-1,5.2-2.6,7.4-4.7l-0.7-1.4
		c-2,1.9-4.3,3.4-6.9,4.4L375.6,47.9z M382.9,43.3c2.2-2.1,3.8-4.7,5.1-8l-1.1-0.8c-1.2,3-2.7,5.4-4.7,7.4L382.9,43.3z M388,35.3
		c1.3-3.3,1.9-7.1,1.9-11.3l-1.3,0c0,4-0.6,7.6-1.7,10.5L388,35.3z M389.9,24c0-8.1-2.1-14.1-6.4-17.8l-0.7,1.4
		c3.8,3.3,5.8,8.7,5.8,16.4L389.9,24z M383.5,6.2c-4.2-3.6-10.5-5.4-18.7-5.4l0,1.7c8.1,0,14.1,1.8,18,5.1L383.5,6.2z M364.8,0.8
		l-20.2,0l0,1.7l20.2,0L364.8,0.8z M343.9,1.6l0,0.4l1.3,0l0-0.4L343.9,1.6z M344.4,2.8c0.9,0.4,1.6,0.8,2,1.3l0.8-1.3
		c-0.6-0.7-1.5-1.3-2.5-1.7L344.4,2.8z M346.4,4.2c0.2,0.2,0.4,0.5,0.5,1.1c0.2,0.5,0.3,1.2,0.5,2.1l1.2-0.4
		c-0.1-0.9-0.3-1.7-0.5-2.4c-0.2-0.7-0.5-1.3-0.9-1.7L346.4,4.2z M347.4,7.3c0.3,1.7,0.5,4.3,0.6,7.8l1.3-0.1
		c-0.1-3.5-0.3-6.2-0.6-8.1L347.4,7.3z M348,15.1c0.1,3.5,0.1,8.4,0.1,14.5l1.3,0c0-6.2,0-11.1-0.1-14.6L348,15.1z M348.1,29.7
		l0,38.5l1.3,0l0-38.5L348.1,29.7z M348.1,68.1c0,6.2,0,11-0.1,14.5l1.3,0.1c0.1-3.5,0.1-8.5,0.1-14.6L348.1,68.1z M348,82.7
		c-0.1,3.5-0.3,6.1-0.6,7.8l1.2,0.4c0.3-1.8,0.5-4.5,0.6-8.1L348,82.7z M347.4,90.4c-0.3,1.7-0.7,2.7-1.1,3.2l0.8,1.3
		c0.7-0.8,1.2-2.3,1.5-4.1L347.4,90.4z M346.3,93.6c-0.5,0.5-1.2,1-2,1.3l0.4,1.6c1-0.4,1.8-0.9,2.5-1.7L346.3,93.6z M345.1,95.8
		l0-0.6l-1.3,0l0,0.6L345.1,95.8z M358,3.2l6.3,0l0-1.7l-6.3,0L358,3.2z M364.3,3.2c2.9,0,5.2,0.5,7.2,1.3l0.4-1.6
		c-2.1-0.9-4.7-1.4-7.6-1.4L364.3,3.2z M371.5,4.6c2,0.8,3.5,2.1,4.6,3.9l0.9-1.1c-1.3-2-3-3.5-5.2-4.4L371.5,4.6z M376.2,8.5
		c1.2,1.8,2.1,4,2.6,6.8l1.2-0.4c-0.6-3-1.6-5.5-2.9-7.5L376.2,8.5z M378.7,15.3c0.5,2.8,0.8,6.2,0.8,10.2l1.3,0
		c0-4.1-0.3-7.7-0.9-10.6L378.7,15.3z M379.6,25.5c0,7.1-1.1,12.5-3.2,16.4l1,1c2.3-4.2,3.4-10.1,3.4-17.3L379.6,25.5z M376.4,41.9
		c-2,3.7-5.4,5.7-10.2,5.7l0,1.7c5.1,0,8.9-2.1,11.2-6.4L376.4,41.9z M366.2,47.5l-8.3,0l0,1.7l8.3,0L366.2,47.5z M358.5,48.4
		l0.1-46l-1.3,0l-0.1,46L358.5,48.4z M393.5,95.1l0.6,0l-1.2-0.4L393.5,95.1z M393.5,95.5l-0.6,0l0,0.8l0.6,0L393.5,95.5z
		 M411.1,95.5l0,0.8l0.6,0l0-0.8L411.1,95.5z M411.1,95.1l0.6,0l0-0.6l-0.5-0.2L411.1,95.1z M408.7,93.6l-0.4,0.6L408.7,93.6z
		 M407.5,90.1l0.6-0.2l0,0L407.5,90.1z M407,82.2l-0.6,0L407,82.2z M407,14.6l-0.6,0L407,14.6z M407.5,6.7l0.6,0.2l0,0L407.5,6.7z
		 M411.1,1.6l0.2,0.8l0.5-0.2l0-0.6L411.1,1.6z M411.1,1.3l0.6,0l0-0.8l-0.6,0L411.1,1.3z M393.5,1.3l0-0.8l-0.6,0l0,0.8L393.5,1.3z
		 M393.5,1.6l-0.6,0l0,0.6l0.4,0.2L393.5,1.6z M397.6,14.7l0.6,0L397.6,14.7z M397.6,82.3l0.6,0L397.6,82.3z M397,90.2l-0.6-0.2
		L397,90.2z M395.7,93.9l-0.4-0.6L395.7,93.9z M393.4,95.4l-0.6-0.4l-0.6,1.7l1.4-0.6L393.4,95.4z M392.9,95.1l0,0.4l1.3,0l0-0.4
		L392.9,95.1z M393.5,96.3l17.6,0l0-1.7l-17.6,0L393.5,96.3z M411.7,95.5l0-0.4l-1.3,0l0,0.4L411.7,95.5z M411.3,94.3
		c-1-0.4-1.6-0.8-2.1-1.3l-0.8,1.3c0.7,0.7,1.5,1.3,2.6,1.7L411.3,94.3z M409.1,93c-0.4-0.4-0.7-1.3-1-3.1l-1.2,0.4
		c0.3,1.8,0.7,3.2,1.4,4L409.1,93z M408.1,89.9c-0.3-1.7-0.5-4.3-0.6-7.8l-1.3,0.1c0.1,3.5,0.3,6.2,0.6,8.1L408.1,89.9z M407.6,82.2
		c-0.1-3.5-0.1-8.4-0.1-14.5l-1.3,0c0,6.2,0,11.1,0.1,14.6L407.6,82.2z M407.5,67.6l0-38.5l-1.3,0l0,38.5L407.5,67.6z M407.5,29.2
		c0-6.2,0-11,0.1-14.5l-1.3-0.1c-0.1,3.5-0.1,8.5-0.1,14.6L407.5,29.2z M407.6,14.6c0.1-3.5,0.3-6.1,0.6-7.8l-1.2-0.4
		c-0.3,1.8-0.5,4.5-0.6,8.1L407.6,14.6z M408.1,6.8c0.3-1.7,0.6-2.6,1-3.1l-0.8-1.3c-0.7,0.8-1.1,2.2-1.4,4L408.1,6.8z M409.1,3.8
		c0.5-0.5,1.1-1,2.1-1.3l-0.3-1.6c-1.1,0.4-1.9,0.9-2.6,1.7L409.1,3.8z M411.7,1.6l0-0.4l-1.3,0l0,0.4L411.7,1.6z M411.1,0.4
		l-17.6,0l0,1.7l17.6,0L411.1,0.4z M392.9,1.3l0,0.4l1.3,0l0-0.4L392.9,1.3z M393.3,2.4c0.9,0.4,1.6,0.8,2,1.3l0.8-1.3
		c-0.6-0.7-1.5-1.3-2.5-1.7L393.3,2.4z M395.4,3.8c0.2,0.2,0.4,0.5,0.5,1.1c0.2,0.5,0.3,1.2,0.5,2.1l1.2-0.4
		c-0.1-0.9-0.3-1.7-0.5-2.4c-0.2-0.7-0.5-1.3-0.9-1.7L395.4,3.8z M396.4,7c0.3,1.7,0.5,4.3,0.6,7.8l1.3-0.1
		c-0.1-3.5-0.3-6.2-0.6-8.1L396.4,7z M396.9,14.7c0.1,3.5,0.1,8.4,0.1,14.5l1.3,0c0-6.2,0-11.1-0.1-14.6L396.9,14.7z M397,29.3
		l0,38.5l1.3,0l0-38.5L397,29.3z M397,67.7c0,6.2,0,11-0.1,14.5l1.3,0.1c0.1-3.5,0.1-8.5,0.1-14.6L397,67.7z M396.9,82.3
		c-0.1,3.5-0.3,6.1-0.6,7.8l1.2,0.4c0.3-1.8,0.5-4.5,0.6-8.1L396.9,82.3z M396.4,90.1c-0.3,1.7-0.7,2.7-1.1,3.2l0.8,1.3
		c0.7-0.8,1.2-2.3,1.5-4.1L396.4,90.1z M395.3,93.2c-0.5,0.5-1.2,1-2,1.3l0.4,1.6c1-0.4,1.8-0.9,2.5-1.7L395.3,93.2z M394,95.8
		l0.1-0.3l-1.1-0.7l-0.1,0.3L394,95.8z M413.3,95.1l0.6,0l0-1.2l-0.8,0.4L413.3,95.1z M413.3,95.5l-0.6,0l0,0.8l0.6,0L413.3,95.5z
		 M454.2,94.3l0.6,0.2l0,0l0,0L454.2,94.3z M455.3,80.9l0.6,0.1l0.1-0.9l-0.7,0L455.3,80.9z M454.9,80.9l0-0.8l-0.5,0l-0.1,0.6
		L454.9,80.9z M449.6,92.7l-0.3-0.7L449.6,92.7z M445,94.6l0.1,0.8L445,94.6z M426.7,95l-0.6,0l0,0.8l0.6,0L426.7,95z M426.7,44.1
		l0-0.8l-0.6,0l0,0.8L426.7,44.1z M438.9,47.3l-0.5,0.5l0,0L438.9,47.3z M440.2,50.3l0.6-0.3L440.2,50.3z M440.8,53.7l-0.6,0.2
		l0.1,0.7l0.5,0L440.8,53.7z M441,53.7l0,0.8l0.6,0l0-0.8L441,53.7z M441,33.7l0.6,0l0-0.8l-0.6,0L441,33.7z M440.8,33.7l0-0.8
		l-0.5,0l-0.1,0.7L440.8,33.7z M440.2,37.1l0.6,0.3L440.2,37.1z M438.9,40.1l-0.5-0.5L438.9,40.1z M436.5,42.4l0.3,0.8L436.5,42.4z
		 M426.7,43.2l-0.6,0l0,0.8l0.6,0L426.7,43.2z M426.7,1.4l0-0.8l-0.6,0l0,0.8L426.7,1.4z M443.1,2L443,2.8l0,0L443.1,2z M447.4,4
		l-0.3,0.7L447.4,4z M450.5,7.9L450,8.4l0,0L450.5,7.9z M452.6,14.1l-0.6,0.2l0.1,0.6l0.5,0L452.6,14.1z M452.9,14.1l0,0.8l0.7,0
		l-0.1-1L452.9,14.1z M451.4,2.9L450.8,3l0,0l0,0L451.4,2.9z M451,1.4l-0.3,0.7l0,0L451,1.4z M413.2,1.1l0-0.8l-0.6,0l0,0.8
		L413.2,1.1z M413.2,1.5l-0.6,0l0,0.6l0.4,0.2L413.2,1.5z M415.4,3l0.4-0.6l0,0L415.4,3z M417.2,14.6l0.6,0L417.2,14.6z M417.2,82.2
		l0.6,0L417.2,82.2z M416.6,90.1l0.6,0.2L416.6,90.1z M415.3,93.8l-0.4-0.6L415.3,93.8z M413.1,95.3l-0.2-0.8l0.4,1.6L413.1,95.3z
		 M412.7,95.1l0,0.4l1.3,0l0-0.4L412.7,95.1z M413.3,96.3l39.9,0l0-1.7l-39.9,0L413.3,96.3z M453.2,96.3c0.2,0,0.5,0,0.8-0.2
		l-0.6-1.5c0,0-0.1,0-0.3,0L453.2,96.3z M454.1,96.1c0.3-0.2,0.4-0.5,0.5-0.8c0.1-0.3,0.1-0.6,0.2-0.9l-1.2-0.3
		c0,0.3-0.1,0.5-0.1,0.6c0,0.1,0,0,0.1,0L454.1,96.1z M454.8,94.3l1.1-13.3l-1.2-0.2l-1.1,13.3L454.8,94.3z M455.3,80.1l-0.4,0
		l0,1.7l0.4,0L455.3,80.1z M454.3,80.7c-0.6,3.1-1.3,5.5-2.1,7.3l1.1,0.9c0.9-2,1.7-4.6,2.2-7.8L454.3,80.7z M452.2,88
		c-0.8,1.8-1.8,3-3,4l0.6,1.5c1.4-1.1,2.5-2.6,3.4-4.6L452.2,88z M449.2,92c-1.2,0.9-2.7,1.5-4.4,1.8l0.1,1.7c1.9-0.3,3.5-0.9,4.9-2
		L449.2,92z M444.9,93.8c-1.8,0.2-3.9,0.4-6.3,0.4l0,1.7c2.5,0,4.6-0.1,6.5-0.4L444.9,93.8z M438.6,94.2l-11.9,0l0,1.7l11.9,0
		L438.6,94.2z M427.3,95l0-50.9l-1.3,0l0,50.9L427.3,95z M426.7,45l5.5,0l0-1.7l-5.5,0L426.7,45z M432.3,45c1.8,0,3.1,0.3,4,0.8
		l0.5-1.5c-1.2-0.7-2.7-1-4.5-1L432.3,45z M436.2,45.8c1,0.6,1.7,1.3,2.2,2l1-1.1c-0.6-1-1.6-1.8-2.7-2.5L436.2,45.8z M438.5,47.8
		c0.5,0.8,0.8,1.7,1.1,2.7l1.2-0.5c-0.3-1.2-0.7-2.3-1.3-3.3L438.5,47.8z M439.6,50.5c0.3,1.1,0.5,2.2,0.6,3.3l1.2-0.4
		c-0.2-1.1-0.4-2.3-0.7-3.5L439.6,50.5z M440.8,54.5l0.2,0l0-1.7l-0.2,0L440.8,54.5z M441.6,53.7l0-20l-1.3,0l0,20L441.6,53.7z
		 M441,32.8l-0.2,0l0,1.7l0.2,0L441,32.8z M440.2,33.5c-0.2,1.1-0.4,2.2-0.6,3.3l1.2,0.5c0.3-1.2,0.5-2.4,0.7-3.5L440.2,33.5z
		 M439.6,36.8c-0.3,1.1-0.6,2-1.1,2.7l1,1.1c0.6-1,1-2.1,1.3-3.3L439.6,36.8z M438.5,39.5c-0.5,0.8-1.2,1.4-2.2,2l0.5,1.5
		c1.1-0.7,2-1.5,2.7-2.5L438.5,39.5z M436.2,41.6c-0.9,0.6-2.2,0.8-4,0.8l0,1.7c1.8,0,3.3-0.3,4.5-1L436.2,41.6z M432.3,42.4l-5.5,0
		l0,1.7l5.5,0L432.3,42.4z M427.3,43.2l0-41.8l-1.3,0l0,41.8L427.3,43.2z M426.7,2.2l10.4,0l0-1.7l-10.4,0L426.7,2.2z M437.1,2.2
		c2.2,0,4.2,0.2,5.8,0.6l0.2-1.7c-1.7-0.4-3.7-0.6-6-0.6L437.1,2.2z M443,2.8c1.6,0.4,3,1,4.1,1.9l0.7-1.4c-1.3-1.1-2.8-1.7-4.6-2.1
		L443,2.8z M447.1,4.7c1.2,0.9,2.1,2.1,2.9,3.7l1-1c-0.9-1.7-2-3.1-3.3-4.1L447.1,4.7z M450,8.4c0.8,1.5,1.4,3.5,2,5.9l1.2-0.5
		c-0.6-2.6-1.3-4.7-2.2-6.4L450,8.4z M452.6,14.9l0.4,0l0-1.7l-0.4,0L452.6,14.9z M453.6,13.9l-1.5-11.2L450.8,3l1.5,11.2
		L453.6,13.9z M452.1,2.8c-0.1-0.5-0.1-0.9-0.2-1.3c-0.1-0.3-0.3-0.7-0.6-0.9l-0.6,1.5c-0.1,0-0.1-0.1-0.1-0.1c0,0,0,0,0.1,0.1
		c0.1,0.2,0.1,0.4,0.2,0.8L452.1,2.8z M451.3,0.6c-0.2-0.2-0.6-0.3-1-0.3l0,1.7c0.2,0,0.3,0.1,0.5,0.2L451.3,0.6z M450.2,0.3
		l-37.1,0l0,1.7l37.1,0L450.2,0.3z M412.5,1.1l0,0.4l1.3,0l0-0.4L412.5,1.1z M413,2.3c0.9,0.4,1.6,0.8,2,1.3l0.8-1.3
		c-0.6-0.7-1.5-1.3-2.5-1.7L413,2.3z M415,3.7c0.2,0.2,0.4,0.5,0.5,1.1c0.2,0.5,0.3,1.2,0.5,2.1l1.2-0.4c-0.1-0.9-0.3-1.7-0.5-2.4
		c-0.2-0.7-0.5-1.3-0.9-1.7L415,3.7z M416,6.8c0.3,1.7,0.5,4.3,0.6,7.8l1.3-0.1c-0.1-3.5-0.3-6.2-0.6-8.1L416,6.8z M416.6,14.6
		c0.1,3.5,0.1,8.4,0.1,14.5l1.3,0c0-6.2,0-11.1-0.1-14.6L416.6,14.6z M416.7,29.2l0,38.5l1.3,0l0-38.5L416.7,29.2z M416.7,67.6
		c0,6.2,0,11-0.1,14.5l1.3,0.1c0.1-3.5,0.1-8.5,0.1-14.6L416.7,67.6z M416.6,82.2c-0.1,3.5-0.3,6.1-0.6,7.8l1.2,0.4
		c0.3-1.8,0.5-4.5,0.6-8.1L416.6,82.2z M416,89.9c-0.3,1.7-0.7,2.7-1.1,3.2l0.8,1.3c0.7-0.8,1.2-2.3,1.5-4.1L416,89.9z M414.9,93.1
		c-0.5,0.5-1.2,1-2,1.3l0.4,1.6c1-0.4,1.8-0.9,2.5-1.7L414.9,93.1z M413.3,96.1l0.3-0.1l-0.4-1.6l-0.3,0.1L413.3,96.1z"/>
</g>
</svg>
