<svg width="607" height="97" viewBox="0 0 607 97" fill="none" xmlns="http://www.w3.org/2000/svg">
<g style="mix-blend-mode:darken">
<path d="M0.619221 94.6233V95H24.1029V94.6233C22.7216 94.2465 21.7169 93.7442 20.9634 93.1163C20.2099 92.4884 19.7076 91.3581 19.3309 89.6C18.9541 87.8419 18.7029 85.2046 18.5774 81.6884C18.4518 78.1721 18.4518 73.2744 18.4518 67.1209V28.693C18.4518 22.5395 18.4518 17.6418 18.5774 14.1256C18.7029 10.6093 18.9541 7.97208 19.3309 6.21394C19.7076 4.4558 20.2099 3.32557 20.9634 2.69766C21.7169 2.06975 22.7216 1.56743 24.1029 1.19068V0.813933H0.619221V1.19068C1.87503 1.56743 2.87969 2.06975 3.63317 2.69766C4.38666 3.32557 4.88899 4.58138 5.26573 6.33952C5.64248 8.09766 5.89364 10.7349 6.01922 14.2512C6.1448 17.7674 6.1448 22.6651 6.1448 28.8186V67.2465C6.1448 73.4 6.1448 78.2977 6.01922 81.814C5.89364 85.3302 5.64248 87.9674 5.26573 89.7256C4.88899 91.4837 4.26108 92.7395 3.50759 93.3674C2.7541 93.9953 1.74945 94.4977 0.493639 94.8744L0.619221 94.6233ZM27.1091 94.6233V95H38.7881V94.6233C37.4067 94.1209 36.4021 93.493 35.6486 92.8651C34.8951 92.2372 34.3928 90.9814 34.016 89.2233C33.6393 87.4651 33.3881 84.8279 33.2625 81.4372C33.137 78.0465 33.137 73.2744 33.137 67.2465V3.57673L82.4905 95.5023H84.2486V28.8186C84.2486 22.7907 84.2486 18.0186 84.3742 14.6279C84.4998 11.2372 84.7509 8.59998 85.1277 6.84185C85.5044 5.08371 86.0067 3.82789 86.7602 3.19999C87.5137 2.57207 88.5184 1.94417 89.7742 1.44184V1.0651H78.0951V1.44184C79.4765 1.94417 80.4812 2.57207 81.2346 3.19999C81.9881 3.82789 82.4905 5.08371 82.8672 6.84185C83.2439 8.59998 83.4951 11.2372 83.6207 14.6279C83.7463 18.0186 83.7463 22.7907 83.7463 28.8186V70.7628L47.7044 4.07905C46.9509 2.69766 46.323 1.81859 45.9463 1.44184C45.5695 1.0651 44.9416 0.93952 44.0625 0.93952H27.2346V1.31626C28.4904 1.69301 29.4951 2.19533 30.2486 2.82324C31.0021 3.45115 31.5044 4.70696 31.8811 6.4651C32.2579 8.22324 32.5091 10.8605 32.6346 14.3767C32.7602 17.893 32.7602 22.7907 32.7602 28.9442V67.3721C32.7602 73.4 32.7602 78.1721 32.6346 81.5628C32.5091 84.9535 32.2579 87.5907 31.8811 89.3488C31.5044 91.107 30.8765 92.3628 30.123 92.9907C29.3695 93.6186 28.3649 94.2465 27.1091 94.7488V94.6233ZM92.2299 94.6233V95H115.714V94.6233C114.332 94.2465 113.328 93.7442 112.574 93.1163C111.821 92.4884 111.318 91.3581 110.942 89.6C110.565 87.8419 110.314 85.2046 110.188 81.6884C110.062 78.1721 110.062 73.2744 110.062 67.1209V43.8884L134.802 84.5767C136.686 87.8419 137.69 90.2279 137.816 91.7349C137.942 93.2419 137.062 94.2465 135.179 94.8744V95.1256H157.407V94.8744C156.653 94.4977 156.025 94.1209 155.523 93.6186C155.021 93.1163 154.393 92.4884 153.765 91.7349C153.137 90.9814 152.509 90.1023 151.881 88.9721C151.253 87.8419 150.5 86.4605 149.621 84.8279L119.732 34.4698L142.588 9.60464C145.476 6.4651 147.737 4.33021 149.369 3.0744C151.002 1.81859 152.258 1.0651 153.137 0.688353V0.437193H141.081V0.688353C142.337 1.0651 143.342 1.56743 143.969 2.06975C144.597 2.57207 144.848 3.32557 144.723 4.20463C144.597 5.08371 144.095 6.21394 143.216 7.46975C142.337 8.72556 140.955 10.3581 139.197 12.2418L110.314 43.6372V28.4418C110.314 22.2884 110.314 17.3907 110.439 13.8744C110.565 10.3581 110.816 7.72091 111.193 5.96277C111.569 4.20463 112.072 3.0744 112.825 2.44649C113.579 1.81859 114.583 1.31626 115.965 0.93952V0.562773H92.481V0.93952C93.7369 1.31626 94.7415 1.81859 95.495 2.44649C96.2485 3.0744 96.7508 4.33021 97.1276 6.08836C97.5043 7.8465 97.7555 10.4837 97.881 14C98.0066 17.5163 98.0066 22.4139 98.0066 28.5674V66.9953C98.0066 73.1488 98.0066 78.0465 97.881 81.5628C97.7555 85.0791 97.5043 87.7163 97.1276 89.4744C96.7508 91.2326 96.1229 92.4884 95.3694 93.1163C94.6159 93.7442 93.6113 94.2465 92.3555 94.6233H92.2299ZM180.652 94.6233V95H230.885C231.136 95 231.387 95 231.638 94.8744C231.889 94.7488 232.14 94.3721 232.266 93.7442L234.652 78.4233H234.275C233.271 81.814 232.14 84.5767 230.885 86.7116C229.629 88.8465 228.122 90.4791 226.364 91.6093C224.605 92.7395 222.596 93.493 220.336 93.8698C218.075 94.2465 215.438 94.4977 212.424 94.4977H198.61V28.693C198.61 22.5395 198.61 17.6418 198.736 14.1256C198.861 10.6093 199.112 7.97208 199.489 6.21394C199.866 4.4558 200.368 3.32557 201.122 2.69766C201.875 2.06975 202.88 1.56743 204.261 1.19068V0.813933H180.652V1.19068C181.908 1.56743 182.912 2.06975 183.666 2.69766C184.419 3.32557 184.922 4.58138 185.298 6.33952C185.675 8.09766 185.926 10.7349 186.052 14.2512C186.178 17.7674 186.178 22.6651 186.178 28.8186V67.2465C186.178 73.4 186.178 78.2977 186.052 81.814C185.926 85.3302 185.675 87.9674 185.298 89.7256C184.922 91.4837 184.294 92.7395 183.54 93.3674C182.787 93.9953 181.782 94.4977 180.526 94.8744L180.652 94.6233ZM237.065 94.6233V95H260.549V94.6233C259.168 94.2465 258.163 93.7442 257.41 93.1163C256.656 92.4884 256.154 91.3581 255.777 89.6C255.4 87.8419 255.149 85.2046 255.024 81.6884C254.898 78.1721 254.898 73.2744 254.898 67.1209V28.693C254.898 22.5395 254.898 17.6418 255.024 14.1256C255.149 10.6093 255.4 7.97208 255.777 6.21394C256.154 4.4558 256.656 3.32557 257.41 2.69766C258.163 2.06975 259.168 1.56743 260.549 1.19068V0.813933H237.065V1.19068C238.321 1.56743 239.326 2.06975 240.079 2.69766C240.833 3.32557 241.335 4.58138 241.712 6.33952C242.089 8.09766 242.34 10.7349 242.465 14.2512C242.591 17.7674 242.591 22.6651 242.591 28.8186V67.2465C242.591 73.4 242.591 78.2977 242.465 81.814C242.34 85.3302 242.089 87.9674 241.712 89.7256C241.335 91.4837 240.707 92.7395 239.954 93.3674C239.2 93.9953 238.196 94.4977 236.94 94.8744L237.065 94.6233ZM263.555 94.6233V95H275.234V94.6233C273.853 94.1209 272.848 93.493 272.095 92.8651C271.341 92.2372 270.839 90.9814 270.462 89.2233C270.086 87.4651 269.834 84.8279 269.709 81.4372C269.583 78.0465 269.583 73.2744 269.583 67.2465V3.57673L318.937 95.5023H320.695V28.8186C320.695 22.7907 320.695 18.0186 320.82 14.6279C320.946 11.2372 321.197 8.59998 321.574 6.84185C321.951 5.08371 322.453 3.82789 323.206 3.19999C323.96 2.57207 324.965 1.94417 326.22 1.44184V1.0651H314.541V1.44184C315.923 1.94417 316.927 2.57207 317.681 3.19999C318.434 3.82789 318.937 5.08371 319.313 6.84185C319.69 8.59998 319.941 11.2372 320.067 14.6279C320.193 18.0186 320.193 22.7907 320.193 28.8186V70.7628L284.151 4.07905C283.397 2.69766 282.769 1.81859 282.393 1.44184C282.016 1.0651 281.388 0.93952 280.509 0.93952H263.681V1.31626C264.937 1.69301 265.941 2.19533 266.695 2.82324C267.448 3.45115 267.951 4.70696 268.327 6.4651C268.704 8.22324 268.955 10.8605 269.081 14.3767C269.206 17.893 269.206 22.7907 269.206 28.9442V67.3721C269.206 73.4 269.206 78.1721 269.081 81.5628C268.955 84.9535 268.704 87.5907 268.327 89.3488C267.951 91.107 267.323 92.3628 266.569 92.9907C265.816 93.6186 264.811 94.2465 263.555 94.7488V94.6233ZM365.974 96.0047C369.239 96.0047 372.253 95.6279 375.016 94.7488C377.778 93.8698 380.29 92.8651 382.551 91.6093C384.811 90.3535 386.695 88.8465 388.327 87.214C389.96 85.5814 391.216 84.0744 392.22 82.5674V73.6512C392.22 69.3814 392.22 65.9907 392.346 63.4791C392.471 60.9674 392.723 59.0837 393.099 57.8279C393.476 56.5721 394.104 55.693 394.858 55.1907C395.611 54.6884 396.616 54.3116 397.997 53.9349V53.5581H374.765V53.9349C376.02 54.3116 377.025 54.6884 377.778 55.1907C378.532 55.693 379.16 56.5721 379.537 57.8279C379.913 59.0837 380.165 60.8419 380.29 63.1023C380.416 65.3628 380.416 68.3767 380.416 72.2698V74.5302C380.416 78.4233 380.165 81.6884 379.788 84.3256C379.411 86.9628 378.658 89.2233 377.527 90.9814C376.397 92.7395 374.89 93.9953 373.006 94.7488C371.123 95.5023 368.611 95.8791 365.597 95.8791C362.332 95.8791 359.318 95 356.555 93.1163C353.792 91.2326 351.406 88.3442 349.397 84.3256C347.388 80.307 345.881 75.1581 344.876 68.8791C343.871 62.6 343.369 55.0651 343.369 46.1488C343.369 37.6093 343.871 30.4512 345.002 24.6744C346.132 18.8977 347.639 14.2512 349.648 10.7349C351.658 7.21858 354.044 4.70696 356.806 3.19999C359.569 1.69301 362.583 0.93952 365.848 0.93952C368.485 0.93952 370.997 1.31626 373.383 2.06975C375.769 2.82324 377.904 4.07905 379.788 5.71161C381.671 7.34417 383.304 9.47905 384.685 12.1163C386.067 14.7535 387.071 17.893 387.699 21.5349H388.076V1.81859H387.699C387.071 4.07905 385.941 5.20929 384.434 5.20929C383.178 5.20929 382.048 4.95813 380.918 4.4558C379.788 3.95347 378.532 3.45115 377.151 2.94882C375.769 2.44649 374.137 1.94417 372.378 1.44184C370.62 0.93952 368.36 0.688353 365.723 0.688353C361.327 0.688353 356.932 1.56743 352.662 3.45115C348.392 5.33487 344.499 8.22324 341.109 12.1163C337.718 16.0093 334.955 20.907 332.82 26.8093C330.685 32.7116 329.681 39.7442 329.681 47.907C329.681 55.4419 330.56 62.2233 332.192 68.2512C333.825 74.2791 336.211 79.4279 339.225 83.5721C342.239 87.7163 346.006 90.9814 350.402 93.2419C354.797 95.5023 359.695 96.6326 365.095 96.6326L365.974 96.0047ZM400.174 94.6233V95H453.421C453.672 95 453.923 95 454.174 94.8744C454.425 94.7488 454.551 94.3721 454.676 93.7442L456.183 80.4326H455.681C454.928 83.5721 453.923 86.0837 452.793 87.9674C451.663 89.8512 450.281 91.2326 448.523 92.2372C446.765 93.2419 444.756 93.8698 442.37 94.1209C439.983 94.3721 437.095 94.4977 433.83 94.4977H418.007V43.6372H425.416C427.802 43.6372 429.686 43.8884 431.067 44.5163C432.449 45.1442 433.579 45.8977 434.332 46.7767C435.086 47.6558 435.588 48.6605 435.965 49.7907C436.342 50.9209 436.593 52.0512 436.844 53.1814H437.095V33.2139H436.844C436.593 34.3442 436.342 35.4744 435.965 36.6046C435.588 37.7349 435.086 38.7395 434.332 39.6186C433.579 40.4977 432.449 41.2512 431.067 41.8791C429.686 42.507 427.802 42.7581 425.416 42.7581H418.007V0.93952H431.946C434.96 0.93952 437.597 1.19068 439.858 1.56743C442.118 1.94417 444.002 2.57207 445.635 3.57673C447.267 4.58138 448.649 5.83719 449.779 7.46975C450.909 9.10231 451.788 11.1116 452.542 13.6232H453.044L451.035 2.44649C450.909 1.56743 450.658 1.0651 450.407 0.93952C450.156 0.813933 449.779 0.688353 449.402 0.688353H399.923V1.0651C401.179 1.44184 402.183 1.94417 402.937 2.57207C403.69 3.19999 404.193 4.4558 404.57 6.21394C404.946 7.97208 405.197 10.6093 405.323 14.1256C405.449 17.6418 405.449 22.5395 405.449 28.693V67.1209C405.449 73.2744 405.449 78.1721 405.323 81.6884C405.197 85.2046 404.946 87.8419 404.57 89.6C404.193 91.3581 403.565 92.614 402.811 93.2419C402.058 93.8698 401.053 94.3721 399.797 94.7488L400.174 94.6233ZM458.795 94.6233V95H482.404V94.6233C481.023 94.2465 480.018 93.7442 479.265 93.1163C478.511 92.4884 478.009 91.3581 477.632 89.6C477.256 87.8419 477.004 85.2046 476.879 81.6884C476.753 78.1721 476.753 73.2744 476.753 67.1209V47.7814H479.893C482.404 47.7814 484.414 48.0325 485.795 48.4093C487.177 48.786 488.307 49.7907 489.311 51.4232C490.316 53.0558 491.195 55.5674 491.949 58.9581C492.702 62.3488 493.581 67.1209 494.711 73.1488C495.591 77.7953 496.595 81.6884 497.851 84.7023C499.107 87.7163 500.488 90.1023 502.121 91.7349C503.753 93.3674 505.637 94.4977 507.772 95.1256C509.907 95.7535 512.293 96.1302 514.93 96.1302C517.567 96.1302 519.702 95.6279 521.335 94.7488C522.967 93.8698 524.223 92.8651 525.102 91.8605L524.725 91.4837C523.972 92.3628 523.218 92.9907 522.339 93.493C521.46 93.9953 520.33 94.2465 518.823 94.2465C517.442 94.2465 516.186 93.8698 515.056 93.1163C513.925 92.3628 512.921 91.107 512.042 89.3488C511.163 87.5907 510.284 85.3302 509.53 82.4419C508.777 79.5535 508.023 76.0372 507.27 71.893C506.516 67.4977 505.511 63.8558 504.256 60.9674C503 58.0791 501.493 55.693 499.735 53.8093C497.977 51.9256 495.967 50.5442 493.707 49.6651C491.446 48.786 488.935 48.2837 486.172 48.0325L488.684 48.1581C492.702 48.1581 496.47 47.6558 500.111 46.6512C503.753 45.6465 506.893 44.1395 509.656 42.1302C512.418 40.1209 514.553 37.6093 516.186 34.4698C517.818 31.3302 518.572 27.6884 518.572 23.5442C518.572 15.6325 515.809 9.98138 510.409 6.4651C505.009 2.94882 496.846 1.19068 485.921 1.19068H458.921V1.56743C460.177 1.94417 461.181 2.44649 461.935 3.0744C462.688 3.70231 463.191 4.95813 463.567 6.71627C463.944 8.4744 464.195 11.1116 464.321 14.6279C464.446 18.1442 464.446 23.0418 464.446 29.1953V67.6233C464.446 73.7767 464.446 78.6744 464.321 82.1907C464.195 85.707 463.944 88.3442 463.567 90.1023C463.191 91.8605 462.563 93.1163 461.809 93.7442C461.056 94.3721 460.051 94.8744 458.795 95.2512V94.6233ZM476.879 1.94417H485.293C489.186 1.94417 492.451 2.44649 495.214 3.32557C497.977 4.20463 500.111 5.58603 501.744 7.46975C503.377 9.35347 504.632 11.7395 505.386 14.6279C506.139 17.5163 506.516 21.0325 506.516 25.0511C506.516 32.2093 505.009 37.8605 502.121 41.8791C499.232 45.8977 494.46 47.907 487.804 47.907H476.753L476.879 1.94417ZM524.284 94.6233V95H547.768V94.6233C546.386 94.2465 545.382 93.7442 544.628 93.1163C543.875 92.4884 543.372 91.3581 542.996 89.6C542.619 87.8419 542.368 85.2046 542.242 81.6884C542.116 78.1721 542.116 73.2744 542.116 67.1209V28.693C542.116 22.5395 542.116 17.6418 542.242 14.1256C542.368 10.6093 542.619 7.97208 542.996 6.21394C543.372 4.4558 543.875 3.32557 544.628 2.69766C545.382 2.06975 546.386 1.56743 547.768 1.19068V0.813933H524.284V1.19068C525.54 1.56743 526.544 2.06975 527.298 2.69766C528.051 3.32557 528.554 4.58138 528.93 6.33952C529.307 8.09766 529.558 10.7349 529.684 14.2512C529.809 17.7674 529.809 22.6651 529.809 28.8186V67.2465C529.809 73.4 529.809 78.2977 529.684 81.814C529.558 85.3302 529.307 87.9674 528.93 89.7256C528.554 91.4837 527.926 92.7395 527.172 93.3674C526.419 93.9953 525.414 94.4977 524.158 94.8744L524.284 94.6233ZM550.774 94.6233V95H604.02C604.271 95 604.523 95 604.774 94.8744C605.025 94.7488 605.15 94.3721 605.276 93.7442L606.783 80.4326H606.281C605.527 83.5721 604.523 86.0837 603.392 87.9674C602.262 89.8512 600.881 91.2326 599.123 92.2372C597.364 93.2419 595.355 93.8698 592.969 94.1209C590.583 94.3721 587.695 94.4977 584.43 94.4977H568.606V43.6372H576.016C578.402 43.6372 580.285 43.8884 581.667 44.5163C583.048 45.1442 584.178 45.8977 584.932 46.7767C585.685 47.6558 586.188 48.6605 586.564 49.7907C586.941 50.9209 587.192 52.0512 587.443 53.1814H587.695V33.2139H587.443C587.192 34.3442 586.941 35.4744 586.564 36.6046C586.188 37.7349 585.685 38.7395 584.932 39.6186C584.178 40.4977 583.048 41.2512 581.667 41.8791C580.285 42.507 578.402 42.7581 576.016 42.7581H568.606V0.93952H582.546C585.56 0.93952 588.197 1.19068 590.457 1.56743C592.718 1.94417 594.602 2.57207 596.234 3.57673C597.867 4.58138 599.248 5.83719 600.378 7.46975C601.509 9.10231 602.388 11.1116 603.141 13.6232H603.643L601.634 2.44649C601.509 1.56743 601.257 1.0651 601.006 0.93952C600.755 0.813933 600.378 0.688353 600.002 0.688353H550.523V1.0651C551.778 1.44184 552.783 1.94417 553.536 2.57207C554.29 3.19999 554.792 4.4558 555.169 6.21394C555.546 7.97208 555.797 10.6093 555.923 14.1256C556.048 17.6418 556.048 22.5395 556.048 28.693V67.1209C556.048 73.2744 556.048 78.1721 555.923 81.6884C555.797 85.2046 555.546 87.8419 555.169 89.6C554.792 91.3581 554.164 92.614 553.411 93.2419C552.657 93.8698 551.653 94.3721 550.397 94.7488L550.774 94.6233Z" fill="#580300"/>
</g>
</svg>
