<?xml version="1.0" encoding="utf-8"?>
<!-- Generator: Adobe Illustrator 24.0.2, SVG Export Plug-In . SVG Version: 6.00 Build 0)  -->
<svg version="1.1" id="Layer_1" xmlns="http://www.w3.org/2000/svg" xmlns:xlink="http://www.w3.org/1999/xlink" x="0px" y="0px"
	 viewBox="0 0 607 97" style="enable-background:new 0 0 607 97;" xml:space="preserve">
<style type="text/css">
	.st0{fill:#580300;}
</style>
<g>
	<g>
		<path class="st0" d="M149.9,1.4c-0.4,0.3-0.8,0.5-1.1,0.8c-0.9,0.7-2,1.7-3.2,2.8c0.1-0.3,0.1-0.5,0.2-0.8
			c0.2-1.2-0.2-2.2-0.9-2.9H149.9 M112.3,1.6c0,0-0.1,0.1-0.1,0.1c-0.9,0.8-1.5,2-2,4.1c-0.4,1.8-0.6,4.5-0.8,8.1
			c-0.1,3.5-0.1,8.4-0.1,14.6v12.3l-0.3-0.4v3.6v23.2c0,6.2,0,11.1,0.1,14.6c0.1,3.6,0.4,6.3,0.8,8.1c0.4,2,1,3.3,2,4.1
			c0,0,0.1,0.1,0.1,0.1H95.9c0,0,0.1-0.1,0.1-0.1c1-0.8,1.7-2.2,2.1-4.2c0.4-1.8,0.6-4.5,0.8-8.1C99,78.1,99,73.2,99,67V28.6
			c0-6.2,0-11.1-0.1-14.6c-0.1-3.6-0.4-6.3-0.8-8.1c-0.5-2.2-1.1-3.4-2-4.2c0,0-0.1-0.1-0.1-0.1H112.3 M600,1.7c0.1,0,0.3,0,0.4,0.1
			c0.1,0.1,0.1,0.4,0.2,0.8l0.8,4.7c-0.1-0.2-0.2-0.3-0.3-0.4c-1.2-1.7-2.6-3.1-4.4-4.2c-0.6-0.4-1.3-0.7-2.1-1H600 M567.6,1.7v40.9
			v1V94h-13.5c0.9-0.8,1.7-2.2,2.1-4.2c0.4-1.8,0.6-4.5,0.8-8.1c0.1-3.5,0.1-8.4,0.1-14.6V28.7c0-6.2,0-11.1-0.1-14.6
			c-0.1-3.6-0.4-6.3-0.8-8.1c-0.5-2.2-1.1-3.5-2-4.2c0,0-0.1-0.1-0.1-0.1H567.6 M449.4,1.7c0.1,0,0.3,0,0.4,0.1
			c0.1,0.1,0.1,0.4,0.2,0.8l0.8,4.7c-0.1-0.2-0.2-0.3-0.3-0.4c-1.2-1.7-2.6-3.1-4.4-4.2c-0.6-0.4-1.3-0.7-2.1-1H449.4 M417,1.7v40.9
			v1V94h-13.5c0.9-0.8,1.7-2.2,2.1-4.2c0.4-1.8,0.6-4.5,0.8-8.1c0.1-3.5,0.1-8.4,0.1-14.6V28.7c0-6.2,0-11.1-0.1-14.6
			c-0.1-3.6-0.4-6.3-0.8-8.1c-0.5-2.2-1.1-3.4-2-4.2c0,0-0.1-0.1-0.1-0.1H417 M544.1,1.8c0,0-0.1,0.1-0.1,0.1c-0.9,0.8-1.5,2-2,4.1
			c-0.4,1.8-0.6,4.5-0.8,8.1c-0.1,3.5-0.1,8.4-0.1,14.6v38.4c0,6.2,0,11.1,0.1,14.6c0.1,3.6,0.4,6.3,0.8,8.1c0.4,2,1,3.3,2,4.1
			c0,0,0.1,0.1,0.1,0.1H528c0.9-0.8,1.5-2.2,1.9-4.1c0.4-1.8,0.6-4.5,0.8-8.1c0.1-3.5,0.1-8.4,0.1-14.6V28.8c0-6.2,0-11.1-0.1-14.6
			c-0.1-3.6-0.4-6.3-0.8-8.1c-0.5-2.1-1.1-3.5-2-4.2c0,0-0.1-0.1-0.1-0.1H544.1 M256.9,1.8c0,0-0.1,0.1-0.1,0.1
			c-0.9,0.8-1.5,2-2,4.1c-0.4,1.8-0.6,4.5-0.8,8.1c-0.1,3.5-0.1,8.4-0.1,14.6v38.4c0,6.2,0,11.1,0.1,14.6c0.1,3.6,0.4,6.3,0.8,8.1
			c0.4,2,1,3.3,2,4.1c0,0,0.1,0.1,0.1,0.1h-16.2c0.9-0.8,1.5-2.2,1.9-4.1c0.4-1.8,0.6-4.5,0.8-8.1c0.1-3.5,0.1-8.4,0.1-14.6V28.8
			c0-6.2,0-11.1-0.1-14.6c-0.1-3.6-0.4-6.3-0.8-8.1c-0.5-2.2-1.1-3.5-2-4.2c0,0-0.1-0.1-0.1-0.1H256.9 M200.6,1.8
			c0,0-0.1,0.1-0.1,0.1c-0.9,0.8-1.5,2-2,4.1c-0.4,1.8-0.6,4.5-0.8,8.1c-0.1,3.5-0.1,8.4-0.1,14.6V94h-13.3c0.9-0.8,1.5-2.2,1.9-4.1
			c0.4-1.8,0.6-4.5,0.8-8.1c0.1-3.5,0.1-8.4,0.1-14.6V28.8c0-6.2,0-11.1-0.1-14.6c-0.1-3.6-0.4-6.3-0.8-8.1c-0.5-2.1-1.1-3.5-2-4.2
			c0,0-0.1-0.1-0.1-0.1H200.6 M20.5,1.8c0,0-0.1,0.1-0.1,0.1c-0.9,0.8-1.5,2-2,4.1c-0.4,1.8-0.6,4.5-0.8,8.1
			c-0.1,3.5-0.1,8.4-0.1,14.6v38.4c0,6.2,0,11.1,0.1,14.6c0.1,3.6,0.4,6.3,0.8,8.1c0.4,2,1,3.3,2,4.1c0,0,0.1,0.1,0.1,0.1H4.3
			c0.9-0.8,1.5-2.2,1.9-4.1c0.4-1.8,0.6-4.5,0.8-8.1c0.1-3.5,0.1-8.4,0.1-14.6V28.8c0-6.2,0-11.1-0.1-14.6C6.9,10.6,6.6,8,6.2,6.1
			C5.8,4,5.2,2.7,4.3,1.9c0,0-0.1-0.1-0.1-0.1H20.5 M280.5,1.9c0.9,0,1.1,0.1,1.2,0.2c0.3,0.3,0.9,1.1,1.6,2.4l36,66.7l0.4,0.7v22.6
			h-0.2L270.5,3.1l-0.6-1.2H280.5 M268.6,1.9v1.6v0.3c-0.3-0.8-0.8-1.4-1.2-1.8c0,0-0.1-0.1-0.1-0.1H268.6 M44.1,1.9
			c0.9,0,1.1,0.1,1.2,0.2c0.3,0.3,0.9,1.1,1.6,2.4l36,66.7l0.4,0.7v22.6h-0.2L34,3.1l-0.6-1.2H44.1 M32.1,1.9v1.6v0.3
			c-0.3-0.8-0.8-1.4-1.2-1.8c0,0-0.1-0.1-0.1-0.1H32.1 M323,2.1c-0.2,0.1-0.3,0.2-0.5,0.4c-0.9,0.8-1.5,2-2,4.2
			c-0.1,0.2-0.1,0.5-0.2,0.8c0-0.3-0.1-0.5-0.2-0.8c-0.5-2.1-1.1-3.5-2-4.2c-0.2-0.1-0.3-0.2-0.5-0.4H323 M86.6,2.1
			c-0.2,0.1-0.3,0.2-0.5,0.4c-0.9,0.8-1.5,2-2,4.2C84.1,6.9,84,7.1,84,7.4c0-0.3-0.1-0.5-0.2-0.8c-0.5-2.2-1.1-3.4-2-4.2
			c-0.2-0.1-0.3-0.2-0.5-0.4H86.6 M475.9,2.2l-0.1,45.6v0.1v19.2c0,6.2,0,11.1,0.1,14.6c0.1,3.6,0.4,6.3,0.8,8.1c0.4,2,1,3.3,2,4.1
			c0,0,0.1,0.1,0.1,0.1H463c0.7-0.8,1.2-2.1,1.6-3.7c0.4-1.8,0.6-4.5,0.8-8.1c0.1-3.5,0.1-8.4,0.1-14.6V29.2c0-6.2,0-11.1-0.1-14.6
			c-0.1-3.6-0.4-6.3-0.8-8.1c-0.5-2.1-1.1-3.5-2-4.2c0,0-0.1-0.1-0.1-0.1H475.9 M497.1,3c5.3,0.8,9.6,2.3,12.8,4.3
			c5.2,3.4,7.7,8.7,7.7,16.2c0,4.1-0.7,7.5-2.3,10.5c-1.6,3-3.6,5.4-6.2,7.3c-2.7,2-5.7,3.4-9.2,4.4c-0.1,0-0.2,0-0.2,0.1
			c1.3-0.9,2.4-2,3.3-3.3c3-4.2,4.6-10.1,4.6-17.4c0-4.1-0.4-7.7-1.2-10.7c-0.8-3-2.1-5.5-3.9-7.6C501.1,5.1,499.3,3.9,497.1,3
			 M353.8,4.1c-1.9,1.6-3.5,3.6-5,6.2c-2,3.5-3.6,8.2-4.8,14.2c-1.1,5.7-1.7,12.8-1.7,21.7c0,9,0.5,16.5,1.5,22.9
			c1,6.4,2.6,11.6,4.6,15.7c2.1,4.1,4.5,7.1,7.5,9.2c0.4,0.3,0.8,0.5,1.3,0.8c-2.2-0.5-4.4-1.3-6.4-2.4C346.6,90.2,343,87,340,83
			c-3-4.1-5.3-9.1-6.9-15c-1.6-6.1-2.5-12.8-2.5-20.1c0-8.2,1-15,3.1-20.8c2.1-5.8,4.8-10.6,8.1-14.4c3.3-3.7,7-6.6,11.2-8.4
			C353.3,4.3,353.5,4.2,353.8,4.1 M387.1,5.1v10c-0.4-1.2-0.9-2.4-1.5-3.5c-1.2-2.4-2.7-4.4-4.4-6c1,0.4,2.1,0.6,3.2,0.6
			C385.1,6.2,386.2,6,387.1,5.1 M119.2,35.5l29.6,49.8c0.9,1.6,1.6,3,2.3,4.2c0.6,1.1,1.2,2,2,2.9c0.6,0.7,1.1,1.3,1.6,1.8h-16.5
			c0.6-0.8,0.7-1.7,0.7-2.5c-0.1-1.7-1.2-4.2-3.2-7.6l-24.3-40L119.2,35.5 M586.7,38.8v8.8c-0.3-0.5-0.6-1-1-1.5
			c-0.8-1-2-1.8-3.6-2.5c-0.3-0.2-0.7-0.3-1.1-0.4c0.4-0.1,0.8-0.3,1.1-0.4c1.6-0.7,2.8-1.6,3.6-2.5
			C586.1,39.8,586.4,39.3,586.7,38.8 M436.1,38.8v8.8c-0.3-0.5-0.6-1-1-1.4c-0.8-1-2-1.8-3.6-2.5c-0.3-0.2-0.7-0.3-1.1-0.4
			c0.4-0.1,0.8-0.3,1.1-0.4c1.6-0.7,2.8-1.6,3.6-2.5C435.5,39.8,435.8,39.3,436.1,38.8 M489.1,49.4c1.6,0.3,3,0.7,4.3,1.2
			c2.1,0.8,4,2.1,5.7,3.9c1.7,1.8,3.1,4.1,4.3,6.9c1.2,2.8,2.2,6.4,2.9,10.7c0.8,4.1,1.5,7.7,2.3,10.6c0.7,2.7,1.6,5.1,2.6,7.1
			c1,1.9,2.1,3.3,3.4,4.2c0.8,0.5,1.6,0.9,2.4,1.1c-0.6,0.1-1.3,0.1-2,0.1c-2.4,0-4.7-0.3-6.9-1c-2-0.6-3.7-1.6-5.2-3.1
			c-1.5-1.5-2.8-3.6-4.1-6.7c-1.1-2.8-2.2-6.5-3.1-11.4l-0.4-1.9c-1-5.2-1.7-9.3-2.4-12.3c-0.8-3.5-1.7-6.1-2.8-7.8
			C489.8,50.3,489.5,49.9,489.1,49.4 M394,54.6c-0.9,0.7-1.5,1.7-1.9,3c-0.4,1.3-0.7,3.3-0.8,5.9c-0.1,2.5-0.1,5.9-0.1,10.2v8.6
			c-0.9,1.4-2.1,2.8-3.6,4.2c-1.7,1.7-3.5,3.1-5.6,4.2c-1.4,0.8-3,1.5-4.7,2.2c0.4-0.4,0.7-0.9,1-1.4c1.2-1.9,2-4.2,2.4-7.1
			c0.4-3,0.6-6.3,0.6-9.9v-2.3c0-3.9,0-6.9-0.1-9.2c-0.1-2.3-0.4-4.2-0.8-5.5c-0.4-1.3-1-2.3-1.9-3H394 M232.5,85.9l-1.2,7.7
			c0,0.2-0.1,0.4-0.1,0.4c-0.1,0-0.2,0-0.3,0h-7.1c1.1-0.4,2.2-0.9,3.1-1.5c1.9-1.2,3.5-3,4.8-5.2C232,86.8,232.2,86.3,232.5,85.9
			 M605,87.1l-0.7,6.5c0,0.2-0.1,0.3-0.1,0.4c-0.1,0-0.1,0-0.2,0h-6.3c0.6-0.3,1.3-0.6,1.9-0.9c1.9-1.1,3.4-2.6,4.6-4.6
			C604.5,88,604.8,87.6,605,87.1 M454.4,87.1l-0.7,6.5c0,0.2-0.1,0.3-0.1,0.4c-0.1,0-0.1,0-0.2,0h-6.3c0.6-0.3,1.3-0.6,1.9-0.9
			c1.9-1.1,3.4-2.6,4.6-4.6C453.9,88,454.2,87.6,454.4,87.1 M269.4,89c0,0.1,0.1,0.3,0.1,0.4c0.5,2.2,1.1,3.5,2,4.2
			c0.2,0.1,0.3,0.2,0.5,0.4h-5c0.1-0.1,0.2-0.2,0.3-0.2c1-0.8,1.7-2.2,2.1-4.2C269.3,89.4,269.4,89.2,269.4,89 M33,89
			c0,0.1,0.1,0.3,0.1,0.4c0.5,2.2,1.1,3.4,2,4.2c0.2,0.1,0.3,0.2,0.5,0.4h-5c0.1-0.1,0.2-0.2,0.3-0.2c1-0.8,1.7-2.2,2.1-4.2
			C32.9,89.4,32.9,89.2,33,89 M153.1,0.4h-12.1v0.3c1.3,0.4,2.3,0.9,2.9,1.4c0.6,0.5,0.9,1.3,0.8,2.1c-0.1,0.9-0.6,2-1.5,3.3
			c-0.9,1.3-2.3,2.9-4,4.8l-28.9,31.4V28.4c0-6.2,0-11.1,0.1-14.6c0.1-3.5,0.4-6.2,0.8-7.9c0.4-1.8,0.9-2.9,1.6-3.5
			c0.8-0.6,1.8-1.1,3.1-1.5V0.6H92.5v0.4c1.3,0.4,2.3,0.9,3,1.5c0.8,0.6,1.3,1.9,1.6,3.6c0.4,1.8,0.6,4.4,0.8,7.9
			C98,17.5,98,22.4,98,28.6V67c0,6.2,0,11.1-0.1,14.6c-0.1,3.5-0.4,6.2-0.8,7.9c-0.4,1.8-1,3-1.8,3.6c-0.8,0.6-1.8,1.1-3,1.5h-0.1
			V95h23.5v-0.4c-1.4-0.4-2.4-0.9-3.1-1.5c-0.8-0.6-1.3-1.8-1.6-3.5c-0.4-1.8-0.6-4.4-0.8-7.9c-0.1-3.5-0.1-8.4-0.1-14.6V43.9
			l24.7,40.7c1.9,3.3,2.9,5.7,3,7.2c0.1,1.5-0.8,2.5-2.6,3.1v0.3h22.2v-0.3c-0.8-0.4-1.4-0.8-1.9-1.3c-0.5-0.5-1.1-1.1-1.8-1.9
			c-0.6-0.8-1.3-1.6-1.9-2.8c-0.6-1.1-1.4-2.5-2.3-4.1l-29.9-50.4l22.9-24.9c2.9-3.1,5.1-5.3,6.8-6.5c1.6-1.3,2.9-2,3.8-2.4V0.4
			L153.1,0.4z M600,0.7h-49.5v0.4c1.3,0.4,2.3,0.9,3,1.5c0.8,0.6,1.3,1.9,1.6,3.6c0.4,1.8,0.6,4.4,0.8,7.9c0.1,3.5,0.1,8.4,0.1,14.6
			v38.4c0,6.2,0,11.1-0.1,14.6c-0.1,3.5-0.4,6.2-0.8,7.9c-0.4,1.8-1,3-1.8,3.6c-0.7,0.6-1.6,1-2.6,1.4V95H604c0.3,0,0.5,0,0.8-0.1
			c0.3-0.1,0.4-0.5,0.5-1.1l1.5-13.3h-0.5c-0.8,3.1-1.8,5.7-2.9,7.5c-1.1,1.9-2.5,3.3-4.3,4.3c-1.8,1-3.8,1.6-6.2,1.9
			c-2.4,0.3-5.3,0.4-8.5,0.4h-15.8V43.6h7.4c2.4,0,4.3,0.3,5.7,0.9c1.4,0.6,2.5,1.4,3.3,2.3c0.8,0.9,1.3,1.9,1.6,3
			c0.4,1.1,0.6,2.3,0.9,3.4h0.3v-20h-0.3c-0.3,1.1-0.5,2.3-0.9,3.4c-0.4,1.1-0.9,2.1-1.6,3c-0.8,0.9-1.9,1.6-3.3,2.3
			c-1.4,0.6-3.3,0.9-5.7,0.9h-7.4V0.9h13.9c3,0,5.7,0.3,7.9,0.6c2.3,0.4,4.1,1,5.8,2c1.6,1,3,2.3,4.1,3.9c1.1,1.6,2,3.6,2.8,6.2h0.5
			l-2-11.2c-0.1-0.9-0.4-1.4-0.6-1.5C600.8,0.8,600.4,0.7,600,0.7L600,0.7z M449.4,0.7h-49.5v0.4c1.3,0.4,2.3,0.9,3,1.5
			c0.8,0.6,1.3,1.9,1.6,3.6c0.4,1.8,0.6,4.4,0.8,7.9c0.1,3.5,0.1,8.4,0.1,14.6v38.4c0,6.2,0,11.1-0.1,14.6c-0.1,3.5-0.4,6.2-0.8,7.9
			c-0.4,1.8-1,3-1.8,3.6c-0.7,0.6-1.6,1-2.6,1.4V95h53.2c0.3,0,0.5,0,0.8-0.1c0.3-0.1,0.4-0.5,0.5-1.1l1.5-13.3h-0.5
			c-0.8,3.1-1.8,5.7-2.9,7.5c-1.1,1.9-2.5,3.3-4.3,4.3c-1.8,1-3.8,1.6-6.2,1.9c-2.4,0.3-5.3,0.4-8.5,0.4H418V43.6h7.4
			c2.4,0,4.3,0.3,5.7,0.9c1.4,0.6,2.5,1.4,3.3,2.3c0.8,0.9,1.3,1.9,1.6,3c0.4,1.1,0.6,2.3,0.9,3.4h0.3v-20h-0.3
			c-0.3,1.1-0.5,2.3-0.9,3.4c-0.4,1.1-0.9,2.1-1.6,3c-0.8,0.9-1.9,1.6-3.3,2.3c-1.4,0.6-3.3,0.9-5.7,0.9H418V0.9h13.9
			c3,0,5.7,0.3,7.9,0.6c2.3,0.4,4.1,1,5.8,2c1.6,1,3,2.3,4.1,3.9c1.1,1.6,2,3.6,2.8,6.2h0.5l-2-11.2c-0.1-0.9-0.4-1.4-0.6-1.5
			C450.2,0.8,449.8,0.7,449.4,0.7L449.4,0.7z M365.7,0.7c-4.4,0-8.8,0.9-13.1,2.8c-4.3,1.9-8.2,4.8-11.6,8.7
			c-3.4,3.9-6.2,8.8-8.3,14.7c-2.1,5.9-3.1,12.9-3.1,21.1c0,7.5,0.9,14.3,2.5,20.3c1.6,6,4,11.2,7,15.3c3,4.1,6.8,7.4,11.2,9.7
			c4.4,2.3,9.3,3.4,14.7,3.4L366,96c3.3,0,6.3-0.4,9-1.3c2.8-0.9,5.3-1.9,7.5-3.1c2.3-1.3,4.1-2.8,5.8-4.4c1.6-1.6,2.9-3.1,3.9-4.6
			v-8.9c0-4.3,0-7.7,0.1-10.2c0.1-2.5,0.4-4.4,0.8-5.7c0.4-1.3,1-2.1,1.8-2.6c0.8-0.5,1.8-0.9,3.1-1.3v-0.4h-23.2v0.4
			c1.3,0.4,2.3,0.8,3,1.3c0.8,0.5,1.4,1.4,1.8,2.6c0.4,1.3,0.6,3,0.8,5.3c0.1,2.3,0.1,5.3,0.1,9.2v2.3c0,3.9-0.3,7.2-0.6,9.8
			c-0.4,2.6-1.1,4.9-2.3,6.7c-1.1,1.8-2.6,3-4.5,3.8c-1.9,0.8-4.4,1.1-7.4,1.1c-3.3,0-6.3-0.9-9-2.8c-2.8-1.9-5.1-4.8-7.2-8.8
			s-3.5-9.2-4.5-15.4c-1-6.3-1.5-13.8-1.5-22.7c0-8.5,0.5-15.7,1.6-21.5c1.1-5.8,2.6-10.4,4.6-13.9c2-3.5,4.4-6,7.2-7.5
			c2.8-1.5,5.8-2.3,9-2.3c2.6,0,5.1,0.4,7.5,1.1c2.4,0.8,4.5,2,6.4,3.6c1.9,1.6,3.5,3.8,4.9,6.4c1.4,2.6,2.4,5.8,3,9.4h0.4V1.8h-0.4
			c-0.6,2.3-1.8,3.4-3.3,3.4c-1.3,0-2.4-0.3-3.5-0.8c-1.1-0.5-2.4-1-3.8-1.5c-1.4-0.5-3-1-4.8-1.5C370.6,0.9,368.4,0.7,365.7,0.7
			L365.7,0.7z M547.8,0.8h-23.5v0.4c1.3,0.4,2.3,0.9,3,1.5c0.8,0.6,1.3,1.9,1.6,3.6c0.4,1.8,0.6,4.4,0.8,7.9
			c0.1,3.5,0.1,8.4,0.1,14.6v38.4c0,6.2,0,11.1-0.1,14.6c-0.1,3.5-0.4,6.2-0.8,7.9c-0.4,1.8-1,3-1.8,3.6c-0.7,0.6-1.7,1.1-2.9,1.5
			V95h23.5v-0.4c-1.4-0.4-2.4-0.9-3.1-1.5c-0.8-0.6-1.3-1.8-1.6-3.5c-0.4-1.8-0.6-4.4-0.8-7.9c-0.1-3.5-0.1-8.4-0.1-14.6V28.7
			c0-6.2,0-11.1,0.1-14.6c0.1-3.5,0.4-6.2,0.8-7.9c0.4-1.8,0.9-2.9,1.6-3.5c0.8-0.6,1.8-1.1,3.1-1.5V0.8L547.8,0.8z M260.5,0.8
			h-23.5v0.4c1.3,0.4,2.3,0.9,3,1.5c0.8,0.6,1.3,1.9,1.6,3.6c0.4,1.8,0.6,4.4,0.8,7.9c0.1,3.5,0.1,8.4,0.1,14.6v38.4
			c0,6.2,0,11.1-0.1,14.6c-0.1,3.5-0.4,6.2-0.8,7.9c-0.4,1.8-1,3-1.8,3.6c-0.7,0.6-1.7,1.1-2.9,1.5V95h23.5v-0.4
			c-1.4-0.4-2.4-0.9-3.1-1.5c-0.8-0.6-1.3-1.8-1.6-3.5c-0.4-1.8-0.6-4.4-0.8-7.9c-0.1-3.5-0.1-8.4-0.1-14.6V28.7
			c0-6.2,0-11.1,0.1-14.6c0.1-3.5,0.4-6.2,0.8-7.9c0.4-1.8,0.9-2.9,1.6-3.5c0.8-0.6,1.8-1.1,3.1-1.5V0.8L260.5,0.8z M204.3,0.8
			h-23.6v0.4c1.3,0.4,2.3,0.9,3,1.5c0.8,0.6,1.3,1.9,1.6,3.6c0.4,1.8,0.6,4.4,0.8,7.9c0.1,3.5,0.1,8.4,0.1,14.6v38.4
			c0,6.2,0,11.1-0.1,14.6c-0.1,3.5-0.4,6.2-0.8,7.9c-0.4,1.8-1,3-1.8,3.6c-0.7,0.6-1.7,1.1-2.9,1.5V95h50.2c0.3,0,0.5,0,0.8-0.1
			c0.3-0.1,0.5-0.5,0.6-1.1l2.4-15.3h-0.4c-1,3.4-2.1,6.2-3.4,8.3c-1.3,2.1-2.8,3.8-4.5,4.9c-1.8,1.1-3.8,1.9-6,2.3
			c-2.3,0.4-4.9,0.6-7.9,0.6h-13.8V28.7c0-6.2,0-11.1,0.1-14.6c0.1-3.5,0.4-6.2,0.8-7.9c0.4-1.8,0.9-2.9,1.6-3.5
			c0.8-0.6,1.8-1.1,3.1-1.5V0.8L204.3,0.8z M24.1,0.8H0.6v0.4c1.3,0.4,2.3,0.9,3,1.5c0.8,0.6,1.3,1.9,1.6,3.6
			c0.4,1.8,0.6,4.4,0.8,7.9c0.1,3.5,0.1,8.4,0.1,14.6v38.4c0,6.2,0,11.1-0.1,14.6c-0.1,3.5-0.4,6.2-0.8,7.9c-0.4,1.8-1,3-1.8,3.6
			c-0.7,0.6-1.7,1.1-2.9,1.5V95h23.5v-0.4c-1.4-0.4-2.4-0.9-3.1-1.5c-0.8-0.6-1.3-1.8-1.6-3.5c-0.4-1.8-0.6-4.4-0.8-7.9
			c-0.1-3.5-0.1-8.4-0.1-14.6V28.7c0-6.2,0-11.1,0.1-14.6c0.1-3.5,0.4-6.2,0.8-7.9c0.4-1.8,0.9-2.9,1.6-3.5c0.8-0.6,1.8-1.1,3.1-1.5
			V0.8L24.1,0.8z M280.5,0.9h-16.8v0.4c1.3,0.4,2.3,0.9,3,1.5c0.8,0.6,1.3,1.9,1.6,3.6c0.4,1.8,0.6,4.4,0.8,7.9
			c0.1,3.5,0.1,8.4,0.1,14.6v38.4c0,6,0,10.8-0.1,14.2c-0.1,3.4-0.4,6-0.8,7.8c-0.4,1.8-1,3-1.8,3.6c-0.8,0.6-1.8,1.3-3,1.8v-0.1V95
			h11.7v-0.4c-1.4-0.5-2.4-1.1-3.1-1.8c-0.8-0.6-1.3-1.9-1.6-3.6c-0.4-1.8-0.6-4.4-0.8-7.8c-0.1-3.4-0.1-8.2-0.1-14.2V3.6l49.4,91.9
			h1.8V28.8c0-6,0-10.8,0.1-14.2c0.1-3.4,0.4-6,0.8-7.8c0.4-1.8,0.9-3,1.6-3.6c0.8-0.6,1.8-1.3,3-1.8V1.1h-11.7v0.4
			c1.4,0.5,2.4,1.1,3.1,1.8c0.8,0.6,1.3,1.9,1.6,3.6c0.4,1.8,0.6,4.4,0.8,7.8c0.1,3.4,0.1,8.2,0.1,14.2v41.9l-36-66.7
			c-0.8-1.4-1.4-2.3-1.8-2.6C282,1.1,281.4,0.9,280.5,0.9L280.5,0.9z M44.1,0.9H27.2v0.4c1.3,0.4,2.3,0.9,3,1.5
			c0.8,0.6,1.3,1.9,1.6,3.6c0.4,1.8,0.6,4.4,0.8,7.9c0.1,3.5,0.1,8.4,0.1,14.6v38.4c0,6,0,10.8-0.1,14.2c-0.1,3.4-0.4,6-0.8,7.8
			c-0.4,1.8-1,3-1.8,3.6c-0.8,0.6-1.8,1.3-3,1.8v-0.1V95h11.7v-0.4c-1.4-0.5-2.4-1.1-3.1-1.8c-0.8-0.6-1.3-1.9-1.6-3.6
			c-0.4-1.8-0.6-4.4-0.8-7.8c-0.1-3.4-0.1-8.2-0.1-14.2V3.6l49.4,91.9h1.8V28.8c0-6,0-10.8,0.1-14.2c0.1-3.4,0.4-6,0.8-7.8
			c0.4-1.8,0.9-3,1.6-3.6c0.8-0.6,1.8-1.3,3-1.8V1.1H78.1v0.4c1.4,0.5,2.4,1.1,3.1,1.8c0.8,0.6,1.3,1.9,1.6,3.6
			c0.4,1.8,0.6,4.4,0.8,7.8s0.1,8.2,0.1,14.2v41.9l-36-66.7c-0.8-1.4-1.4-2.3-1.8-2.6C45.6,1.1,44.9,0.9,44.1,0.9L44.1,0.9z
			 M485.9,1.2h-27v0.4c1.3,0.4,2.3,0.9,3,1.5c0.8,0.6,1.3,1.9,1.6,3.6c0.4,1.8,0.6,4.4,0.8,7.9c0.1,3.5,0.1,8.4,0.1,14.6v38.4
			c0,6.2,0,11.1-0.1,14.6c-0.1,3.5-0.4,6.2-0.8,7.9c-0.4,1.8-1,3-1.8,3.6c-0.6,0.5-1.4,0.9-2.3,1.3h22.9v-0.4
			c-1.4-0.4-2.4-0.9-3.1-1.5c-0.8-0.6-1.3-1.8-1.6-3.5c-0.4-1.8-0.6-4.4-0.8-7.9c-0.1-3.5-0.1-8.4-0.1-14.6V47.9v-0.1h0l0.1-45.8
			h8.4c3.9,0,7.2,0.5,9.9,1.4c2.8,0.9,4.9,2.3,6.5,4.1c1.6,1.9,2.9,4.3,3.6,7.2c0.8,2.9,1.1,6.4,1.1,10.4c0,7.2-1.5,12.8-4.4,16.8
			c-2.9,4-7.7,6-14.3,6h-5c1.2,0.1,2.2,0.3,3,0.5c1.4,0.4,2.5,1.4,3.5,3c1,1.6,1.9,4.1,2.6,7.5c0.8,3.4,1.6,8.2,2.8,14.2
			c0.9,4.6,1.9,8.5,3.1,11.6c1.3,3,2.6,5.4,4.3,7c1.6,1.6,3.5,2.8,5.7,3.4s4.5,1,7.2,1c2.6,0,4.8-0.5,6.4-1.4
			c1.6-0.9,2.9-1.9,3.8-2.9l-0.4-0.4c-0.8,0.9-1.5,1.5-2.4,2c-0.9,0.5-2,0.8-3.5,0.8c-1.4,0-2.6-0.4-3.8-1.1c-1.1-0.8-2.1-2-3-3.8
			c-0.9-1.8-1.8-4-2.5-6.9c-0.8-2.9-1.5-6.4-2.3-10.5c-0.8-4.4-1.8-8-3-10.9c-1.3-2.9-2.8-5.3-4.5-7.2c-1.8-1.9-3.8-3.3-6-4.1
			c-2.3-0.9-4.8-1.4-7.5-1.6l2.5,0.1c4,0,7.8-0.5,11.4-1.5c3.6-1,6.8-2.5,9.5-4.5c2.8-2,4.9-4.5,6.5-7.7c1.6-3.1,2.4-6.8,2.4-10.9
			c0-7.9-2.8-13.6-8.2-17.1C505,2.9,496.8,1.2,485.9,1.2L485.9,1.2z M479.9,47.8h-3.1l0,0.1h6.1C481.9,47.8,481,47.8,479.9,47.8
			L479.9,47.8z M550.8,94.6l-0.4,0.1C550.5,94.7,550.7,94.7,550.8,94.6L550.8,94.6L550.8,94.6z M524.3,94.6l-0.1,0.3
			c0,0,0.1,0,0.1,0V94.6L524.3,94.6z M458.8,94.6V95V94.6L458.8,94.6z M400.2,94.6l-0.4,0.1C399.9,94.7,400.1,94.7,400.2,94.6
			L400.2,94.6L400.2,94.6z M237.1,94.6l-0.1,0.3c0,0,0.1,0,0.1,0V94.6L237.1,94.6z M180.7,94.6l-0.1,0.3c0,0,0.1,0,0.1,0V94.6
			L180.7,94.6z M0.6,94.6l-0.1,0.3c0,0,0.1,0,0.1,0V94.6L0.6,94.6z M459.5,95h-0.8v0.3C459.1,95.2,459.3,95.1,459.5,95L459.5,95z"/>
	</g>
</g>
</svg>
